<?xml version="1.0" encoding="UTF-8" standalone="no"?>
<!-- Created with Inkscape (http://www.inkscape.org/) -->

<svg
   xmlns:dc="http://purl.org/dc/elements/1.1/"
   xmlns:cc="http://creativecommons.org/ns#"
   xmlns:rdf="http://www.w3.org/1999/02/22-rdf-syntax-ns#"
   xmlns:svg="http://www.w3.org/2000/svg"
   xmlns="http://www.w3.org/2000/svg"
   xmlns:xlink="http://www.w3.org/1999/xlink"
   xmlns:sodipodi="http://sodipodi.sourceforge.net/DTD/sodipodi-0.dtd"
   xmlns:inkscape="http://www.inkscape.org/namespaces/inkscape"
   width="20"
   height="20"
   id="svg5738"
   version="1.1"
   inkscape:version="0.48.2 r9819"
   sodipodi:docname="harddrive.svg">
  <defs
     id="defs5740">
    <linearGradient
       inkscape:collect="always"
       xlink:href="#linearGradient4103"
       id="linearGradient4184"
       gradientUnits="userSpaceOnUse"
       x1="3003"
       y1="10"
       x2="3017"
       y2="10"
       gradientTransform="translate(1,2.6171874e-6)" />
    <linearGradient
       inkscape:collect="always"
       id="linearGradient4103">
      <stop
         style="stop-color:#000000;stop-opacity:1;"
         offset="0"
         id="stop4105" />
      <stop
         style="stop-color:#000000;stop-opacity:0;"
         offset="1"
         id="stop4107" />
    </linearGradient>
  </defs>
  <sodipodi:namedview
     id="base"
     pagecolor="#ffffff"
     bordercolor="#666666"
     borderopacity="1.0"
     inkscape:pageopacity="0.0"
     inkscape:pageshadow="2"
     inkscape:zoom="22.627417"
     inkscape:cx="11.565427"
     inkscape:cy="10.553246"
     inkscape:document-units="px"
     inkscape:current-layer="layer1"
     showgrid="true"
     inkscape:window-width="1390"
     inkscape:window-height="884"
     inkscape:window-x="20"
     inkscape:window-y="20"
     inkscape:window-maximized="0"
     inkscape:object-nodes="true">
    <inkscape:grid
       type="xygrid"
       id="grid5746"
       empspacing="5"
       visible="true"
       enabled="true"
       snapvisiblegridlinesonly="true" />
  </sodipodi:namedview>
  <metadata
     id="metadata5743">
    <rdf:RDF>
      <cc:Work
         rdf:about="">
        <dc:format>image/svg+xml</dc:format>
        <dc:type
           rdf:resource="http://purl.org/dc/dcmitype/StillImage" />
        <dc:title></dc:title>
      </cc:Work>
    </rdf:RDF>
  </metadata>
  <g
     inkscape:label="Layer 1"
     inkscape:groupmode="layer"
     id="layer1"
     transform="translate(0,-1032.3622)">
    <g
       transform="matrix(0.11094933,0,0,0.11094933,3.9897927,1034.5003)"
       id="g3498"
       style="fill:#000000;fill-opacity:1;display:inline">
      <path
         inkscape:connector-curvature="0"
         d="m 28.709,28.63 c 3.516,0 7.758,1.405202 12.727,2.858202 5.015,1.454 8.343,2.18 9.984,2.18 2.109,0 5.555,-0.82 10.336,-2.461 4.781,-1.64 8.93,-3.140202 12.445,-3.140202 5.766,0 10.899,1.547 15.399,4.641 2.531,1.781 5.039,4.195 7.523,7.242 -3.75,3.188 -6.492,6.024 -8.226,8.508 -3.141,4.5 -4.711,9.469 -4.711,14.906 0,5.953 1.664,11.32 4.992,16.102 3.328,4.781 7.125,7.804 11.392,9.07 -1.783,5.766 -4.736,11.794 -8.861,18.074 -6.234,9.42 -12.422,14.13 -18.562,14.13 -2.438,0 -5.813,-0.77 -10.125,-2.32 -4.266,-1.55 -7.875,-2.32 -10.828,-2.32 -2.954,0 -6.399,0.8 -10.336,2.39 -3.891,1.64 -7.055,2.46 -9.493,2.46 -7.359,0 -14.578,-6.23 -21.656,-18.7 C 3.631,89.919 0.092,77.825 0.092,65.966 0.09199,54.95 2.7873,45.974 8.1779,39.036 13.615,32.098 20.4589,28.63 28.7089,28.63 m 44.297,-28.72108165 c 0.187,0.60946 0.305,1.14860005 0.352,1.61720005 0.046,0.4689 0.07,0.9376 0.07,1.4063 0,3.0001 -0.703,6.281 -2.109,9.8439996 -1.407,3.562 -3.633,6.867 -6.68,9.914 -2.625,2.578 -5.227,4.312 -7.805,5.203 -1.64,0.516 -4.125,0.914 -7.453,1.195 0.094,-7.125 1.945,-13.289 5.555,-18.492 3.656,-5.2029996 9.679,-8.7654996 18.07,-10.68699965"
         id="path3500"
         style="fill:#000000;fill-opacity:1"
         sodipodi:nodetypes="ccscscccscccscscscsccccscccccc" />
    </g>
  </g>
</svg>
