<?xml version="1.0" encoding="UTF-8" standalone="no"?>
<!-- Created with Inkscape (http://www.inkscape.org/) -->

<svg
   xmlns:dc="http://purl.org/dc/elements/1.1/"
   xmlns:cc="http://creativecommons.org/ns#"
   xmlns:rdf="http://www.w3.org/1999/02/22-rdf-syntax-ns#"
   xmlns:svg="http://www.w3.org/2000/svg"
   xmlns="http://www.w3.org/2000/svg"
   xmlns:sodipodi="http://sodipodi.sourceforge.net/DTD/sodipodi-0.dtd"
   xmlns:inkscape="http://www.inkscape.org/namespaces/inkscape"
   width="20"
   height="20"
   id="svg5738"
   version="1.1"
   inkscape:version="0.48.2 r9819"
   sodipodi:docname="pencil.svg">
  <defs
     id="defs5740" />
  <sodipodi:namedview
     id="base"
     pagecolor="#ffffff"
     bordercolor="#666666"
     borderopacity="1.0"
     inkscape:pageopacity="0.0"
     inkscape:pageshadow="2"
     inkscape:zoom="1"
     inkscape:cx="1.1476911"
     inkscape:cy="-10.029077"
     inkscape:document-units="px"
     inkscape:current-layer="layer1"
     showgrid="true"
     inkscape:window-width="901"
     inkscape:window-height="733"
     inkscape:window-x="20"
     inkscape:window-y="20"
     inkscape:window-maximized="0">
    <inkscape:grid
       type="xygrid"
       id="grid5746"
       empspacing="5"
       visible="true"
       enabled="true"
       snapvisiblegridlinesonly="true" />
  </sodipodi:namedview>
  <metadata
     id="metadata5743">
    <rdf:RDF>
      <cc:Work
         rdf:about="">
        <dc:format>image/svg+xml</dc:format>
        <dc:type
           rdf:resource="http://purl.org/dc/dcmitype/StillImage" />
        <dc:title></dc:title>
      </cc:Work>
    </rdf:RDF>
  </metadata>
  <g
     inkscape:label="Layer 1"
     inkscape:groupmode="layer"
     id="layer1"
     transform="translate(0,-1032.3622)">
    <path
       inkscape:connector-curvature="0"
       style="font-size:medium;font-style:normal;font-variant:normal;font-weight:normal;font-stretch:normal;text-indent:0;text-align:start;text-decoration:none;line-height:normal;letter-spacing:normal;word-spacing:normal;text-transform:none;direction:ltr;block-progression:tb;writing-mode:lr-tb;text-anchor:start;baseline-shift:baseline;color:#000000;fill:#000000;fill-opacity:1;fill-rule:nonzero;stroke:none;stroke-width:2;marker:none;visibility:visible;display:inline;overflow:visible;enable-background:accumulate;font-family:Sans;-inkscape-font-specification:Sans"
       d="m 6,1037.3622 c -0.552285,0 -1,0.4477 -1,1 0,0.2665 0.111343,0.5083 0.28125,0.6875 0.02187,0.023 0.03854,0.042 0.0625,0.062 l 3.21875,3.25 -3.28125,3.2813 C 5.100286,1045.8244 5,1046.0861 5,1046.3622 c 0,0.5523 0.447715,1 1,1 0.285816,0 0.536507,-0.1202 0.71875,-0.3125 L 10,1043.7685 l 3.25,3.25 c 0.18332,0.2101 0.449233,0.3437 0.75,0.3437 0.552285,0 1,-0.4477 1,-1 0,-0.2761 -0.100286,-0.5378 -0.28125,-0.7187 l -3.28125,-3.2813 3.28125,-3.3125 c 0.169907,-0.1792 0.28125,-0.421 0.28125,-0.6875 0,-0.5523 -0.447715,-1 -1,-1 -0.276142,0 -0.537786,0.1003 -0.71875,0.2813 L 10,1040.9247 6.71875,1037.6435 C 6.537786,1037.4625 6.276142,1037.3622 6,1037.3622 z"
       id="path4364" />
  </g>
</svg>
