<?xml version="1.0" encoding="UTF-8" standalone="no"?>
<!-- Created with Inkscape (http://www.inkscape.org/) -->

<svg
   xmlns:dc="http://purl.org/dc/elements/1.1/"
   xmlns:cc="http://creativecommons.org/ns#"
   xmlns:rdf="http://www.w3.org/1999/02/22-rdf-syntax-ns#"
   xmlns:svg="http://www.w3.org/2000/svg"
   xmlns="http://www.w3.org/2000/svg"
   xmlns:sodipodi="http://sodipodi.sourceforge.net/DTD/sodipodi-0.dtd"
   xmlns:inkscape="http://www.inkscape.org/namespaces/inkscape"
   width="20"
   height="20"
   id="svg5738"
   version="1.1"
   inkscape:version="0.48.2 r9819"
   sodipodi:docname="sun.svg">
  <defs
     id="defs5740" />
  <sodipodi:namedview
     id="base"
     pagecolor="#ffffff"
     bordercolor="#666666"
     borderopacity="1.0"
     inkscape:pageopacity="0.0"
     inkscape:pageshadow="2"
     inkscape:zoom="8"
     inkscape:cx="16.72877"
     inkscape:cy="3.8055015"
     inkscape:document-units="px"
     inkscape:current-layer="layer1"
     showgrid="true"
     inkscape:window-width="1033"
     inkscape:window-height="844"
     inkscape:window-x="20"
     inkscape:window-y="20"
     inkscape:window-maximized="0">
    <inkscape:grid
       type="xygrid"
       id="grid5746"
       empspacing="5"
       visible="true"
       enabled="true"
       snapvisiblegridlinesonly="true" />
  </sodipodi:namedview>
  <metadata
     id="metadata5743">
    <rdf:RDF>
      <cc:Work
         rdf:about="">
        <dc:format>image/svg+xml</dc:format>
        <dc:type
           rdf:resource="http://purl.org/dc/dcmitype/StillImage" />
        <dc:title></dc:title>
      </cc:Work>
    </rdf:RDF>
  </metadata>
  <g
     inkscape:label="Layer 1"
     inkscape:groupmode="layer"
     id="layer1"
     transform="translate(0,-1032.3622)">
    <path
       id="path4216"
       d="m 3.99996,1038.3622 0,9 5.1875,0 0,-1.5625 -3.1875,0 0,-2.3438 2.96875,0 0,-1.5625 -2.96875,0 0,-1.9687 3.1875,0 0,-1.5625 -5.1875,0 z m 9.75,1.9687 c -0.19793,0 -0.40406,0.021 -0.59375,0.062 -0.1897,0.037 -0.36219,0.074 -0.53125,0.1563 -0.16908,0.082 -0.32442,0.1846 -0.46875,0.3125 -0.14021,0.1278 -0.24475,0.2914 -0.34375,0.4687 l -0.125,0 -0.25,-0.9687 -1.4375,0 0,7 1.875,0 0,-3.25 c 0,-0.367 0.0213,-0.6842 0.0625,-0.9688 0.0412,-0.2845 0.12395,-0.5249 0.21875,-0.7187 0.099,-0.1938 0.24131,-0.3385 0.40625,-0.4375 0.16495,-0.099 0.34632,-0.1563 0.59375,-0.1563 0.3299,0 0.57028,0.1235 0.71875,0.375 0.15257,0.2475 0.24999,0.6261 0.25,1.125 l 0,4.0313 1.875,0 0,-4.5 c -10e-6,-0.4454 -0.049,-0.8387 -0.15625,-1.1563 -0.10722,-0.3216 -0.27082,-0.575 -0.46875,-0.7812 -0.19795,-0.2062 -0.44247,-0.374 -0.71875,-0.4688 -0.27629,-0.099 -0.56811,-0.125 -0.90625,-0.125 z"
       style="font-size:14.00820827px;font-style:normal;font-variant:normal;font-weight:bold;font-stretch:normal;text-indent:0;text-align:center;text-decoration:none;line-height:100%;letter-spacing:normal;word-spacing:normal;text-transform:none;direction:ltr;block-progression:tb;writing-mode:lr-tb;text-anchor:middle;color:#000000;fill:#000000;fill-opacity:1;fill-rule:nonzero;stroke:none;stroke-width:1;marker:none;visibility:visible;display:inline;overflow:visible;enable-background:accumulate;font-family:Droid Sans;-inkscape-font-specification:Droid Sans Bold"
       inkscape:connector-curvature="0" />
  </g>
</svg>
