<?xml version="1.0" encoding="UTF-8" standalone="no"?>
<!-- Created with Inkscape (http://www.inkscape.org/) -->

<svg
   xmlns:dc="http://purl.org/dc/elements/1.1/"
   xmlns:cc="http://creativecommons.org/ns#"
   xmlns:rdf="http://www.w3.org/1999/02/22-rdf-syntax-ns#"
   xmlns:svg="http://www.w3.org/2000/svg"
   xmlns="http://www.w3.org/2000/svg"
   xmlns:sodipodi="http://sodipodi.sourceforge.net/DTD/sodipodi-0.dtd"
   xmlns:inkscape="http://www.inkscape.org/namespaces/inkscape"
   width="20"
   height="20"
   id="svg5738"
   version="1.1"
   inkscape:version="0.48.2 r9819"
   sodipodi:docname="link.svg">
  <defs
     id="defs5740" />
  <sodipodi:namedview
     id="base"
     pagecolor="#ffffff"
     bordercolor="#666666"
     borderopacity="1.0"
     inkscape:pageopacity="0.0"
     inkscape:pageshadow="2"
     inkscape:zoom="16"
     inkscape:cx="12.532409"
     inkscape:cy="8.2195076"
     inkscape:document-units="px"
     inkscape:current-layer="layer1"
     showgrid="true"
     inkscape:window-width="1033"
     inkscape:window-height="844"
     inkscape:window-x="20"
     inkscape:window-y="20"
     inkscape:window-maximized="0">
    <inkscape:grid
       type="xygrid"
       id="grid5746"
       empspacing="5"
       visible="true"
       enabled="true"
       snapvisiblegridlinesonly="true" />
  </sodipodi:namedview>
  <metadata
     id="metadata5743">
    <rdf:RDF>
      <cc:Work
         rdf:about="">
        <dc:format>image/svg+xml</dc:format>
        <dc:type
           rdf:resource="http://purl.org/dc/dcmitype/StillImage" />
        <dc:title></dc:title>
      </cc:Work>
    </rdf:RDF>
  </metadata>
  <g
     inkscape:label="Layer 1"
     inkscape:groupmode="layer"
     id="layer1"
     transform="translate(0,-1032.3622)">
    <path
       inkscape:connector-curvature="0"
       id="path63575"
       d="m 4,1035.3622 0,2.625 c -0.6345,0.6928 -1,1.5329 -1,2.375 l 0,3 c 0,2 2,4 5,4 l 4,0 c 3,0 5,-2 5,-4 l 0,-3 c 0,-0.8421 -0.3655,-1.6822 -1,-2.375 l 0,-2.625 -1,0 -1.25,1.25 c -0.5335,-0.1586 -1.1186,-0.25 -1.75,-0.25 l -4,0 c -0.6314,0 -1.2165,0.091 -1.75,0.25 l -1.25,-1.25 -1,0 z m 3,5 6,0 c 1.108,0 2,0.892 2,2 l 0,2 c 0,1.108 -0.892,2 -2,2 l -6,0 c -1.108,0 -2,-0.892 -2,-2 l 0,-2 c 0,-1.108 0.892,-2 2,-2 z m 1,1 c -0.554,0 -1,0.669 -1,1.5 0,0.831 0.446,1.5 1,1.5 0.554,0 1,-0.669 1,-1.5 0,-0.831 -0.446,-1.5 -1,-1.5 z m 4,0 c -0.554,0 -1,0.669 -1,1.5 0,0.831 0.446,1.5 1,1.5 0.554,0 1,-0.669 1,-1.5 0,-0.831 -0.446,-1.5 -1,-1.5 z"
       style="color:#000000;fill:#000000;fill-opacity:1;fill-rule:nonzero;stroke:none;stroke-width:1;marker:none;visibility:visible;display:inline;overflow:visible;enable-background:accumulate" />
  </g>
</svg>
