<?xml version="1.0" encoding="UTF-8" standalone="no"?>
<!-- Created with Inkscape (http://www.inkscape.org/) -->

<svg
   xmlns:dc="http://purl.org/dc/elements/1.1/"
   xmlns:cc="http://creativecommons.org/ns#"
   xmlns:rdf="http://www.w3.org/1999/02/22-rdf-syntax-ns#"
   xmlns:svg="http://www.w3.org/2000/svg"
   xmlns="http://www.w3.org/2000/svg"
   xmlns:xlink="http://www.w3.org/1999/xlink"
   xmlns:sodipodi="http://sodipodi.sourceforge.net/DTD/sodipodi-0.dtd"
   xmlns:inkscape="http://www.inkscape.org/namespaces/inkscape"
   width="20"
   height="20"
   id="svg5738"
   version="1.1"
   inkscape:version="0.48.2 r9819"
   sodipodi:docname="gl.svg">
  <defs
     id="defs5740">
    <linearGradient
       inkscape:collect="always"
       xlink:href="#linearGradient4103"
       id="linearGradient4184"
       gradientUnits="userSpaceOnUse"
       x1="3003"
       y1="10"
       x2="3017"
       y2="10"
       gradientTransform="translate(1,2.6171874e-6)" />
    <linearGradient
       inkscape:collect="always"
       id="linearGradient4103">
      <stop
         style="stop-color:#000000;stop-opacity:1;"
         offset="0"
         id="stop4105" />
      <stop
         style="stop-color:#000000;stop-opacity:0;"
         offset="1"
         id="stop4107" />
    </linearGradient>
  </defs>
  <sodipodi:namedview
     id="base"
     pagecolor="#ffffff"
     bordercolor="#666666"
     borderopacity="1.0"
     inkscape:pageopacity="0.0"
     inkscape:pageshadow="2"
     inkscape:zoom="16"
     inkscape:cx="13.518272"
     inkscape:cy="6.9025289"
     inkscape:document-units="px"
     inkscape:current-layer="layer1"
     showgrid="false"
     inkscape:window-width="1390"
     inkscape:window-height="884"
     inkscape:window-x="20"
     inkscape:window-y="20"
     inkscape:window-maximized="0"
     inkscape:object-nodes="true">
    <inkscape:grid
       type="xygrid"
       id="grid5746"
       empspacing="5"
       visible="true"
       enabled="true"
       snapvisiblegridlinesonly="true" />
  </sodipodi:namedview>
  <metadata
     id="metadata5743">
    <rdf:RDF>
      <cc:Work
         rdf:about="">
        <dc:format>image/svg+xml</dc:format>
        <dc:type
           rdf:resource="http://purl.org/dc/dcmitype/StillImage" />
        <dc:title></dc:title>
      </cc:Work>
    </rdf:RDF>
  </metadata>
  <g
     inkscape:label="Layer 1"
     inkscape:groupmode="layer"
     id="layer1"
     transform="translate(0,-1032.3622)">
    <g
       transform="translate(-4240,40.00002)"
       style="font-size:11px;font-style:normal;font-variant:normal;font-weight:500;font-stretch:normal;text-indent:0;text-align:start;text-decoration:none;line-height:150%;letter-spacing:normal;word-spacing:normal;text-transform:none;direction:ltr;block-progression:tb;writing-mode:lr-tb;text-anchor:start;baseline-shift:baseline;color:#000000;fill:#000000;fill-opacity:1;fill-rule:nonzero;stroke:#000000;stroke-width:0.5;stroke-miterlimit:4;stroke-opacity:1;marker:none;visibility:visible;display:inline;overflow:visible;enable-background:accumulate;font-family:Futura;-inkscape-font-specification:Futura Medium"
       id="g7686">
      <path
         style="font-size:medium;font-style:normal;font-variant:normal;font-weight:normal;font-stretch:normal;text-indent:0;text-align:start;text-decoration:none;line-height:150%;letter-spacing:normal;word-spacing:normal;text-transform:none;direction:ltr;block-progression:tb;writing-mode:lr-tb;text-anchor:start;baseline-shift:baseline;color:#000000;fill:#000000;fill-opacity:1;fill-rule:nonzero;stroke:none;stroke-width:0.5;marker:none;visibility:visible;display:inline;overflow:visible;enable-background:accumulate;font-family:Futura;-inkscape-font-specification:Futura Medium"
         d="m 4247.9062,4.875 c -1.2673,10e-6 -2.3682,0.46206 -3.25,1.34375 -0.8849,0.88104 -1.3125,1.9904 -1.3124,3.25 0,1.2335 0.4115,2.33405 1.2812,3.21875 0.87,0.8813 1.9681,1.3125 3.1875,1.3125 1.2513,0 2.3136,-0.49285 3.125,-1.40625 0.3572,-0.406 0.6265,-0.8329 0.7813,-1.3125 0.1562,-0.5097 0.2811,-1.07675 0.2812,-1.71875 l 0,-0.28125 0,-0.2812474 -4,0 0,1.6874974 1.9062,0 c -0.1004,0.3941 -0.2095,0.79235 -0.5624,1.09375 -0.4522,0.3827 -0.941,0.5625 -1.5,0.5625 -0.6569,0 -1.2579,-0.25615 -1.8438,-0.78125 -0.6158,-0.5558 -0.9062,-1.23065 -0.9062,-2.09375 0,-0.8428 0.2656,-1.51563 0.8124,-2.0625 0.5502,-0.56 1.2113,-0.84374 2.0313,-0.84375 0.8976,10e-6 1.6667,0.42149 2.3125,1.28125 l 0.031,0.0625 1.2188,-1.21875 0,-0.03125 c -0.4817,-0.6002221 -1.1233,-1.0288098 -1.6875,-1.34375 -0.5729,-0.3198142 -1.2216,-0.43749 -1.9063,-0.4375 z M 4253,5 l 0,9 4.1875,0 0,-1.6875 -2.4375,0 0,-7.3125 z"
         transform="translate(0,992.36218)"
         id="path7705"
         inkscape:connector-curvature="0"
         sodipodi:nodetypes="ccccscccccccccscsccccccccccccccc" />
    </g>
  </g>
</svg>
