<?xml version="1.0" encoding="UTF-8" standalone="no"?>
<!-- Created with Inkscape (http://www.inkscape.org/) -->

<svg
   xmlns:dc="http://purl.org/dc/elements/1.1/"
   xmlns:cc="http://creativecommons.org/ns#"
   xmlns:rdf="http://www.w3.org/1999/02/22-rdf-syntax-ns#"
   xmlns:svg="http://www.w3.org/2000/svg"
   xmlns="http://www.w3.org/2000/svg"
   xmlns:sodipodi="http://sodipodi.sourceforge.net/DTD/sodipodi-0.dtd"
   xmlns:inkscape="http://www.inkscape.org/namespaces/inkscape"
   width="20"
   height="20"
   id="svg4863"
   version="1.1"
   inkscape:version="0.48.5 r10040"
   sodipodi:docname="globe.svg">
  <defs
     id="defs4865" />
  <sodipodi:namedview
     id="base"
     pagecolor="#ffffff"
     bordercolor="#666666"
     borderopacity="1.0"
     inkscape:pageopacity="0.0"
     inkscape:pageshadow="2"
     inkscape:zoom="64"
     inkscape:cx="13.52645"
     inkscape:cy="8.0022335"
     inkscape:document-units="px"
     inkscape:current-layer="layer1"
     showgrid="false"
     inkscape:snap-bbox="true"
     inkscape:snap-nodes="true"
     inkscape:window-width="1608"
     inkscape:window-height="970"
     inkscape:window-x="187"
     inkscape:window-y="0"
     inkscape:window-maximized="0">
    <inkscape:grid
       type="xygrid"
       id="grid4886"
       empspacing="5"
       visible="true"
       enabled="true"
       snapvisiblegridlinesonly="true" />
  </sodipodi:namedview>
  <metadata
     id="metadata4868">
    <rdf:RDF>
      <cc:Work
         rdf:about="">
        <dc:format>image/svg+xml</dc:format>
        <dc:type
           rdf:resource="http://purl.org/dc/dcmitype/StillImage" />
        <dc:title />
      </cc:Work>
    </rdf:RDF>
  </metadata>
  <g
     inkscape:label="Layer 1"
     inkscape:groupmode="layer"
     id="layer1"
     transform="translate(0,-1032.3622)">
    <path
       style="color:#000000;fill:#000000;fill-opacity:1;fill-rule:nonzero;stroke:none;stroke-width:3;marker:none;visibility:visible;display:inline;overflow:visible;enable-background:accumulate"
       d="m 10,1035.3622 c -3.865993,0 -7,3.134 -7,7 0,3.866 3.134007,7 7,7 3.865993,0 7,-3.134 7,-7 0,-3.866 -3.134007,-7 -7,-7 z m 1,2.0938 c 0.740352,0.1514 1.398208,0.3959 2,0.8124 0.59401,0.4112 1,1.0938 1,1.0938 0,0 0,1 -1,1 l -1,-3e-4 c -1,-3e-4 -1,1 -1,1 0,1 1,1 1,1 l 0,1 c 0,1 1,1 1,1 l 0,1.9688 0,0.031 c -0.837449,0.6325 -1.869684,1 -3,1 l 0,-2 c 0,0 0,-1 -1,-1 l -1,0 c -1,0 -1,-1 -1,-1 l 0,-1 c 0,0 1,0 1,-1 l 0,-1 c 0,-1 -1,-1 -1,-1 l -0.96875,0 c 0.641567,-0.8426 1.55027,-1.4793 2.59375,-1.7812 0.200538,0.1422 0.375,0.3677 0.375,0.7812 0,1 1,1 1,1 1,0 1,-1 1,-1 l 0,-0.9062 z"
       id="path3643"
       inkscape:connector-curvature="0"
       sodipodi:nodetypes="ssssscsccsccscccccssccsscccscccc" />
  </g>
</svg>
