<?xml version="1.0" encoding="UTF-8" standalone="no"?>
<!-- Created with Inkscape (http://www.inkscape.org/) -->

<svg
   xmlns:dc="http://purl.org/dc/elements/1.1/"
   xmlns:cc="http://creativecommons.org/ns#"
   xmlns:rdf="http://www.w3.org/1999/02/22-rdf-syntax-ns#"
   xmlns:svg="http://www.w3.org/2000/svg"
   xmlns="http://www.w3.org/2000/svg"
   xmlns:xlink="http://www.w3.org/1999/xlink"
   xmlns:sodipodi="http://sodipodi.sourceforge.net/DTD/sodipodi-0.dtd"
   xmlns:inkscape="http://www.inkscape.org/namespaces/inkscape"
   width="20"
   height="20"
   id="svg5738"
   version="1.1"
   inkscape:version="0.48.2 r9819"
   sodipodi:docname="point-line.svg">
  <defs
     id="defs5740">
    <linearGradient
       inkscape:collect="always"
       xlink:href="#linearGradient4103"
       id="linearGradient4184"
       gradientUnits="userSpaceOnUse"
       x1="3003"
       y1="10"
       x2="3017"
       y2="10"
       gradientTransform="translate(1,2.6171874e-6)" />
    <linearGradient
       inkscape:collect="always"
       id="linearGradient4103">
      <stop
         style="stop-color:#000000;stop-opacity:1;"
         offset="0"
         id="stop4105" />
      <stop
         style="stop-color:#000000;stop-opacity:0;"
         offset="1"
         id="stop4107" />
    </linearGradient>
  </defs>
  <sodipodi:namedview
     id="base"
     pagecolor="#ffffff"
     bordercolor="#666666"
     borderopacity="1.0"
     inkscape:pageopacity="0.0"
     inkscape:pageshadow="2"
     inkscape:zoom="22.627417"
     inkscape:cx="13.714966"
     inkscape:cy="9.4622442"
     inkscape:document-units="px"
     inkscape:current-layer="layer1"
     showgrid="true"
     inkscape:window-width="1390"
     inkscape:window-height="884"
     inkscape:window-x="20"
     inkscape:window-y="20"
     inkscape:window-maximized="0">
    <inkscape:grid
       type="xygrid"
       id="grid5746"
       empspacing="5"
       visible="true"
       enabled="true"
       snapvisiblegridlinesonly="true" />
  </sodipodi:namedview>
  <metadata
     id="metadata5743">
    <rdf:RDF>
      <cc:Work
         rdf:about="">
        <dc:format>image/svg+xml</dc:format>
        <dc:type
           rdf:resource="http://purl.org/dc/dcmitype/StillImage" />
        <dc:title></dc:title>
      </cc:Work>
    </rdf:RDF>
  </metadata>
  <g
     inkscape:label="Layer 1"
     inkscape:groupmode="layer"
     id="layer1"
     transform="translate(0,-1032.3622)">
    <path
       sodipodi:nodetypes="scsssscccsssssssssssscscscccscs"
       inkscape:connector-curvature="0"
       id="path55334"
       d="m 8.9999801,1036.3622 c 0,1 0,4 0,4 0,0 0,0.5 -0.5,0.5 -0.5,0 -0.4293,-0.2752 -0.5,-0.5 -0.3047,-0.9688 -0.8672,-2.3646 -1,-3 -0.2046,-0.9788 -0.6667,-1 -1,-1 -1,0 -1,1 -1,1 l 1,4 0,3 c 0,0 -0.5,-0.5 -1.5,-1.5 -0.5547,-0.5547 -1.2423,-0.7492 -1.6875,-0.4922 -0.4355,0.2514 -0.6616,0.8876 -0.3125,1.4922 0.3536,0.6124 3.5,4.5 3.5,4.5 1,1 2,1 4,1 2.6666999,0 0.9999999,0 2.9999999,0 2,0 2.2885,-2.8655 3,-5 1,-3 1.5,-5 1.5,-5 0.1134,-0.4233 -0.043,-0.846 -0.5,-1 -0.8805,-0.2966 -1.3601,0.3528 -1.5,1 -0.25,1.1562 -0.5,2 -0.5,2 -0.094,0.3138 0,0.5 -0.5,0.5 -0.5091,0 -0.5,-0.5 -0.5,-0.5 0,0 0,-2.6667 0,-4 0,-1 -1,-1 -1,-1 0,0 -1,0 -1,1 0,1 0,1.6666 0,3 0,0 0.013,0.5 -0.5,0.5 -0.5013,0 -0.5,-0.5 -0.5,-0.5 0,0 0,-3 0,-4 0,-1 -0.9999999,-1 -0.9999999,-1 0,0 -1,0 -1,1 z"
       style="color:#000000;fill:#000000;fill-opacity:1;fill-rule:nonzero;stroke:none;stroke-width:1;marker:none;visibility:visible;display:inline;overflow:visible;filter:url(#filter8013-4);enable-background:accumulate" />
  </g>
</svg>
