<?xml version="1.0" encoding="UTF-8" standalone="no"?>
<!-- Created with Inkscape (http://www.inkscape.org/) -->

<svg
   xmlns:dc="http://purl.org/dc/elements/1.1/"
   xmlns:cc="http://creativecommons.org/ns#"
   xmlns:rdf="http://www.w3.org/1999/02/22-rdf-syntax-ns#"
   xmlns:svg="http://www.w3.org/2000/svg"
   xmlns="http://www.w3.org/2000/svg"
   xmlns:sodipodi="http://sodipodi.sourceforge.net/DTD/sodipodi-0.dtd"
   xmlns:inkscape="http://www.inkscape.org/namespaces/inkscape"
   width="20"
   height="20"
   id="svg5738"
   version="1.1"
   inkscape:version="0.48.2 r9819"
   sodipodi:docname="mt.svg">
  <defs
     id="defs5740" />
  <sodipodi:namedview
     id="base"
     pagecolor="#ffffff"
     bordercolor="#666666"
     borderopacity="1.0"
     inkscape:pageopacity="0.0"
     inkscape:pageshadow="2"
     inkscape:zoom="16"
     inkscape:cx="12.532409"
     inkscape:cy="8.2195076"
     inkscape:document-units="px"
     inkscape:current-layer="layer1"
     showgrid="true"
     inkscape:window-width="1033"
     inkscape:window-height="844"
     inkscape:window-x="20"
     inkscape:window-y="20"
     inkscape:window-maximized="0">
    <inkscape:grid
       type="xygrid"
       id="grid5746"
       empspacing="5"
       visible="true"
       enabled="true"
       snapvisiblegridlinesonly="true" />
  </sodipodi:namedview>
  <metadata
     id="metadata5743">
    <rdf:RDF>
      <cc:Work
         rdf:about="">
        <dc:format>image/svg+xml</dc:format>
        <dc:type
           rdf:resource="http://purl.org/dc/dcmitype/StillImage" />
        <dc:title></dc:title>
      </cc:Work>
    </rdf:RDF>
  </metadata>
  <g
     inkscape:label="Layer 1"
     inkscape:groupmode="layer"
     id="layer1"
     transform="translate(0,-1032.3622)">
    <path
       style="color:#000000;fill:#000000;fill-opacity:1;fill-rule:nonzero;stroke:none;stroke-width:1;marker:none;visibility:visible;display:inline;overflow:visible;enable-background:accumulate"
       d="m 10,1035.3622 c -3.86599,0 -7,3.134 -7,7 0,3.866 3.13401,7 7,7 3.86599,0 7,-3.134 7,-7 0,-3.866 -3.13401,-7 -7,-7 z m 0.0625,3 c 0.8047,0 1.4648,0.2071 1.9375,0.5938 0.4765,0.3868 0.6875,0.9179 0.6875,1.5625 0,0.4297 -0.086,0.7812 -0.28125,1.0937 -0.1953,0.3125 -0.5781,0.6719 -1.125,1.0625 -0.375,0.2773 -0.5859,0.543 -0.6875,0.6875 0,0 -1.08007,-10e-5 -1.59375,0 0,0 -0.035,-0.2852 0.125,-0.5625 0.1602,-0.2774 0.4492,-0.5625 0.875,-0.875 0.4101,-0.293 0.6836,-0.5351 0.8125,-0.7187 0.1328,-0.1836 0.1875,-0.3673 0.1875,-0.5938 0,-0.2539 -0.0939,-0.4609 -0.28125,-0.5937 -0.1875,-0.1329 -0.44535,-0.1875 -0.78125,-0.1875 -0.586,0 -1.25,0.1797 -2,0.5625 l -0.625,-1.2813 c 0.8711,-0.4883 1.7734,-0.75 2.75,-0.75 z m -0.0625,6 c 0.3243,0 0.5743,0.078 0.75,0.25 0.1797,0.1719 0.28125,0.4297 0.28125,0.75 0,0.3086 -0.10155,0.5391 -0.28125,0.7188 -0.1797,0.1758 -0.4297,0.2812 -0.75,0.2812 -0.3281,0 -0.5703,-0.078 -0.75,-0.25 -0.1797,-0.1758 -0.28125,-0.4336 -0.28125,-0.75 0,-0.3281 0.10555,-0.582 0.28125,-0.75 0.1758,-0.168 0.4141,-0.25 0.75,-0.25 z"
       id="path3356"
       inkscape:connector-curvature="0" />
  </g>
</svg>
