<?xml version="1.0" encoding="UTF-8" standalone="no"?>
<!-- Created with Inkscape (http://www.inkscape.org/) -->

<svg
   xmlns:dc="http://purl.org/dc/elements/1.1/"
   xmlns:cc="http://creativecommons.org/ns#"
   xmlns:rdf="http://www.w3.org/1999/02/22-rdf-syntax-ns#"
   xmlns:svg="http://www.w3.org/2000/svg"
   xmlns="http://www.w3.org/2000/svg"
   xmlns:sodipodi="http://sodipodi.sourceforge.net/DTD/sodipodi-0.dtd"
   xmlns:inkscape="http://www.inkscape.org/namespaces/inkscape"
   width="20"
   height="20"
   id="svg5738"
   version="1.1"
   inkscape:version="0.48.2 r9819"
   sodipodi:docname="time.svg">
  <defs
     id="defs5740" />
  <sodipodi:namedview
     id="base"
     pagecolor="#ffffff"
     bordercolor="#666666"
     borderopacity="1.0"
     inkscape:pageopacity="0.0"
     inkscape:pageshadow="2"
     inkscape:zoom="16"
     inkscape:cx="12.532409"
     inkscape:cy="8.2195076"
     inkscape:document-units="px"
     inkscape:current-layer="layer1"
     showgrid="true"
     inkscape:window-width="1033"
     inkscape:window-height="844"
     inkscape:window-x="20"
     inkscape:window-y="20"
     inkscape:window-maximized="0">
    <inkscape:grid
       type="xygrid"
       id="grid5746"
       empspacing="5"
       visible="true"
       enabled="true"
       snapvisiblegridlinesonly="true" />
  </sodipodi:namedview>
  <metadata
     id="metadata5743">
    <rdf:RDF>
      <cc:Work
         rdf:about="">
        <dc:format>image/svg+xml</dc:format>
        <dc:type
           rdf:resource="http://purl.org/dc/dcmitype/StillImage" />
        <dc:title></dc:title>
      </cc:Work>
    </rdf:RDF>
  </metadata>
  <g
     inkscape:label="Layer 1"
     inkscape:groupmode="layer"
     id="layer1"
     transform="translate(0,-1032.3622)">
    <path
       inkscape:connector-curvature="0"
       style="font-size:medium;font-style:normal;font-variant:normal;font-weight:normal;font-stretch:normal;text-indent:0;text-align:start;text-decoration:none;line-height:normal;letter-spacing:normal;word-spacing:normal;text-transform:none;direction:ltr;block-progression:tb;writing-mode:lr-tb;text-anchor:start;baseline-shift:baseline;color:#000000;fill:#000000;fill-opacity:1;fill-rule:nonzero;stroke:none;stroke-width:2;marker:none;visibility:visible;display:inline;overflow:visible;enable-background:accumulate;font-family:Sans;-inkscape-font-specification:Sans"
       d="m 7,1038.3622 c -0.2618,0 -0.5302,0.068 -0.7188,0.25 l -2.8437,2.875 C 3.2076,1041.7184 3,1042.0361 3,1042.3622 c 3e-4,0.3259 0.2081,0.6436 0.4375,0.875 l 2.8437,2.875 c 0.3778,0.3637 1.0396,0.344 1.4063,-0.031 0.364,-0.378 0.3728,-1.0371 0,-1.4063 l -1.2813,-1.3125 7.1876,0 -1.2813,1.3125 c -0.3728,0.3692 -0.364,1.0283 0,1.4063 0.3667,0.3752 1.0285,0.3949 1.4063,0.031 l 2.8437,-2.875 c 0.2294,-0.2314 0.4372,-0.5491 0.4375,-0.875 0,-0.3261 -0.2076,-0.6438 -0.4375,-0.875 l -2.8437,-2.875 c -0.3771,-0.3643 -1.0425,-0.3467 -1.4063,0.031 -0.3668,0.3747 -0.373,1.0375 0,1.4062 l 1.2813,1.3125 -7.1876,0 1.2813,-1.3125 c 0.373,-0.3687 0.3668,-1.0315 0,-1.4062 -0.1819,-0.189 -0.4257,-0.278 -0.6875,-0.2813 z"
       id="path4277" />
  </g>
</svg>
