<?xml version="1.0" encoding="UTF-8" standalone="no"?>
<!-- Created with Inkscape (http://www.inkscape.org/) -->

<svg
   xmlns:dc="http://purl.org/dc/elements/1.1/"
   xmlns:cc="http://creativecommons.org/ns#"
   xmlns:rdf="http://www.w3.org/1999/02/22-rdf-syntax-ns#"
   xmlns:svg="http://www.w3.org/2000/svg"
   xmlns="http://www.w3.org/2000/svg"
   xmlns:sodipodi="http://sodipodi.sourceforge.net/DTD/sodipodi-0.dtd"
   xmlns:inkscape="http://www.inkscape.org/namespaces/inkscape"
   width="20"
   height="20"
   id="svg5738"
   version="1.1"
   inkscape:version="0.48.2 r9819"
   sodipodi:docname="data.svg">
  <defs
     id="defs5740" />
  <sodipodi:namedview
     id="base"
     pagecolor="#ffffff"
     bordercolor="#666666"
     borderopacity="1.0"
     inkscape:pageopacity="0.0"
     inkscape:pageshadow="2"
     inkscape:zoom="22.627417"
     inkscape:cx="18.205581"
     inkscape:cy="6.9339856"
     inkscape:document-units="px"
     inkscape:current-layer="layer1"
     showgrid="true"
     inkscape:window-width="1390"
     inkscape:window-height="884"
     inkscape:window-x="20"
     inkscape:window-y="20"
     inkscape:window-maximized="0">
    <inkscape:grid
       type="xygrid"
       id="grid5746"
       empspacing="5"
       visible="true"
       enabled="true"
       snapvisiblegridlinesonly="true" />
  </sodipodi:namedview>
  <metadata
     id="metadata5743">
    <rdf:RDF>
      <cc:Work
         rdf:about="">
        <dc:format>image/svg+xml</dc:format>
        <dc:type
           rdf:resource="http://purl.org/dc/dcmitype/StillImage" />
        <dc:title></dc:title>
      </cc:Work>
    </rdf:RDF>
  </metadata>
  <g
     inkscape:label="Layer 1"
     inkscape:groupmode="layer"
     id="layer1"
     transform="translate(0,-1032.3622)">
    <g
       id="g4589"
       transform="translate(-2863.0001,50.98892)"
       style="fill:#000000;display:inline">
      <path
         style="fill:#000000;fill-opacity:1;fill-rule:nonzero;stroke:none"
         d="m 2884,3 -1,1 0,12 1,1 6.8125,0 c 5.2451,-0.027 -2.1531,0 5.1875,0 l 1,-1 0,-12 -1,-1 z m 2.9688,3 c 0.5304,0 0.9374,0.43925 0.9374,0.96875 0,0.53061 -0.4069,0.96875 -0.9374,0.96875 C 2886.4361,7.9375 2886,7.49936 2886,6.96875 2886,6.43937 2886.4362,6 2886.9688,6 z M 2892,8.53125 c 1.677,0 2,1.0957462 2,2.531246 l 0,2.9375 -1.6562,4e-6 0,-2.59375 c 0,-0.6183 -0.032,-1.4375 -0.875,-1.4375 -0.8623,0 -0.9688,0.6793 -0.9688,1.375 l 0,2.65625 -1.5,0 0,-5.34375 1.4062,0 0,0.71875 0.031,0 c 0.2205,-0.4202 0.7567,-0.84375 1.5625,-0.84375 z m -5.875,0.125 1.6562,0 0,5.34375 -1.6562,0 z"
         transform="translate(-16.9999,981.37328)"
         id="path4582"
         inkscape:connector-curvature="0"
         sodipodi:nodetypes="ccccccccccsssssssccsssccccccssccccc" />
    </g>
  </g>
</svg>
