<?xml version="1.0" encoding="UTF-8" standalone="no"?>
<!-- Created with Inkscape (http://www.inkscape.org/) -->

<svg
   xmlns:dc="http://purl.org/dc/elements/1.1/"
   xmlns:cc="http://creativecommons.org/ns#"
   xmlns:rdf="http://www.w3.org/1999/02/22-rdf-syntax-ns#"
   xmlns:svg="http://www.w3.org/2000/svg"
   xmlns="http://www.w3.org/2000/svg"
   xmlns:sodipodi="http://sodipodi.sourceforge.net/DTD/sodipodi-0.dtd"
   xmlns:inkscape="http://www.inkscape.org/namespaces/inkscape"
   width="20"
   height="20"
   id="svg5738"
   version="1.1"
   inkscape:version="0.48.5 r10040"
   sodipodi:docname="link.svg">
  <defs
     id="defs5740" />
  <sodipodi:namedview
     id="base"
     pagecolor="#ffffff"
     bordercolor="#666666"
     borderopacity="1.0"
     inkscape:pageopacity="0.0"
     inkscape:pageshadow="2"
     inkscape:zoom="1"
     inkscape:cx="8.3662569"
     inkscape:cy="11.897778"
     inkscape:document-units="px"
     inkscape:current-layer="layer1"
     showgrid="false"
     inkscape:window-width="1033"
     inkscape:window-height="844"
     inkscape:window-x="485"
     inkscape:window-y="19"
     inkscape:window-maximized="0">
    <inkscape:grid
       type="xygrid"
       id="grid5746"
       empspacing="5"
       visible="true"
       enabled="true"
       snapvisiblegridlinesonly="true" />
  </sodipodi:namedview>
  <metadata
     id="metadata5743">
    <rdf:RDF>
      <cc:Work
         rdf:about="">
        <dc:format>image/svg+xml</dc:format>
        <dc:type
           rdf:resource="http://purl.org/dc/dcmitype/StillImage" />
        <dc:title />
      </cc:Work>
    </rdf:RDF>
  </metadata>
  <g
     inkscape:label="Layer 1"
     inkscape:groupmode="layer"
     id="layer1"
     transform="translate(0,-1032.3622)">
    <path
       style="color:#000000;fill:#000000;fill-opacity:1;fill-rule:nonzero;stroke:none;stroke-width:1;marker:none;visibility:visible;display:inline;overflow:visible;enable-background:accumulate"
       d="M 6 6 C 3 6 3 9 3 9 L 3 11 C 3 14 6 14 6 14 L 7.28125 14 C 6.917743 13.679 6.64848 13.32825 6.46875 12.96875 C 6.302413 12.63605 6.225635 12.2938 6.15625 12 L 6 12 C 6 12 5 12 5 11 L 5 9 C 5 9 5 8 6 8 L 8 8 L 9 8 L 10 8 C 11 8 11 9 11 9 L 11 11 L 12.15625 11 C 12.4375 10.953 13 10.75 13 10 L 13 9 C 13 9 13.0013 8.3294 12.6875 7.625 C 12.64866 7.538 12.580298 7.4622 12.53125 7.375 C 12.135511 6.6717 11.411517 6 10 6 L 6 6 z M 12.71875 6 C 13.082257 6.3210449 13.35152 6.6717955 13.53125 7.03125 C 13.697587 7.3639519 13.774365 7.7062417 13.84375 8 L 14 8 C 14 8 15 8 15 9 L 15 11 C 15 11 15 12 14 12 L 12 12 L 11 12 L 10 12 C 9 12 9 11 9 11 L 9 9 L 7.84375 9 C 7.5625 9.046875 7 9.25 7 10 L 7 11 C 7 11 6.9986799 11.670579 7.3125 12.375 C 7.3513394 12.462182 7.4197019 12.537832 7.46875 12.625 C 7.8644889 13.328303 8.5884831 14 10 14 L 14 14 C 17 14 17 11 17 11 L 17 9 C 17 6 14 6 14 6 L 12.71875 6 z "
       transform="translate(0,1032.3622)"
       id="rect3515" />
  </g>
</svg>
