<?xml version="1.0" encoding="UTF-8" standalone="no"?>
<!-- Created with Inkscape (http://www.inkscape.org/) -->

<svg
   xmlns:dc="http://purl.org/dc/elements/1.1/"
   xmlns:cc="http://creativecommons.org/ns#"
   xmlns:rdf="http://www.w3.org/1999/02/22-rdf-syntax-ns#"
   xmlns:svg="http://www.w3.org/2000/svg"
   xmlns="http://www.w3.org/2000/svg"
   xmlns:sodipodi="http://sodipodi.sourceforge.net/DTD/sodipodi-0.dtd"
   xmlns:inkscape="http://www.inkscape.org/namespaces/inkscape"
   width="20"
   height="20"
   id="svg5738"
   version="1.1"
   inkscape:version="0.48.2 r9819"
   sodipodi:docname="eye.svg">
  <defs
     id="defs5740" />
  <sodipodi:namedview
     id="base"
     pagecolor="#ffffff"
     bordercolor="#666666"
     borderopacity="1.0"
     inkscape:pageopacity="0.0"
     inkscape:pageshadow="2"
     inkscape:zoom="22.627417"
     inkscape:cx="18.205581"
     inkscape:cy="6.9339856"
     inkscape:document-units="px"
     inkscape:current-layer="layer1"
     showgrid="true"
     inkscape:window-width="1390"
     inkscape:window-height="884"
     inkscape:window-x="20"
     inkscape:window-y="20"
     inkscape:window-maximized="0">
    <inkscape:grid
       type="xygrid"
       id="grid5746"
       empspacing="5"
       visible="true"
       enabled="true"
       snapvisiblegridlinesonly="true" />
  </sodipodi:namedview>
  <metadata
     id="metadata5743">
    <rdf:RDF>
      <cc:Work
         rdf:about="">
        <dc:format>image/svg+xml</dc:format>
        <dc:type
           rdf:resource="http://purl.org/dc/dcmitype/StillImage" />
        <dc:title></dc:title>
      </cc:Work>
    </rdf:RDF>
  </metadata>
  <g
     inkscape:label="Layer 1"
     inkscape:groupmode="layer"
     id="layer1"
     transform="translate(0,-1032.3622)">
    <path
       style="color:#000000;fill:#000000;fill-opacity:1;fill-rule:nonzero;stroke:none;stroke-width:1;marker:none;visibility:visible;display:inline;overflow:visible;enable-background:accumulate"
       d="m 9,1037.3622 c -5,0 -6,6 -6,6 0,0 0.4518,0.8152 1.2812,1.7187 L 5.5,1043.8622 c -0.2868,-0.2978 -0.5,-0.5 -0.5,-0.5 0,0 1,-4 3.5,-4 l 1.5,0 1.9062,-1.9375 c -0.2818,-0.044 -0.5937,-0.062 -0.9062,-0.062 l -2,0 z m 4.0938,0.4063 -8.0626,8.0624 c 0.526,0.4434 1.1426,0.8404 1.875,1.125 l 7.9376,-7.9374 c -0.4795,-0.4983 -1.0507,-0.9537 -1.75,-1.25 z m 2.4374,2.0625 -1.4062,1.4062 c 0.6103,1.0377 0.875,2.125 0.875,2.125 0,0 -2,2.5 -4,2.5 l -1.5,0 -1.4375,1.4375 c 0.3012,0.049 0.6094,0.062 0.9375,0.062 l 2,0 c 4,0 6,-4 6,-4 0,0 -0.3147,-1.8755 -1.4688,-3.5312 z"
       id="path4029"
       inkscape:connector-curvature="0" />
  </g>
</svg>
