<?xml version="1.0" encoding="UTF-8" standalone="no"?>
<!-- Created with Inkscape (http://www.inkscape.org/) -->

<svg
   xmlns:dc="http://purl.org/dc/elements/1.1/"
   xmlns:cc="http://creativecommons.org/ns#"
   xmlns:rdf="http://www.w3.org/1999/02/22-rdf-syntax-ns#"
   xmlns:svg="http://www.w3.org/2000/svg"
   xmlns="http://www.w3.org/2000/svg"
   xmlns:xlink="http://www.w3.org/1999/xlink"
   xmlns:sodipodi="http://sodipodi.sourceforge.net/DTD/sodipodi-0.dtd"
   xmlns:inkscape="http://www.inkscape.org/namespaces/inkscape"
   width="20"
   height="20"
   id="svg5738"
   version="1.1"
   inkscape:version="0.48.2 r9819"
   sodipodi:docname="adjust-stroke.svg">
  <defs
     id="defs5740">
    <linearGradient
       inkscape:collect="always"
       xlink:href="#linearGradient4103"
       id="linearGradient4184"
       gradientUnits="userSpaceOnUse"
       x1="3003"
       y1="10"
       x2="3017"
       y2="10"
       gradientTransform="translate(1,2.6171874e-6)" />
    <linearGradient
       inkscape:collect="always"
       id="linearGradient4103">
      <stop
         style="stop-color:#000000;stop-opacity:1;"
         offset="0"
         id="stop4105" />
      <stop
         style="stop-color:#000000;stop-opacity:0;"
         offset="1"
         id="stop4107" />
    </linearGradient>
  </defs>
  <sodipodi:namedview
     id="base"
     pagecolor="#ffffff"
     bordercolor="#666666"
     borderopacity="1.0"
     inkscape:pageopacity="0.0"
     inkscape:pageshadow="2"
     inkscape:zoom="22.627417"
     inkscape:cx="13.714966"
     inkscape:cy="9.4622442"
     inkscape:document-units="px"
     inkscape:current-layer="layer1"
     showgrid="true"
     inkscape:window-width="1390"
     inkscape:window-height="884"
     inkscape:window-x="20"
     inkscape:window-y="20"
     inkscape:window-maximized="0">
    <inkscape:grid
       type="xygrid"
       id="grid5746"
       empspacing="5"
       visible="true"
       enabled="true"
       snapvisiblegridlinesonly="true" />
  </sodipodi:namedview>
  <metadata
     id="metadata5743">
    <rdf:RDF>
      <cc:Work
         rdf:about="">
        <dc:format>image/svg+xml</dc:format>
        <dc:type
           rdf:resource="http://purl.org/dc/dcmitype/StillImage" />
        <dc:title></dc:title>
      </cc:Work>
    </rdf:RDF>
  </metadata>
  <g
     inkscape:label="Layer 1"
     inkscape:groupmode="layer"
     id="layer1"
     transform="translate(0,-1032.3622)">
    <path
       inkscape:connector-curvature="0"
       style="color:#000000;fill:#000000;fill-opacity:1;fill-rule:nonzero;stroke:none;stroke-width:3;marker:none;visibility:visible;display:inline;overflow:visible;enable-background:accumulate"
       d="m 8,1034.3622 c -1,0 -2,1 -2,2 l 2,0 0,1 -5,5 0,1 c 0,1 0.9165,2.9164 2,4 1.0324,1.0323 3,2 4,2 l 1,0 1.25,-1.2187 0,-0.031 0.75,-0.75 1,-1 0,-3.4687 c -0.5376,0.075 -0.8748,-0.01 -1.1562,-0.125 -0.017,-0.01 -0.046,0.01 -0.063,0 -0.035,-0.016 -0.061,-0.045 -0.094,-0.062 -0.05,-0.026 -0.106,-0.033 -0.1563,-0.062 -0.1093,-0.069 -0.2084,-0.1461 -0.3124,-0.2188 -0.065,-0.044 -0.1253,-0.079 -0.1876,-0.125 -0.1906,-0.1406 -0.3856,-0.3014 -0.5312,-0.4375 -1.3444,-1.2563 -1.5158,-2.7468 -0.8438,-3.375 0.6724,-0.6282 2.1599,-0.3225 3.5938,0.75 0.2516,0.1882 0.5229,0.5549 0.75,0.9688 0.7946,0.4002 1.4891,0.9394 2.0312,1.4062 -0.05,-0.9103 -0.683,-2.2766 -1.8437,-3.4375 -0.9535,-0.9544 -2.1036,-1.289 -3.1868,-1.5625 l 0,-0.25 c 0,-1 -1,-2 -2,-2 l -1,0 z m 6,7 0,1.625 0,3.375 c 0,3 3,3 3,0 0,-1.1739 -0.2961,-2.2265 -0.8438,-3.0937 -0.308,-0.4883 -0.6964,-0.9084 -1.1562,-1.2813 -0.9474,-0.7683 -1,-0.625 -1,-0.625 z"
       id="rect4327" />
  </g>
</svg>
