<?xml version="1.0" encoding="UTF-8" standalone="no"?>
<!-- Created with Inkscape (http://www.inkscape.org/) -->

<svg
   xmlns:dc="http://purl.org/dc/elements/1.1/"
   xmlns:cc="http://creativecommons.org/ns#"
   xmlns:rdf="http://www.w3.org/1999/02/22-rdf-syntax-ns#"
   xmlns:svg="http://www.w3.org/2000/svg"
   xmlns="http://www.w3.org/2000/svg"
   xmlns:xlink="http://www.w3.org/1999/xlink"
   xmlns:sodipodi="http://sodipodi.sourceforge.net/DTD/sodipodi-0.dtd"
   xmlns:inkscape="http://www.inkscape.org/namespaces/inkscape"
   width="20"
   height="20"
   id="svg5738"
   version="1.1"
   inkscape:version="0.48.2 r9819"
   sodipodi:docname="landuse.svg">
  <defs
     id="defs5740">
    <linearGradient
       inkscape:collect="always"
       xlink:href="#linearGradient4103"
       id="linearGradient4184"
       gradientUnits="userSpaceOnUse"
       x1="3003"
       y1="10"
       x2="3017"
       y2="10"
       gradientTransform="translate(1,2.6171874e-6)" />
    <linearGradient
       inkscape:collect="always"
       id="linearGradient4103">
      <stop
         style="stop-color:#000000;stop-opacity:1;"
         offset="0"
         id="stop4105" />
      <stop
         style="stop-color:#000000;stop-opacity:0;"
         offset="1"
         id="stop4107" />
    </linearGradient>
  </defs>
  <sodipodi:namedview
     id="base"
     pagecolor="#ffffff"
     bordercolor="#666666"
     borderopacity="1.0"
     inkscape:pageopacity="0.0"
     inkscape:pageshadow="2"
     inkscape:zoom="22.627417"
     inkscape:cx="11.565427"
     inkscape:cy="10.553246"
     inkscape:document-units="px"
     inkscape:current-layer="layer1"
     showgrid="true"
     inkscape:window-width="1390"
     inkscape:window-height="884"
     inkscape:window-x="20"
     inkscape:window-y="20"
     inkscape:window-maximized="0"
     inkscape:object-nodes="true">
    <inkscape:grid
       type="xygrid"
       id="grid5746"
       empspacing="5"
       visible="true"
       enabled="true"
       snapvisiblegridlinesonly="true" />
  </sodipodi:namedview>
  <metadata
     id="metadata5743">
    <rdf:RDF>
      <cc:Work
         rdf:about="">
        <dc:format>image/svg+xml</dc:format>
        <dc:type
           rdf:resource="http://purl.org/dc/dcmitype/StillImage" />
        <dc:title></dc:title>
      </cc:Work>
    </rdf:RDF>
  </metadata>
  <g
     inkscape:label="Layer 1"
     inkscape:groupmode="layer"
     id="layer1"
     transform="translate(0,-1032.3622)">
    <path
       style="color:#000000;fill:#000000;fill-opacity:1;fill-rule:nonzero;stroke:none;stroke-width:2;marker:none;visibility:visible;display:inline;overflow:visible;enable-background:accumulate"
       d="m 9,1035.3622 c -0.2522,0 -0.5565,0.1191 -0.7188,0.2813 l -1.8437,1.8437 C 6,1037.9247 6,1038.3622 6,1038.3622 c 0,0 0,0.4375 0.4375,0.875 l 1.8437,1.8438 c 0.1623,0.1622 0.4666,0.2812 0.7188,0.2812 0.6352,0 1,-0.4477 1,-1 l 0,-1 2,0 c 0,0 1,0 1,1 l 0,2 c 0,0.5523 0.4477,1 1,1 0.5523,0 1,-0.4477 1,-1 l 0,-2 c 0,-1.5007 -1.5018,-3 -3,-3 l -2,0 0,-1 c 0,-0.5523 -0.3648,-1 -1,-1 z m -3,6 c -0.5523,0 -1,0.4477 -1,1 l 0,2 c 0,1.5007 1.5018,3 3,3 l 2,0 0,1 c 0,0.5523 0.3648,1 1,1 0.2522,0 0.5565,-0.119 0.7188,-0.2812 l 1.8437,-1.8438 C 14,1046.7997 14,1046.3622 14,1046.3622 c 0,0 0,-0.4375 -0.4375,-0.875 l -1.8437,-1.8437 c -0.1623,-0.1622 -0.4666,-0.2813 -0.7188,-0.2813 -0.6352,0 -1,0.4477 -1,1 l 0,1 -2,0 c 0,0 -1,0 -1,-1 l 0,-2 c 0,-0.5523 -0.4477,-1 -1,-1 z"
       id="path4743"
       inkscape:connector-curvature="0"
       sodipodi:nodetypes="cccccccccccccccccccccccccccccccccccccc" />
  </g>
</svg>
