<?xml version="1.0" encoding="UTF-8" standalone="no"?>
<!-- Created with Inkscape (http://www.inkscape.org/) -->

<svg
   xmlns:dc="http://purl.org/dc/elements/1.1/"
   xmlns:cc="http://creativecommons.org/ns#"
   xmlns:rdf="http://www.w3.org/1999/02/22-rdf-syntax-ns#"
   xmlns:svg="http://www.w3.org/2000/svg"
   xmlns="http://www.w3.org/2000/svg"
   xmlns:sodipodi="http://sodipodi.sourceforge.net/DTD/sodipodi-0.dtd"
   xmlns:inkscape="http://www.inkscape.org/namespaces/inkscape"
   width="20"
   height="20"
   id="svg5738"
   version="1.1"
   inkscape:version="0.48.2 r9819"
   sodipodi:docname="twitter.svg">
  <defs
     id="defs5740" />
  <sodipodi:namedview
     id="base"
     pagecolor="#ffffff"
     bordercolor="#666666"
     borderopacity="1.0"
     inkscape:pageopacity="0.0"
     inkscape:pageshadow="2"
     inkscape:zoom="16"
     inkscape:cx="12.532409"
     inkscape:cy="8.2195076"
     inkscape:document-units="px"
     inkscape:current-layer="layer1"
     showgrid="true"
     inkscape:window-width="1033"
     inkscape:window-height="844"
     inkscape:window-x="20"
     inkscape:window-y="20"
     inkscape:window-maximized="0">
    <inkscape:grid
       type="xygrid"
       id="grid5746"
       empspacing="5"
       visible="true"
       enabled="true"
       snapvisiblegridlinesonly="true" />
  </sodipodi:namedview>
  <metadata
     id="metadata5743">
    <rdf:RDF>
      <cc:Work
         rdf:about="">
        <dc:format>image/svg+xml</dc:format>
        <dc:type
           rdf:resource="http://purl.org/dc/dcmitype/StillImage" />
        <dc:title></dc:title>
      </cc:Work>
    </rdf:RDF>
  </metadata>
  <g
     inkscape:label="Layer 1"
     inkscape:groupmode="layer"
     id="layer1"
     transform="translate(0,-1032.3622)">
    <path
       style="font-size:medium;font-style:normal;font-variant:normal;font-weight:normal;font-stretch:normal;text-indent:0;text-align:start;text-decoration:none;line-height:normal;letter-spacing:normal;word-spacing:normal;text-transform:none;direction:ltr;block-progression:tb;writing-mode:lr-tb;text-anchor:start;baseline-shift:baseline;color:#000000;fill:#000000;fill-opacity:1;fill-rule:nonzero;stroke:none;stroke-width:2;marker:none;visibility:visible;display:inline;overflow:visible;enable-background:accumulate;font-family:Sans;-inkscape-font-specification:Sans"
       d="m 9.9999904,1037.3622 c -0.3261,0 -0.6438,0.2076 -0.875,0.4375 l -3.875,3.8438 c -0.1822,0.1885 -0.2565,0.4601 -0.25,0.7187 0.01,0.2586 0.094,0.5041 0.2812,0.6875 0.375,0.3668 1.0373,0.3723 1.4063,0 l 2.3125,-2.2812 0,6.5937 c -0.01,0.5283 0.4716,1 1,1 l 3.9999996,0 c 0.5283,0.01 1.0002,-0.4713 1,-1 10e-5,-0.5282 -0.4718,-1.0074 -1,-1 l -3,0 0,-5.5937 2.3125,2.2812 c 0.369,0.3727 1.0313,0.3672 1.4063,0 0.1875,-0.1834 0.2747,-0.4289 0.2812,-0.6875 0.01,-0.2586 -0.068,-0.5302 -0.25,-0.7187 l -3.875,-3.8438 c -0.2312,-0.2299 -0.5489,-0.4375 -0.8749996,-0.4375 z"
       id="path4295"
       inkscape:connector-curvature="0"
       sodipodi:nodetypes="sccsccccscccccccsccs" />
  </g>
</svg>
