<?xml version="1.0" encoding="UTF-8" standalone="no"?>
<!-- Created with Inkscape (http://www.inkscape.org/) -->

<svg
   xmlns:dc="http://purl.org/dc/elements/1.1/"
   xmlns:cc="http://creativecommons.org/ns#"
   xmlns:rdf="http://www.w3.org/1999/02/22-rdf-syntax-ns#"
   xmlns:svg="http://www.w3.org/2000/svg"
   xmlns="http://www.w3.org/2000/svg"
   xmlns:sodipodi="http://sodipodi.sourceforge.net/DTD/sodipodi-0.dtd"
   xmlns:inkscape="http://www.inkscape.org/namespaces/inkscape"
   width="20"
   height="20"
   id="svg5738"
   version="1.1"
   inkscape:version="0.48.2 r9819"
   sodipodi:docname="minus.svg">
  <defs
     id="defs5740" />
  <sodipodi:namedview
     id="base"
     pagecolor="#ffffff"
     bordercolor="#666666"
     borderopacity="1.0"
     inkscape:pageopacity="0.0"
     inkscape:pageshadow="2"
     inkscape:zoom="8"
     inkscape:cx="16.72877"
     inkscape:cy="3.8055015"
     inkscape:document-units="px"
     inkscape:current-layer="layer1"
     showgrid="true"
     inkscape:window-width="1033"
     inkscape:window-height="844"
     inkscape:window-x="20"
     inkscape:window-y="20"
     inkscape:window-maximized="0">
    <inkscape:grid
       type="xygrid"
       id="grid5746"
       empspacing="5"
       visible="true"
       enabled="true"
       snapvisiblegridlinesonly="true" />
  </sodipodi:namedview>
  <metadata
     id="metadata5743">
    <rdf:RDF>
      <cc:Work
         rdf:about="">
        <dc:format>image/svg+xml</dc:format>
        <dc:type
           rdf:resource="http://purl.org/dc/dcmitype/StillImage" />
        <dc:title></dc:title>
      </cc:Work>
    </rdf:RDF>
  </metadata>
  <g
     inkscape:label="Layer 1"
     inkscape:groupmode="layer"
     id="layer1"
     transform="translate(0,-1032.3622)">
    <path
       style="color:#000000;fill:#000000;fill-opacity:1;fill-rule:nonzero;stroke:none;stroke-width:1;marker:none;visibility:visible;display:inline;overflow:visible;enable-background:accumulate"
       d="m 7.375,1035.7997 -1.75,1 0.5,2.4375 c -0.32773,0.4042 -0.59147,0.8497 -0.78125,1.3438 L 3,1041.3622 l 0,2 2.34375,0.7813 c 0.18978,0.494 0.45352,0.9395 0.78125,1.3437 l -0.5,2.4375 1.75,1 1.8125,-1.625 c 0.26757,0.044 0.53237,0.062 0.8125,0.062 0.28013,0 0.54493,-0.018 0.8125,-0.062 l 1.8125,1.625 1.75,-1 -0.5,-2.4375 c 0.32773,-0.4042 0.59147,-0.8497 0.78125,-1.3437 L 17,1043.3622 l 0,-2 -2.34375,-0.7812 c -0.18978,-0.4941 -0.45352,-0.9396 -0.78125,-1.3438 l 0.5,-2.4375 -1.75,-1 -1.8125,1.625 c -0.26757,-0.044 -0.53237,-0.062 -0.8125,-0.062 -0.28013,0 -0.54493,0.018 -0.8125,0.062 l -1.8125,-1.625 z m 2.625,4.5625 c 1.10457,0 2,0.8954 2,2 0,1.1046 -0.89543,2 -2,2 -1.10457,0 -2,-0.8954 -2,-2 0,-1.1046 0.89543,-2 2,-2 z"
       id="path3282-7"
       inkscape:connector-curvature="0" />
  </g>
</svg>
