<?xml version="1.0" encoding="UTF-8" standalone="no"?>
<!-- Created with Inkscape (http://www.inkscape.org/) -->

<svg
   xmlns:dc="http://purl.org/dc/elements/1.1/"
   xmlns:cc="http://creativecommons.org/ns#"
   xmlns:rdf="http://www.w3.org/1999/02/22-rdf-syntax-ns#"
   xmlns:svg="http://www.w3.org/2000/svg"
   xmlns="http://www.w3.org/2000/svg"
   xmlns:sodipodi="http://sodipodi.sourceforge.net/DTD/sodipodi-0.dtd"
   xmlns:inkscape="http://www.inkscape.org/namespaces/inkscape"
   width="20"
   height="20"
   id="svg5738"
   version="1.1"
   inkscape:version="0.48.2 r9819"
   sodipodi:docname="lock.svg">
  <defs
     id="defs5740" />
  <sodipodi:namedview
     id="base"
     pagecolor="#ffffff"
     bordercolor="#666666"
     borderopacity="1.0"
     inkscape:pageopacity="0.0"
     inkscape:pageshadow="2"
     inkscape:zoom="8"
     inkscape:cx="16.72877"
     inkscape:cy="3.8055015"
     inkscape:document-units="px"
     inkscape:current-layer="layer1"
     showgrid="true"
     inkscape:window-width="1033"
     inkscape:window-height="844"
     inkscape:window-x="20"
     inkscape:window-y="20"
     inkscape:window-maximized="0">
    <inkscape:grid
       type="xygrid"
       id="grid5746"
       empspacing="5"
       visible="true"
       enabled="true"
       snapvisiblegridlinesonly="true" />
  </sodipodi:namedview>
  <metadata
     id="metadata5743">
    <rdf:RDF>
      <cc:Work
         rdf:about="">
        <dc:format>image/svg+xml</dc:format>
        <dc:type
           rdf:resource="http://purl.org/dc/dcmitype/StillImage" />
        <dc:title></dc:title>
      </cc:Work>
    </rdf:RDF>
  </metadata>
  <g
     inkscape:label="Layer 1"
     inkscape:groupmode="layer"
     id="layer1"
     transform="translate(0,-1032.3622)">
    <path
       style="color:#000000;fill:#000000;fill-opacity:1;fill-rule:nonzero;stroke:none;stroke-width:1;marker:none;visibility:visible;display:inline;overflow:visible;enable-background:accumulate"
       d="m 10,1035.3622 c -0.554,0 -1,0.446 -1,1 l 0,1.0938 c -0.65097,0.1332 -1.24925,0.3905 -1.78125,0.75 l -0.0312,0 -0.5625,-0.5625 c -0.37354,-0.3736 -0.97021,-0.3736 -1.34375,0 -0.37354,0.3735 -0.37354,0.9702 0,1.3437 l 0.5625,0.5625 c -0.004,0.01 0.004,0.025 0,0.031 -0.35941,0.5319 -0.61679,1.1302 -0.75,1.7812 l -1.09375,0 c -0.554,0 -1,0.446 -1,1 0,0.554 0.446,1 1,1 l 1.09375,0 c 0.13321,0.651 0.39059,1.2492 0.75,1.7812 0.004,0.01 -0.004,0.025 0,0.031 l -0.5625,0.5625 c -0.37353,0.3735 -0.37353,0.9702 0,1.3437 0.37353,0.3736 0.97022,0.3736 1.34375,0 l 0.5625,-0.5625 c 0.007,0 0.0247,0 0.0312,0 0.532,0.3594 1.13028,0.6168 1.78125,0.75 l 0,1.0938 c 0,0.554 0.446,1 1,1 0.554,0 1,-0.446 1,-1 l 0,-1.0938 c 0.65097,-0.1332 1.24925,-0.3906 1.78125,-0.75 l 0.0312,0 0.5625,0.5625 c 0.37354,0.3736 0.97021,0.3736 1.34375,0 0.37354,-0.3735 0.37354,-0.9702 0,-1.3437 l -0.5625,-0.5625 0,-0.031 c 0.35941,-0.532 0.61679,-1.1302 0.75,-1.7812 l 1.09375,0 c 0.554,0 1,-0.446 1,-1 0,-0.554 -0.446,-1 -1,-1 l -1.09375,0 c -0.13321,-0.651 -0.39059,-1.2493 -0.75,-1.7812 -0.004,-0.01 0.004,-0.025 0,-0.031 l 0.5625,-0.5625 c 0.37353,-0.3735 0.37353,-0.9702 0,-1.3437 -0.37353,-0.3736 -0.97022,-0.3736 -1.34375,0 l -0.5625,0.5625 -0.0312,0 c -0.532,-0.3595 -1.13028,-0.6168 -1.78125,-0.75 l 0,-1.0938 c 0,-0.554 -0.446,-1 -1,-1 z m 0,4 0,6 c -1.65685,0 -3,-1.3431 -3,-3 0,-1.657 1.34315,-3 3,-3 z"
       id="rect3503"
       inkscape:connector-curvature="0" />
  </g>
</svg>
