<?xml version="1.0" encoding="UTF-8" standalone="no"?>
<!-- Created with Inkscape (http://www.inkscape.org/) -->

<svg
   xmlns:dc="http://purl.org/dc/elements/1.1/"
   xmlns:cc="http://creativecommons.org/ns#"
   xmlns:rdf="http://www.w3.org/1999/02/22-rdf-syntax-ns#"
   xmlns:svg="http://www.w3.org/2000/svg"
   xmlns="http://www.w3.org/2000/svg"
   xmlns:xlink="http://www.w3.org/1999/xlink"
   xmlns:sodipodi="http://sodipodi.sourceforge.net/DTD/sodipodi-0.dtd"
   xmlns:inkscape="http://www.inkscape.org/namespaces/inkscape"
   width="20"
   height="20"
   id="svg5738"
   version="1.1"
   inkscape:version="0.48.2 r9819"
   sodipodi:docname="arrive.svg">
  <defs
     id="defs5740">
    <linearGradient
       inkscape:collect="always"
       xlink:href="#linearGradient4103"
       id="linearGradient4184"
       gradientUnits="userSpaceOnUse"
       x1="3003"
       y1="10"
       x2="3017"
       y2="10"
       gradientTransform="translate(1,2.6171874e-6)" />
    <linearGradient
       inkscape:collect="always"
       id="linearGradient4103">
      <stop
         style="stop-color:#000000;stop-opacity:1;"
         offset="0"
         id="stop4105" />
      <stop
         style="stop-color:#000000;stop-opacity:0;"
         offset="1"
         id="stop4107" />
    </linearGradient>
  </defs>
  <sodipodi:namedview
     id="base"
     pagecolor="#ffffff"
     bordercolor="#666666"
     borderopacity="1.0"
     inkscape:pageopacity="0.0"
     inkscape:pageshadow="2"
     inkscape:zoom="22.627417"
     inkscape:cx="13.714966"
     inkscape:cy="9.4622442"
     inkscape:document-units="px"
     inkscape:current-layer="layer1"
     showgrid="true"
     inkscape:window-width="1390"
     inkscape:window-height="884"
     inkscape:window-x="20"
     inkscape:window-y="20"
     inkscape:window-maximized="0"
     inkscape:object-nodes="true">
    <inkscape:grid
       type="xygrid"
       id="grid5746"
       empspacing="5"
       visible="true"
       enabled="true"
       snapvisiblegridlinesonly="true" />
  </sodipodi:namedview>
  <metadata
     id="metadata5743">
    <rdf:RDF>
      <cc:Work
         rdf:about="">
        <dc:format>image/svg+xml</dc:format>
        <dc:type
           rdf:resource="http://purl.org/dc/dcmitype/StillImage" />
        <dc:title></dc:title>
      </cc:Work>
    </rdf:RDF>
  </metadata>
  <g
     inkscape:label="Layer 1"
     inkscape:groupmode="layer"
     id="layer1"
     transform="translate(0,-1032.3622)">
    <g
       style="fill:#000000;fill-opacity:1;display:inline"
       id="g33033"
       transform="matrix(0.08058027,0,0,0.08058027,-44.952145,1053.2529)">
      <path
         style="color:#000000;fill:#000000;fill-opacity:1;fill-rule:nonzero;stroke:none;stroke-width:1.39130473;marker:none;visibility:visible;display:inline;overflow:visible;enable-background:accumulate"
         d="m 628.09847,-233.32532 c -0.58817,0.0511 -1.19873,0.26951 -1.6875,0.65625 l -14.875,11.78125 c -1.30334,1.03129 -1.63391,3.00365 -0.5,4.21875 l 33.03999,34.68876 c 1.13394,1.21509 2.91542,1.5313 4.21875,0.5 l 10.1875,-8.0625 c 1.30334,-1.03131 1.39058,-2.83584 0.46875,-4.21875 l -28.28999,-38.43876 c -0.46094,-0.69147 -1.22462,-1.0462 -2,-1.125 -0.19384,-0.0197 -0.36644,-0.017 -0.5625,0 z m 107.11999,0 c -0.77538,0.0788 -1.50781,0.43353 -1.96875,1.125 l -28.32125,38.43876 c -0.92183,1.38291 -0.80334,3.18744 0.5,4.21875 l 10.1875,8.0625 c 1.30333,1.0313 3.08481,0.71509 4.21875,-0.5 l 33.04,-34.68876 c 1.13391,-1.2151 0.80334,-3.18746 -0.5,-4.21875 l -14.90625,-11.78125 c -0.65169,-0.51566 -1.47463,-0.73501 -2.25,-0.65625 z m -53.2475,39.87032 c -1.29714,0 -2.62388,0.61384 -4.5625,1.90625 l -34,27.81718 c -2.16971,1.72199 -4.05099,2.59745 -4.48718,5.48626 l -5.66907,37.54499 -22.4375,25 c -1.13391,1.2151 -0.80334,3.18746 0.5,4.21875 l 16.09375,12.78125 -4.13593,18.259688 -9.83625,2.709062 c -2.63278,0.86103 -3.87318,1.97325 -4.25,4.5625 l -1.5625,11.63906 c -0.37682,2.58926 -0.0513,4.5625 2.71875,4.5625 l 143.22561,0 c 2.77004,0 3.09557,-1.97324 2.71875,-4.5625 l -1.5625,-11.63906 c -0.37682,-2.58926 -1.61722,-3.70147 -4.25,-4.5625 l -9.83624,-2.709062 -4.10469,-18.040938 16.375,-13 c 1.30334,-1.03129 1.63391,-3.00365 0.5,-4.21875 l -22.8125,-25.40625 -5.60656,-37.13874 c -0.4003,-2.8747 -2.31748,-3.76427 -4.48719,-5.48626 l -34,-27.81718 c -1.93862,-1.29241 -3.23411,-1.90625 -4.53125,-1.90625 z m -5.5625,43.03406 11,0 c 2.77,0 3.53127,1.26995 4,4 l 4,23.2975 c 0.46873,2.73005 -0.23,4 -3,4 l -21,0 c -2.77,0 -3.46873,-1.26995 -3,-4 l 4,-23.2975 c 0.46873,-2.73005 1.23,-4 4,-4 z"
         id="path33031"
         inkscape:connector-curvature="0"
         sodipodi:nodetypes="cccccccccscccccccccccsccsccccccccsscccccccccccssssssssss" />
    </g>
  </g>
</svg>
