<?xml version="1.0" encoding="UTF-8" standalone="no"?>
<!-- Created with Inkscape (http://www.inkscape.org/) -->

<svg
   xmlns:dc="http://purl.org/dc/elements/1.1/"
   xmlns:cc="http://creativecommons.org/ns#"
   xmlns:rdf="http://www.w3.org/1999/02/22-rdf-syntax-ns#"
   xmlns:svg="http://www.w3.org/2000/svg"
   xmlns="http://www.w3.org/2000/svg"
   xmlns:sodipodi="http://sodipodi.sourceforge.net/DTD/sodipodi-0.dtd"
   xmlns:inkscape="http://www.inkscape.org/namespaces/inkscape"
   width="20"
   height="20"
   id="svg5738"
   version="1.1"
   inkscape:version="0.48.2 r9819"
   sodipodi:docname="clipboard.svg">
  <defs
     id="defs5740" />
  <sodipodi:namedview
     id="base"
     pagecolor="#ffffff"
     bordercolor="#666666"
     borderopacity="1.0"
     inkscape:pageopacity="0.0"
     inkscape:pageshadow="2"
     inkscape:zoom="16"
     inkscape:cx="12.532409"
     inkscape:cy="8.2195076"
     inkscape:document-units="px"
     inkscape:current-layer="layer1"
     showgrid="true"
     inkscape:window-width="1033"
     inkscape:window-height="844"
     inkscape:window-x="20"
     inkscape:window-y="20"
     inkscape:window-maximized="0">
    <inkscape:grid
       type="xygrid"
       id="grid5746"
       empspacing="5"
       visible="true"
       enabled="true"
       snapvisiblegridlinesonly="true" />
  </sodipodi:namedview>
  <metadata
     id="metadata5743">
    <rdf:RDF>
      <cc:Work
         rdf:about="">
        <dc:format>image/svg+xml</dc:format>
        <dc:type
           rdf:resource="http://purl.org/dc/dcmitype/StillImage" />
        <dc:title></dc:title>
      </cc:Work>
    </rdf:RDF>
  </metadata>
  <g
     inkscape:label="Layer 1"
     inkscape:groupmode="layer"
     id="layer1"
     transform="translate(0,-1032.3622)">
    <path
       inkscape:connector-curvature="0"
       id="path8480"
       d="m 10,1036.3622 c -3.3137,0 -6,2.6863 -6,6 0,3.3137 2.6863,6 6,6 3.3137,0 6,-2.6863 6,-6 0,-3.3137 -2.6863,-6 -6,-6 z m 0,2 c 2.2091,0 4,1.7908 4,4 0,2.2091 -1.7909,4 -4,4 -2.2091,0 -4,-1.7909 -4,-4 0,-2.2092 1.7909,-4 4,-4 z m 0,1 -1,1 0,3 2,0 0,-3 -1,-1 z"
       style="color:#000000;fill:#000000;fill-opacity:1;fill-rule:nonzero;stroke:none;stroke-width:1;marker:none;visibility:visible;display:inline;overflow:visible;filter:url(#filter6591-2);enable-background:accumulate" />
  </g>
</svg>
