<?xml version="1.0" encoding="UTF-8" standalone="no"?>
<!-- Created with Inkscape (http://www.inkscape.org/) -->

<svg
   xmlns:dc="http://purl.org/dc/elements/1.1/"
   xmlns:cc="http://creativecommons.org/ns#"
   xmlns:rdf="http://www.w3.org/1999/02/22-rdf-syntax-ns#"
   xmlns:svg="http://www.w3.org/2000/svg"
   xmlns="http://www.w3.org/2000/svg"
   xmlns:sodipodi="http://sodipodi.sourceforge.net/DTD/sodipodi-0.dtd"
   xmlns:inkscape="http://www.inkscape.org/namespaces/inkscape"
   width="20"
   height="20"
   id="svg5738"
   version="1.1"
   inkscape:version="0.48.2 r9819"
   sodipodi:docname="mail.svg">
  <defs
     id="defs5740" />
  <sodipodi:namedview
     id="base"
     pagecolor="#ffffff"
     bordercolor="#666666"
     borderopacity="1.0"
     inkscape:pageopacity="0.0"
     inkscape:pageshadow="2"
     inkscape:zoom="16"
     inkscape:cx="12.532409"
     inkscape:cy="8.2195076"
     inkscape:document-units="px"
     inkscape:current-layer="layer1"
     showgrid="true"
     inkscape:window-width="1033"
     inkscape:window-height="844"
     inkscape:window-x="20"
     inkscape:window-y="20"
     inkscape:window-maximized="0">
    <inkscape:grid
       type="xygrid"
       id="grid5746"
       empspacing="5"
       visible="true"
       enabled="true"
       snapvisiblegridlinesonly="true" />
  </sodipodi:namedview>
  <metadata
     id="metadata5743">
    <rdf:RDF>
      <cc:Work
         rdf:about="">
        <dc:format>image/svg+xml</dc:format>
        <dc:type
           rdf:resource="http://purl.org/dc/dcmitype/StillImage" />
        <dc:title></dc:title>
      </cc:Work>
    </rdf:RDF>
  </metadata>
  <g
     inkscape:label="Layer 1"
     inkscape:groupmode="layer"
     id="layer1"
     transform="translate(0,-1032.3622)">
    <path
       inkscape:connector-curvature="0"
       d="m 17,1037.4879 c -0.5151,0.2249 -1.0687,0.3769 -1.6497,0.4452 0.593,-0.3499 1.0484,-0.904 1.2629,-1.5643 -0.555,0.3241 -1.1697,0.5594 -1.824,0.6861 -0.5238,-0.5495 -1.2703,-0.8929 -2.0964,-0.8929 -1.5863,0 -2.8724,1.266 -2.8724,2.8275 0,0.2216 0.025,0.4375 0.075,0.6444 -2.3871,-0.1179 -4.5035,-1.2436 -5.9201,-2.9543 -0.2472,0.4176 -0.3889,0.9033 -0.3889,1.4215 0,0.981 0.507,1.8464 1.2777,2.3535 -0.4708,-0.015 -0.9137,-0.1419 -1.3009,-0.3536 -3e-4,0.012 -3e-4,0.024 -3e-4,0.035 0,1.3699 0.9901,2.5127 2.304,2.7725 -0.241,0.065 -0.4947,0.099 -0.7567,0.099 -0.1851,0 -0.365,-0.018 -0.5403,-0.051 0.3654,1.1233 1.4261,1.9408 2.683,1.9636 -0.983,0.7584 -2.2214,1.2105 -3.5672,1.2105 -0.2318,0 -0.4604,-0.013 -0.6851,-0.04 1.2711,0.8022 2.7809,1.2704 4.4029,1.2704 5.2832,0 8.1722,-4.3085 8.1722,-8.045 0,-0.1226 0,-0.2446 -0.01,-0.3658 0.5613,-0.3987 1.0482,-0.8966 1.4333,-1.4637"
       style="color:#000000;fill:#000000;fill-opacity:1;fill-rule:nonzero;stroke:none;stroke-width:1;marker:none;visibility:visible;display:inline;overflow:visible;enable-background:accumulate"
       id="path8212"
       inkscape:export-filename="/Users/saman/Dropbox/mapbox-redesign/mockup.png"
       inkscape:export-xdpi="90"
       inkscape:export-ydpi="90" />
  </g>
</svg>
