<?xml version="1.0" encoding="UTF-8" standalone="no"?>
<!-- Created with Inkscape (http://www.inkscape.org/) -->

<svg
   xmlns:dc="http://purl.org/dc/elements/1.1/"
   xmlns:cc="http://creativecommons.org/ns#"
   xmlns:rdf="http://www.w3.org/1999/02/22-rdf-syntax-ns#"
   xmlns:svg="http://www.w3.org/2000/svg"
   xmlns="http://www.w3.org/2000/svg"
   xmlns:sodipodi="http://sodipodi.sourceforge.net/DTD/sodipodi-0.dtd"
   xmlns:inkscape="http://www.inkscape.org/namespaces/inkscape"
   width="20"
   height="20"
   id="svg5738"
   version="1.1"
   inkscape:version="0.48.2 r9819"
   sodipodi:docname="star.svg">
  <defs
     id="defs5740" />
  <sodipodi:namedview
     id="base"
     pagecolor="#ffffff"
     bordercolor="#666666"
     borderopacity="1.0"
     inkscape:pageopacity="0.0"
     inkscape:pageshadow="2"
     inkscape:zoom="8"
     inkscape:cx="16.72877"
     inkscape:cy="3.8055015"
     inkscape:document-units="px"
     inkscape:current-layer="layer1"
     showgrid="true"
     inkscape:window-width="1033"
     inkscape:window-height="844"
     inkscape:window-x="20"
     inkscape:window-y="20"
     inkscape:window-maximized="0">
    <inkscape:grid
       type="xygrid"
       id="grid5746"
       empspacing="5"
       visible="true"
       enabled="true"
       snapvisiblegridlinesonly="true" />
  </sodipodi:namedview>
  <metadata
     id="metadata5743">
    <rdf:RDF>
      <cc:Work
         rdf:about="">
        <dc:format>image/svg+xml</dc:format>
        <dc:type
           rdf:resource="http://purl.org/dc/dcmitype/StillImage" />
        <dc:title></dc:title>
      </cc:Work>
    </rdf:RDF>
  </metadata>
  <g
     inkscape:label="Layer 1"
     inkscape:groupmode="layer"
     id="layer1"
     transform="translate(0,-1032.3622)">
    <path
       sodipodi:nodetypes="cccccccccsccccccccccccccsccccccccccccccccc"
       inkscape:connector-curvature="0"
       id="path4112"
       d="m 5.99996,1038.3622 c -0.35604,0 -0.6815,0.021 -0.96875,0.094 -0.28725,0.069 -0.54255,0.1639 -0.78125,0.2812 -0.23871,0.1174 -0.45801,0.2525 -0.65625,0.4063 -0.19825,0.1497 -0.38045,0.3341 -0.5625,0.5 l 1,1.1875 c 0.32366,-0.2913 0.64215,-0.4985 0.9375,-0.6563 0.29534,-0.1578 0.61787,-0.25 0.9375,-0.25 0.30344,0 0.54073,0.084 0.71875,0.25 0.18209,0.1659 0.25,0.3881 0.25,0.6875 0,0.2711 -0.04,0.5466 -0.125,0.7813 -0.085,0.2346 -0.19001,0.4609 -0.34375,0.6875 -0.15374,0.2266 -0.34808,0.4488 -0.5625,0.6875 -0.21444,0.2387 -0.45577,0.498 -0.71875,0.7812 l -2.09375,2.25 0,1.3125 5.96875,0 0,-1.5625 -3.625,0 0,-0.094 1.0625,-1.0937 c 0.31557,-0.3115 0.63113,-0.6069 0.90625,-0.9063 0.27916,-0.3034 0.50836,-0.6028 0.71875,-0.9062 0.21038,-0.3075 0.37861,-0.6219 0.5,-0.9375 0.12135,-0.3196 0.1875,-0.6521 0.1875,-1 0,-0.3844 -0.058,-0.7238 -0.1875,-1.0313 -0.12543,-0.3074 -0.32381,-0.5668 -0.5625,-0.7812 -0.23871,-0.2185 -0.50391,-0.3827 -0.84375,-0.5 -0.33581,-0.1173 -0.73144,-0.1875 -1.15625,-0.1875 z m 3.5,2 2.1875,3.4375 -2.3125,3.5625 2.125,0 1.21875,-2.2813 1.25,2.2813 2.09375,0 -2.3125,-3.5625 2.21875,-3.4375 -2.09375,0 -1.15625,2.0937 -1.125,-2.0937 z"
       style="font-size:12.35553551px;font-style:normal;font-variant:normal;font-weight:bold;font-stretch:normal;text-indent:0;text-align:start;text-decoration:none;line-height:125%;letter-spacing:normal;word-spacing:normal;text-transform:none;direction:ltr;block-progression:tb;writing-mode:lr-tb;text-anchor:start;color:#000000;fill:#000000;fill-opacity:1;fill-rule:nonzero;stroke:none;stroke-width:1;marker:none;visibility:visible;display:inline;overflow:visible;enable-background:accumulate;font-family:Droid Sans;-inkscape-font-specification:Droid Sans Bold" />
  </g>
</svg>
