<?xml version="1.0" encoding="UTF-8" standalone="no"?>
<!-- Created with Inkscape (http://www.inkscape.org/) -->

<svg
   xmlns:dc="http://purl.org/dc/elements/1.1/"
   xmlns:cc="http://creativecommons.org/ns#"
   xmlns:rdf="http://www.w3.org/1999/02/22-rdf-syntax-ns#"
   xmlns:svg="http://www.w3.org/2000/svg"
   xmlns="http://www.w3.org/2000/svg"
   xmlns:sodipodi="http://sodipodi.sourceforge.net/DTD/sodipodi-0.dtd"
   xmlns:inkscape="http://www.inkscape.org/namespaces/inkscape"
   width="20"
   height="20"
   id="svg5738"
   version="1.1"
   inkscape:version="0.48.2 r9819"
   sodipodi:docname="dashboard.svg">
  <defs
     id="defs5740" />
  <sodipodi:namedview
     id="base"
     pagecolor="#ffffff"
     bordercolor="#666666"
     borderopacity="1.0"
     inkscape:pageopacity="0.0"
     inkscape:pageshadow="2"
     inkscape:zoom="22.627417"
     inkscape:cx="18.205581"
     inkscape:cy="6.9339856"
     inkscape:document-units="px"
     inkscape:current-layer="layer1"
     showgrid="true"
     inkscape:window-width="1390"
     inkscape:window-height="884"
     inkscape:window-x="20"
     inkscape:window-y="20"
     inkscape:window-maximized="0">
    <inkscape:grid
       type="xygrid"
       id="grid5746"
       empspacing="5"
       visible="true"
       enabled="true"
       snapvisiblegridlinesonly="true" />
  </sodipodi:namedview>
  <metadata
     id="metadata5743">
    <rdf:RDF>
      <cc:Work
         rdf:about="">
        <dc:format>image/svg+xml</dc:format>
        <dc:type
           rdf:resource="http://purl.org/dc/dcmitype/StillImage" />
        <dc:title></dc:title>
      </cc:Work>
    </rdf:RDF>
  </metadata>
  <g
     inkscape:label="Layer 1"
     inkscape:groupmode="layer"
     id="layer1"
     transform="translate(0,-1032.3622)">
    <path
       id="path4288"
       d="m 14.001502,1039.3625 c 0,-0.2619 -0.068,-0.5302 -0.2501,-0.7188 l -2.875,-2.8438 c -0.2313,-0.2299 -0.549,-0.4375 -0.875,-0.4375 -0.3259,4e-4 -0.6437,0.2078 -0.8752,0.4372 l -2.8749997,2.8438 c -0.3636,0.3778 -0.3438,1.0396 0.031,1.4063 0.3781,0.364 1.0369,0.3731 1.4063,0 l 1.3124997,-1.2814 10e-5,7.1876 -1.3123997,-1.2812 c -0.371,-0.371 -1.0283,-0.3636 -1.4063,-2e-4 -0.378,0.364 -0.3949,1.0285 -0.031,1.4063 l 2.8748997,2.8438 c 0.2308,0.2302 0.549,0.4374 0.8753,0.4372 0.3261,-6e-4 0.6438,-0.2078 0.8751,-0.4371 l 2.875,-2.8438 c 0.3636,-0.3778 0.3467,-1.0425 -0.031,-1.4063 -0.3779,-0.3637 -1.0374,-0.3732 -1.4062,0 l -1.3126,1.2814 10e-5,-7.1877 1.3126,1.2813 c 0.3685,0.3729 1.0313,0.3667 1.406,-10e-5 0.193,-0.1781 0.2781,-0.4256 0.2815,-0.6874 z"
       style="font-size:medium;font-style:normal;font-variant:normal;font-weight:normal;font-stretch:normal;text-indent:0;text-align:start;text-decoration:none;line-height:normal;letter-spacing:normal;word-spacing:normal;text-transform:none;direction:ltr;block-progression:tb;writing-mode:lr-tb;text-anchor:start;baseline-shift:baseline;color:#000000;fill:#000000;fill-opacity:1;fill-rule:nonzero;stroke:none;stroke-width:2;marker:none;visibility:visible;display:inline;overflow:visible;enable-background:accumulate;font-family:Sans;-inkscape-font-specification:Sans"
       inkscape:connector-curvature="0" />
  </g>
</svg>
