<?xml version="1.0" encoding="UTF-8" standalone="no"?>
<!-- Created with Inkscape (http://www.inkscape.org/) -->

<svg
   xmlns:dc="http://purl.org/dc/elements/1.1/"
   xmlns:cc="http://creativecommons.org/ns#"
   xmlns:rdf="http://www.w3.org/1999/02/22-rdf-syntax-ns#"
   xmlns:svg="http://www.w3.org/2000/svg"
   xmlns="http://www.w3.org/2000/svg"
   xmlns:sodipodi="http://sodipodi.sourceforge.net/DTD/sodipodi-0.dtd"
   xmlns:inkscape="http://www.inkscape.org/namespaces/inkscape"
   width="20"
   height="20"
   id="svg5738"
   version="1.1"
   inkscape:version="0.48.2 r9819"
   sodipodi:docname="redo.svg">
  <defs
     id="defs5740" />
  <sodipodi:namedview
     id="base"
     pagecolor="#ffffff"
     bordercolor="#666666"
     borderopacity="1.0"
     inkscape:pageopacity="0.0"
     inkscape:pageshadow="2"
     inkscape:zoom="22.627417"
     inkscape:cx="18.205581"
     inkscape:cy="6.9339856"
     inkscape:document-units="px"
     inkscape:current-layer="layer1"
     showgrid="true"
     inkscape:window-width="1390"
     inkscape:window-height="884"
     inkscape:window-x="20"
     inkscape:window-y="20"
     inkscape:window-maximized="0">
    <inkscape:grid
       type="xygrid"
       id="grid5746"
       empspacing="5"
       visible="true"
       enabled="true"
       snapvisiblegridlinesonly="true" />
  </sodipodi:namedview>
  <metadata
     id="metadata5743">
    <rdf:RDF>
      <cc:Work
         rdf:about="">
        <dc:format>image/svg+xml</dc:format>
        <dc:type
           rdf:resource="http://purl.org/dc/dcmitype/StillImage" />
        <dc:title></dc:title>
      </cc:Work>
    </rdf:RDF>
  </metadata>
  <g
     inkscape:label="Layer 1"
     inkscape:groupmode="layer"
     id="layer1"
     transform="translate(0,-1032.3622)">
    <path
       style="font-size:medium;font-style:normal;font-variant:normal;font-weight:normal;font-stretch:normal;text-indent:0;text-align:start;text-decoration:none;line-height:normal;letter-spacing:normal;word-spacing:normal;text-transform:none;direction:ltr;block-progression:tb;writing-mode:lr-tb;text-anchor:start;baseline-shift:baseline;color:#000000;fill:#000000;fill-opacity:1;fill-rule:nonzero;stroke:none;stroke-width:2;marker:none;visibility:visible;display:inline;overflow:visible;enable-background:accumulate;font-family:Sans;-inkscape-font-specification:Sans"
       d="m 10,1035.362 c -0.2614,0 -0.5298,0.068 -0.7188,0.25 l -2.8437,2.875 c -0.2296,0.2315 -0.4371,0.5489 -0.4375,0.875 0,0.326 0.2071,0.6438 0.4375,0.875 l 2.8437,2.875 c 0.3772,0.3643 1.0425,0.3466 1.4063,-0.031 0.3668,-0.3748 0.3712,-1.0354 0,-1.4062 l -1.2813,-1.3125 2.5938,0 c 0,0 1,0 1,1 l 0,3 c 0,1 -1,1 -1,1 l -4,0 c -0.5283,-0.01 -1.0001,0.4711 -1,1 2e-4,0.5285 0.4717,1.0074 1,1 l 4,0 c 1.5028,0 3,-1.4972 3,-3 l 0,-3 c 0,-1.5007 -1.5018,-3 -3,-3 l -2.5938,0 1.2813,-1.3125 c 0.3727,-0.3694 0.3639,-1.0282 0,-1.4063 -0.1833,-0.1876 -0.4261,-0.2777 -0.6875,-0.2812 z"
       id="path4242"
       inkscape:connector-curvature="0"
       sodipodi:nodetypes="scccccccccsscccccssccccs" />
  </g>
</svg>
