<?xml version="1.0" encoding="UTF-8" standalone="no"?>
<!-- Created with Inkscape (http://www.inkscape.org/) -->

<svg
   xmlns:dc="http://purl.org/dc/elements/1.1/"
   xmlns:cc="http://creativecommons.org/ns#"
   xmlns:rdf="http://www.w3.org/1999/02/22-rdf-syntax-ns#"
   xmlns:svg="http://www.w3.org/2000/svg"
   xmlns="http://www.w3.org/2000/svg"
   xmlns:sodipodi="http://sodipodi.sourceforge.net/DTD/sodipodi-0.dtd"
   xmlns:inkscape="http://www.inkscape.org/namespaces/inkscape"
   width="400"
   height="40"
   id="svg3990"
   version="1.1"
   inkscape:version="0.48.2 r9819"
   sodipodi:docname="sprite.svg"
   inkscape:export-filename="./sprite.png"
   inkscape:export-xdpi="90"
   inkscape:export-ydpi="90">
  <defs
     id="defs3992" />
  <sodipodi:namedview
     id="base"
     pagecolor="#ffffff"
     bordercolor="#666666"
     borderopacity="1.0"
     inkscape:pageopacity="0.0"
     inkscape:pageshadow="2"
     inkscape:zoom="1"
     inkscape:cx="191.12993"
     inkscape:cy="16.621623"
     inkscape:document-units="px"
     inkscape:current-layer="layer1"
     showgrid="false">
    <inkscape:grid
       type="xygrid"
       id="grid4167"
       empspacing="5"
       visible="true"
       enabled="true"
       snapvisiblegridlinesonly="true" />
  </sodipodi:namedview>
  <metadata
     id="metadata3995">
    <rdf:RDF>
      <cc:Work
         rdf:about="">
        <dc:format>image/svg+xml</dc:format>
        <dc:type
           rdf:resource="http://purl.org/dc/dcmitype/StillImage" />
        <dc:title></dc:title>
      </cc:Work>
    </rdf:RDF>
  </metadata>
  <g
     inkscape:label="Layer 1"
     inkscape:groupmode="layer"
     id="layer1"
     transform="translate(0,-1012.3622)">
    <path
       sodipodi:nodetypes="ccccccccccc"
       inkscape:connector-curvature="0"
       id="path4952"
       d="m 85,1037.3622 0,5 2,-2 5,5 -2,2 5,0 0,-5 -2,2 -5,-5 2,-2 z"
       style="color:#000000;fill:#ffffff;fill-opacity:1;fill-rule:nonzero;stroke:none;stroke-width:0;marker:none;visibility:visible;display:inline;overflow:visible;enable-background:accumulate" />
    <path
       id="path3191"
       d="m 48.5,1036.3622 c -2.484,0 -4.5,2.016 -4.5,4.5 0,2.484 2.016,4.5 4.5,4.5 0.85669,0 1.63064,-0.2714 2.3125,-0.6875 l 3.6875,3.6875 1.5,-1.5 -3.6875,-3.6875 c 0.41608,-0.6819 0.6875,-1.4558 0.6875,-2.3125 0,-2.484 -2.016,-4.5 -4.5,-4.5 z m 0,2 c 1.38,0 2.5,1.12 2.5,2.5 0,1.38 -1.12,2.5 -2.5,2.5 -1.38,0 -2.5,-1.12 -2.5,-2.5 0,-1.38 1.12,-2.5 2.5,-2.5 z"
       style="fill:#ffffff;fill-opacity:1;fill-rule:nonzero;stroke:none;stroke-width:0;marker:none;visibility:visible;display:inline;overflow:visible;enable-background:accumulate"
       inkscape:connector-curvature="0" />
    <path
       id="path3193"
       d="m 34.5,1035.3622 -1,1 2.5,2.5 1,-1 0,-1.5 -1,-1 -1.5,0 z m -1.5,1.5 -7,7 2.5,2.5 7,-7 -2.5,-2.5 z m -8,8.5 -1,3 3,-1 -2,-2 z"
       style="fill:#ffffff;fill-opacity:1;fill-rule:nonzero;stroke:none;stroke-width:0;marker:none;visibility:visible;display:inline;overflow:visible;enable-background:accumulate"
       inkscape:connector-curvature="0" />
    <path
       style="color:#000000;fill:#202020;fill-opacity:1;fill-rule:nonzero;stroke:none;stroke-width:0.055;marker:none;visibility:visible;display:inline;overflow:visible;enable-background:accumulate"
       d="m 48.5,1016.3622 c -2.484,0 -4.5,2.016 -4.5,4.5 0,2.484 2.016,4.5 4.5,4.5 0.85669,0 1.63064,-0.2714 2.3125,-0.6875 l 3.6875,3.6875 1.5,-1.5 -3.6875,-3.6875 c 0.41608,-0.6819 0.6875,-1.4558 0.6875,-2.3125 0,-2.484 -2.016,-4.5 -4.5,-4.5 z m 0,2 c 1.38,0 2.5,1.12 2.5,2.5 0,1.38 -1.12,2.5 -2.5,2.5 -1.38,0 -2.5,-1.12 -2.5,-2.5 0,-1.38 1.12,-2.5 2.5,-2.5 z"
       id="path2385"
       inkscape:connector-curvature="0" />
    <path
       style="color:#000000;fill:#202020;fill-opacity:1;fill-rule:nonzero;stroke:none;stroke-width:0.055;marker:none;visibility:visible;display:inline;overflow:visible;enable-background:accumulate"
       d="m 34.5,1015.3622 -1,1 2.5,2.5 1,-1 0,-1.5 -1,-1 -1.5,0 z m -1.5,1.5 -7,7 2.5,2.5 7,-7 -2.5,-2.5 z m -8,8.5 -1,3 3,-1 -2,-2 z"
       id="path3163"
       inkscape:connector-curvature="0" />
    <path
       style="color:#000000;fill:#202020;fill-opacity:1;fill-rule:nonzero;stroke:none;stroke-width:0.055;marker:none;visibility:visible;display:inline;overflow:visible;enable-background:accumulate"
       d="m 67.5,1018.3622 -1.5,1.5 2.5,2.5 -2.5,2.5 1.5,1.5 2.5,-2.5 2.5,2.5 1.5,-1.5 -2.5,-2.5 2.5,-2.5 -1.5,-1.5 -2.5,2.5 z"
       id="path2431"
       inkscape:connector-curvature="0"
       sodipodi:nodetypes="ccccccccccccc" />
    <path
       inkscape:connector-curvature="0"
       sodipodi:nodetypes="ccccccccccccccccccccc"
       id="path3910"
       d="m 109.50004,1017.3622 c -0.277,0 -0.5,0.223 -0.5,0.5 l 0,3.5 -3.5,0 c -0.277,0 -0.5,0.223 -0.5,0.5 l 0,1 c 0,0.277 0.223,0.5 0.5,0.5 l 3.5,0 0,3.5 c 0,0.277 0.223,0.5 0.5,0.5 l 1,0 c 0.277,0 0.5,-0.223 0.5,-0.5 l 0,-3.5 3.5,0 c 0.277,0 0.5,-0.223 0.5,-0.5 l 0,-1 c 0,-0.277 -0.223,-0.5 -0.5,-0.5 l -3.5,0 0,-3.5 c 0,-0.277 -0.223,-0.5 -0.5,-0.5 z"
       style="color:#000000;fill:#202020;fill-opacity:1;fill-rule:nonzero;stroke:none;stroke-width:0.055;marker:none;visibility:visible;display:inline;overflow:visible;enable-background:accumulate" />
    <path
       style="font-size:medium;font-style:normal;font-variant:normal;font-weight:normal;font-stretch:normal;text-indent:0;text-align:start;text-decoration:none;line-height:normal;letter-spacing:normal;word-spacing:normal;text-transform:none;direction:ltr;block-progression:tb;writing-mode:lr-tb;text-anchor:start;baseline-shift:baseline;color:#000000;fill:#202020;fill-opacity:1;fill-rule:nonzero;stroke:none;stroke-width:0.055;marker:none;visibility:visible;display:inline;overflow:visible;enable-background:accumulate;font-family:Sans;-inkscape-font-specification:Sans"
       d="m 133.50004,1017.3622 c -0.8285,0 -1.5,0.6716 -1.5,1.5 0,0.8284 0.6715,1.5 1.5,1.5 0.8284,0 1.5,-0.6716 1.5,-1.5 0,-0.8284 -0.6716,-1.5 -1.5,-1.5 z m -2.1875,2.25 -4.0625,4.0625 c 0.6371,0.2979 1.1396,0.8003 1.4375,1.4375 l 4.0625,-4.0625 c -0.6372,-0.2979 -1.1397,-0.8003 -1.4375,-1.4375 z m -4.8125,4.75 c -0.8285,0 -1.5,0.6716 -1.5,1.5 0,0.8284 0.6715,1.5 1.5,1.5 0.8284,0 1.5,-0.6716 1.5,-1.5 0,-0.8284 -0.6716,-1.5 -1.5,-1.5 z"
       id="path5272"
       inkscape:connector-curvature="0"
       sodipodi:nodetypes="ssssscccccsssss" />
    <path
       sodipodi:type="arc"
       style="color:#000000;fill:#202020;fill-opacity:1;fill-rule:nonzero;stroke:none;stroke-width:0.055;marker:none;visibility:visible;display:inline;overflow:visible;enable-background:accumulate"
       id="path6057"
       sodipodi:cx="230"
       sodipodi:cy="10"
       sodipodi:rx="3"
       sodipodi:ry="3"
       d="m 233,10 a 3,3 0 1 1 -6,0 3,3 0 1 1 6,0 z"
       transform="translate(-80,1012.3622)" />
    <path
       style="color:#000000;fill:#202020;fill-opacity:1;fill-rule:nonzero;stroke:none;stroke-width:0.055;marker:none;visibility:visible;display:inline;overflow:visible;enable-background:accumulate"
       d="m 172.00004,1017.3622 c -1.108,0 -2,0.892 -2,2 l 0,1 c 0,1.108 -0.892,2 -2,2 l -1,0 c -1.108,0 -2,0.892 -2,2 l 0,3 10,0 0,-10 z"
       id="rect6059"
       inkscape:connector-curvature="0"
       sodipodi:nodetypes="cssssccccc" />
    <path
       sodipodi:nodetypes="ssssscccccsssss"
       inkscape:connector-curvature="0"
       id="path6143"
       d="m 133.50004,1037.3622 c -0.8285,0 -1.5,0.6716 -1.5,1.5 0,0.8284 0.6715,1.5 1.5,1.5 0.8284,0 1.5,-0.6716 1.5,-1.5 0,-0.8284 -0.6716,-1.5 -1.5,-1.5 z m -2.1875,2.25 -4.0625,4.0625 c 0.6371,0.2979 1.1396,0.8003 1.4375,1.4375 l 4.0625,-4.0625 c -0.6372,-0.2979 -1.1397,-0.8003 -1.4375,-1.4375 z m -4.8125,4.75 c -0.8285,0 -1.5,0.6716 -1.5,1.5 0,0.8284 0.6715,1.5 1.5,1.5 0.8284,0 1.5,-0.6716 1.5,-1.5 0,-0.8284 -0.6716,-1.5 -1.5,-1.5 z"
       style="font-size:medium;font-style:normal;font-variant:normal;font-weight:normal;font-stretch:normal;text-indent:0;text-align:start;text-decoration:none;line-height:normal;letter-spacing:normal;word-spacing:normal;text-transform:none;direction:ltr;block-progression:tb;writing-mode:lr-tb;text-anchor:start;baseline-shift:baseline;color:#000000;fill:#ffffff;fill-opacity:1;stroke:none;stroke-width:2;marker:none;visibility:visible;display:inline;overflow:visible;enable-background:accumulate;font-family:Sans;-inkscape-font-specification:Sans" />
    <path
       d="m 233,10 a 3,3 0 1 1 -6,0 3,3 0 1 1 6,0 z"
       sodipodi:ry="3"
       sodipodi:rx="3"
       sodipodi:cy="10"
       sodipodi:cx="230"
       id="path6145"
       style="color:#000000;fill:#ffffff;fill-opacity:1;fill-rule:nonzero;stroke:none;stroke-width:2;marker:none;visibility:visible;display:inline;overflow:visible;enable-background:accumulate"
       sodipodi:type="arc"
       transform="translate(-80,1032.3622)" />
    <path
       sodipodi:nodetypes="cssssccccc"
       inkscape:connector-curvature="0"
       id="path6147"
       d="m 172.00004,1037.3622 c -1.108,0 -2,0.892 -2,2 l 0,1 c 0,1.108 -0.892,2 -2,2 l -1,0 c -1.108,0 -2,0.892 -2,2 l 0,3 10,0 0,-10 z"
       style="color:#000000;fill:#ffffff;fill-opacity:1;fill-rule:nonzero;stroke:none;stroke-width:0;marker:none;visibility:visible;display:inline;overflow:visible;enable-background:accumulate" />
    <path
       style="color:#000000;fill:#202020;fill-opacity:1;fill-rule:nonzero;stroke:none;stroke-width:0.055;marker:none;visibility:visible;display:inline;overflow:visible;enable-background:accumulate"
       d="m 187.50004,1016.3622 c -0.3452,0 -0.685,0.063 -1,0.1563 l 2,2.3437 -2,2 -2.3438,-2 c -0.093,0.315 -0.1562,0.6548 -0.1562,1 0,1.933 1.567,3.5 3.5,3.5 0.4383,0 0.8632,-0.1028 1.25,-0.25 l 3.25,3.25 0,1 1,1 2,0 1,-1 0,-2 -1,-1 -1,0 -3.25,-3.25 c 0.1471,-0.3867 0.25,-0.8116 0.25,-1.25 0,-1.933 -1.567,-3.5 -3.5,-3.5 z m 6.5,9 1,1 -1,1 -1,-1 1,-1 z"
       id="path4012"
       inkscape:connector-curvature="0" />
    <path
       id="path4845"
       d="m 187.50004,1036.3622 c -0.3452,0 -0.685,0.063 -1,0.1563 l 2,2.3437 -2,2 -2.3438,-2 c -0.093,0.315 -0.1562,0.6548 -0.1562,1 0,1.933 1.567,3.5 3.5,3.5 0.4383,0 0.8632,-0.1028 1.25,-0.25 l 3.25,3.25 0,1 1,1 2,0 1,-1 0,-2 -1,-1 -1,0 -3.25,-3.25 c 0.1471,-0.3867 0.25,-0.8116 0.25,-1.25 0,-1.933 -1.567,-3.5 -3.5,-3.5 z m 6.5,9 1,1 -1,1 -1,-1 1,-1 z"
       style="color:#000000;fill:#ffffff;fill-opacity:1;fill-rule:nonzero;stroke:none;stroke-width:0;marker:none;visibility:visible;display:inline;overflow:visible;enable-background:accumulate"
       inkscape:connector-curvature="0" />
    <path
       style="color:#000000;fill:#202020;fill-opacity:1;fill-rule:nonzero;stroke:none;stroke-width:0.055;marker:none;visibility:visible;display:inline;overflow:visible;enable-background:accumulate"
       d="m 225.00004,1016.3622 c -0.554,0 -1,0.446 -1,1 l 0,9 c 0,0.554 0.446,1 1,1 l 10,0 1,0 2.5,-7 -11,0 -2.5,6 1,-7 10,0 c 0,-0.554 -0.446,-1 -1,-1 l -5,0 0,-1 c 0,-0.554 -0.446,-1 -1,-1 z"
       id="rect6315"
       inkscape:connector-curvature="0"
       sodipodi:nodetypes="sssscccccccscsss" />
    <path
       sodipodi:nodetypes="sssscccccccscsss"
       inkscape:connector-curvature="0"
       id="path6338"
       d="m 225.00004,1036.3622 c -0.554,0 -1,0.446 -1,1 l 0,9 c 0,0.554 0.446,1 1,1 l 10,0 1,0 2.5,-7 -11,0 -2.5,6 1,-7 10,0 c 0,-0.554 -0.446,-1 -1,-1 l -5,0 0,-1 c 0,-0.554 -0.446,-1 -1,-1 z"
       style="color:#000000;fill:#ffffff;fill-opacity:1;fill-rule:nonzero;stroke:none;stroke-width:0;marker:none;visibility:visible;display:inline;overflow:visible;enable-background:accumulate" />
    <path
       style="color:#000000;fill:#202020;fill-opacity:1;fill-rule:nonzero;stroke:none;stroke-width:0.055;marker:none;visibility:visible;display:inline;overflow:visible;enable-background:accumulate"
       d="m 85,1017.3622 0,5 2,-2 5,5 -2,2 5,0 0,-5 -2,2 -5,-5 2,-2 z"
       id="path3904"
       inkscape:connector-curvature="0"
       sodipodi:nodetypes="ccccccccccc" />
    <path
       style="color:#000000;fill:#ffffff;fill-opacity:1;fill-rule:nonzero;stroke:none;stroke-width:2;marker:none;visibility:visible;display:inline;overflow:visible;enable-background:accumulate"
       d="m 109.50004,1037.3622 c -0.277,0 -0.5,0.223 -0.5,0.5 l 0,3.5 -3.5,0 c -0.277,0 -0.5,0.223 -0.5,0.5 l 0,1 c 0,0.277 0.223,0.5 0.5,0.5 l 3.5,0 0,3.5 c 0,0.277 0.223,0.5 0.5,0.5 l 1,0 c 0.277,0 0.5,-0.223 0.5,-0.5 l 0,-3.5 3.5,0 c 0.277,0 0.5,-0.223 0.5,-0.5 l 0,-1 c 0,-0.277 -0.223,-0.5 -0.5,-0.5 l -3.5,0 0,-3.5 c 0,-0.277 -0.223,-0.5 -0.5,-0.5 z"
       id="path4922"
       sodipodi:nodetypes="ccccccccccccccccccccc"
       inkscape:connector-curvature="0" />
    <path
       style="color:#000000;fill:#202020;fill-opacity:1;fill-rule:nonzero;stroke:none;stroke-width:0.055;marker:none;visibility:visible;display:inline;overflow:visible;enable-background:accumulate"
       d="m 265.00004,1016.3622 0,12 10,0 0,-9 -2.5,0 0,-3 -7.5,0 z m 8,0 0,2 2,0 -2,-2 z m -3,3 3,3 -2,0 0,4 -2,0 0,-4 -2,0 3,-3 z"
       id="path3901"
       inkscape:connector-curvature="0" />
    <path
       id="path3927"
       d="m 265.00004,1036.3622 0,12 10,0 0,-9 -2.5,0 0,-3 -7.5,0 z m 8,0 0,2 2,0 -2,-2 z m -3,3 3,3 -2,0 0,4 -2,0 0,-4 -2,0 3,-3 z"
       style="color:#000000;fill:#ffffff;fill-opacity:1;fill-rule:nonzero;stroke:none;stroke-width:0.055;marker:none;visibility:visible;display:inline;overflow:visible;enable-background:accumulate"
       inkscape:connector-curvature="0" />
    <path
       style="color:#000000;fill:#202020;fill-opacity:1;fill-rule:nonzero;stroke:none;stroke-width:1;marker:none;visibility:visible;display:inline;overflow:visible;enable-background:accumulate"
       d="m 247.50004,1014.3622 c -0.277,0 -0.5,0.223 -0.5,0.5 l 0,6.5 -0.5,-0.5 c 0,0 -0.9063,-1 -1.6563,-1 -0.75,0 -1.3437,1 -1.3437,1 l 3.5,3.5 c 0,0.7419 0.403,1.3735 1,1.7188 l 0,1.7812 c 0,0.277 0.223,0.5 0.5,0.5 l 5,0 c 0.277,0 0.5,-0.223 0.5,-0.5 l 0,-1.7812 c 0.5969,-0.3453 1,-0.9769 1,-1.7188 l 0,-3 0,-2.5 c 0,-0.277 -0.223,-0.5 -0.5,-0.5 l -0.5,0 c -0.75,0 -0.9532,2.6875 -1,3.5313 l 0,-3.0313 0,-0.5 c 0,0 -0.223,-0.5 -0.5,-0.5 l -0.5,0 c -0.75,0 -0.9532,2.6875 -1,3.5313 l 0,-3.0313 0,-0.5 c 0,0 -0.223,-0.5 -0.5,-0.5 l -0.5,0 c -0.75,0 -0.9532,2.6875 -1,3.5313 l 0,-1.5313 0,-4.5 c 0,-0.277 -0.223,-0.5 -0.5,-0.5 z"
       id="rect3980"
       inkscape:connector-curvature="0"
       sodipodi:nodetypes="ssccscccsssscscsssccsssccsssccsss" />
    <path
       sodipodi:nodetypes="ssccscccsssscscsssccsssccsssccsss"
       inkscape:connector-curvature="0"
       id="path4023"
       d="m 247.50004,1034.3622 c -0.277,0 -0.5,0.223 -0.5,0.5 l 0,6.5 -0.5,-0.5 c 0,0 -0.9063,-1 -1.6563,-1 -0.75,0 -1.3437,1 -1.3437,1 l 3.5,3.5 c 0,0.7419 0.403,1.3735 1,1.7188 l 0,1.7812 c 0,0.277 0.223,0.5 0.5,0.5 l 5,0 c 0.277,0 0.5,-0.223 0.5,-0.5 l 0,-1.7812 c 0.5969,-0.3453 1,-0.9769 1,-1.7188 l 0,-3 0,-2.5 c 0,-0.277 -0.223,-0.5 -0.5,-0.5 l -0.5,0 c -0.75,0 -0.9532,2.6875 -1,3.5313 l 0,-3.0313 0,-0.5 c 0,0 -0.223,-0.5 -0.5,-0.5 l -0.5,0 c -0.75,0 -0.9532,2.6875 -1,3.5313 l 0,-3.0313 0,-0.5 c 0,0 -0.223,-0.5 -0.5,-0.5 l -0.5,0 c -0.75,0 -0.9532,2.6875 -1,3.5313 l 0,-1.5313 0,-4.5 c 0,-0.277 -0.223,-0.5 -0.5,-0.5 z"
       style="color:#000000;fill:#ffffff;fill-opacity:1;fill-rule:nonzero;stroke:none;stroke-width:1;marker:none;visibility:visible;display:inline;overflow:visible;enable-background:accumulate" />
    <path
       style="color:#000000;fill:#202020;fill-opacity:1;fill-rule:nonzero;stroke:none;stroke-width:1;marker:none;visibility:visible;display:inline;overflow:visible;enable-background:accumulate"
       d="m 205.50004,1016.3622 c -0.8285,0 -1.5,0.6716 -1.5,1.5 l 0,1.5 0,2 -1.5,1 1.5,1 0,1 0,2.5 c 0,0.8284 0.6715,1.5 1.5,1.5 l 2.5,0 0,-1.5 -2,0 c -0.277,0 -0.5672,-0.2313 -0.5,-0.5 l 0,-2 0,-2 0,-3 0,-1 c 0,-0.277 0.223,-0.5 0.5,-0.5 l 2,0 0,-1.5 z m 6.5,0 0,1.5 2,0 c 0.277,0 0.6238,0.2522 0.5,0.5 l 0,1 0,3 0,2 0,2 c 0,0.277 -0.223,0.5 -0.5,0.5 l -2,0 0,1.5 2.5,0 c 0.8284,0 1.5,-0.6716 1.5,-1.5 l 0,-2.5 0,-1 1.5,-1 -1.5,-1 0,-2 0,-1.5 c 0,-0.8284 -0.6716,-1.5 -1.5,-1.5 z"
       id="path4025"
       inkscape:connector-curvature="0"
       sodipodi:nodetypes="sscccccssccsscccssccsccsscccssccsscccccssc" />
    <path
       id="path4079"
       d="m 205.50004,1036.3622 c -0.8285,0 -1.5,0.6716 -1.5,1.5 l 0,1.5 0,2 -1.5,1 1.5,1 0,1 0,2.5 c 0,0.8284 0.6715,1.5 1.5,1.5 l 2.5,0 0,-1.5 -2,0 c -0.277,0 -0.5,-0.223 -0.5,-0.5 l 0,-2 0,-2 0,-3 0,-1 c 0,-0.277 0.223,-0.5 0.5,-0.5 l 2,0 0,-1.5 z m 6.5,0 0,1.5 2,0 c 0.277,0 0.5,0.223 0.5,0.5 l 0,1 0,3 0,2 0,2 c 0,0.277 -0.223,0.5 -0.5,0.5 l -2,0 0,1.5 2.5,0 c 0.8284,0 1.6624,-0.6877 1.5,-1.5 l 0,-2.5 0,-1 1.5,-1 -1.5,-1 0,-2 0,-1.5 c 0,-0.8284 -0.6716,-1.5 -1.5,-1.5 z"
       style="color:#000000;fill:#ffffff;fill-opacity:1;fill-rule:nonzero;stroke:none;stroke-width:1;marker:none;visibility:visible;display:inline;overflow:visible;enable-background:accumulate"
       inkscape:connector-curvature="0"
       sodipodi:nodetypes="sscccccssccsscccssccsccsscccssccsscccccssc" />
    <path
       style="color:#000000;fill:#202020;fill-opacity:1;fill-rule:nonzero;stroke:none;stroke-width:0.055;marker:none;visibility:visible;display:inline;overflow:visible;enable-background:accumulate"
       d="m 284,1021.8622 2,-2 3,3 6,-6 2,2 -8,8 z"
       id="path4188"
       inkscape:connector-curvature="0"
       sodipodi:nodetypes="ccccccc" />
    <path
       sodipodi:nodetypes="ccccccc"
       inkscape:connector-curvature="0"
       id="path4209"
       d="m 284,1041.8622 2,-2 3,3 6,-6 2,2 -8,8 z"
       style="color:#000000;fill:#ffffff;fill-opacity:1;fill-rule:nonzero;stroke:none;stroke-width:0.055;marker:none;visibility:visible;display:inline;overflow:visible;enable-background:accumulate" />
    <path
       style="color:#000000;fill:#202020;fill-opacity:1;fill-rule:nonzero;stroke:none;stroke-width:0.055;marker:none;visibility:visible;display:inline;overflow:visible;enable-background:accumulate"
       d="M 5.5,5 C 5.223,5 5,5.223 5,5.5 l 0,1 C 5,6.777 5.223,7 5.5,7 l 9,0 C 14.777,7 15,6.777 15,6.5 l 0,-1 C 15,5.223 14.777,5 14.5,5 l -9,0 z m 0,4 C 5.223,9 5,9.223 5,9.5 l 0,1 C 5,10.777 5.223,11 5.5,11 l 9,0 c 0.277,0 0.5,-0.223 0.5,-0.5 l 0,-1 C 15,9.223 14.777,9 14.5,9 l -9,0 z m 0,4 C 5.223,13 5,13.223 5,13.5 l 0,1 C 5,14.777 5.223,15 5.5,15 l 9,0 c 0.277,0 0.5,-0.223 0.5,-0.5 l 0,-1 C 15,13.223 14.777,13 14.5,13 l -9,0 z"
       transform="translate(0,1012.3622)"
       id="rect4228"
       inkscape:connector-curvature="0" />
    <path
       id="path4252"
       d="m 5.5,1037.3622 c -0.277,0 -0.5,0.223 -0.5,0.5 l 0,1 c 0,0.277 0.223,0.5 0.5,0.5 l 9,0 c 0.277,0 0.5,-0.223 0.5,-0.5 l 0,-1 c 0,-0.277 -0.223,-0.5 -0.5,-0.5 l -9,0 z m 0,4 c -0.277,0 -0.5,0.223 -0.5,0.5 l 0,1 c 0,0.277 0.223,0.5 0.5,0.5 l 9,0 c 0.277,0 0.5,-0.223 0.5,-0.5 l 0,-1 c 0,-0.277 -0.223,-0.5 -0.5,-0.5 l -9,0 z m 0,4 c -0.277,0 -0.5,0.223 -0.5,0.5 l 0,1 c 0,0.277 0.223,0.5 0.5,0.5 l 9,0 c 0.277,0 0.5,-0.223 0.5,-0.5 l 0,-1 c 0,-0.277 -0.223,-0.5 -0.5,-0.5 l -9,0 z"
       style="color:#000000;fill:#ffffff;fill-opacity:1;fill-rule:nonzero;stroke:none;stroke-width:0;marker:none;visibility:visible;display:inline;overflow:visible;enable-background:accumulate"
       inkscape:connector-curvature="0" />
    <path
       sodipodi:nodetypes="ccccccccccccc"
       inkscape:connector-curvature="0"
       id="path4271"
       d="m 67.5,1038.3622 -1.5,1.5 2.5,2.5 -2.5,2.5 1.5,1.5 2.5,-2.5 2.5,2.5 1.5,-1.5 -2.5,-2.5 2.5,-2.5 -1.5,-1.5 -2.5,2.5 z"
       style="color:#000000;fill:#ffffff;fill-opacity:1;fill-rule:nonzero;stroke:none;stroke-width:0.05500000000000000;marker:none;visibility:visible;display:inline;overflow:visible;enable-background:accumulate" />
  </g>
</svg>
