<?xml version="1.0" encoding="UTF-8" standalone="no"?>
<!-- Created with Inkscape (http://www.inkscape.org/) -->

<svg
   xmlns:dc="http://purl.org/dc/elements/1.1/"
   xmlns:cc="http://creativecommons.org/ns#"
   xmlns:rdf="http://www.w3.org/1999/02/22-rdf-syntax-ns#"
   xmlns:svg="http://www.w3.org/2000/svg"
   xmlns="http://www.w3.org/2000/svg"
   xmlns:sodipodi="http://sodipodi.sourceforge.net/DTD/sodipodi-0.dtd"
   xmlns:inkscape="http://www.inkscape.org/namespaces/inkscape"
   width="60"
   height="200"
   id="svg4540"
   version="1.1"
   inkscape:version="0.48.2 r9819"
   sodipodi:docname="thumb.svg"
   inkscape:export-filename="./thumb.png"
   inkscape:export-xdpi="90"
   inkscape:export-ydpi="90">
  <defs
     id="defs4542" />
  <sodipodi:namedview
     id="base"
     pagecolor="#ffffff"
     bordercolor="#666666"
     borderopacity="1.0"
     inkscape:pageopacity="0.0"
     inkscape:pageshadow="2"
     inkscape:zoom="1"
     inkscape:cx="51.685537"
     inkscape:cy="39.820294"
     inkscape:document-units="px"
     inkscape:current-layer="layer1"
     showgrid="false"
     inkscape:window-width="1280"
     inkscape:window-height="756"
     inkscape:window-x="1"
     inkscape:window-y="0"
     inkscape:window-maximized="0">
    <inkscape:grid
       type="xygrid"
       id="grid4572"
       empspacing="5"
       visible="true"
       enabled="true"
       snapvisiblegridlinesonly="true" />
  </sodipodi:namedview>
  <metadata
     id="metadata4545">
    <rdf:RDF>
      <cc:Work
         rdf:about="">
        <dc:format>image/svg+xml</dc:format>
        <dc:type
           rdf:resource="http://purl.org/dc/dcmitype/StillImage" />
        <dc:title />
      </cc:Work>
    </rdf:RDF>
  </metadata>
  <g
     inkscape:label="Layer 1"
     inkscape:groupmode="layer"
     id="layer1"
     transform="translate(0,-852.36218)"
     style="display:inline">
    <path
       style="color:#000000;fill:#000000;fill-opacity:0.1254902;fill-rule:nonzero;stroke:none;stroke-width:2;marker:none;visibility:visible;display:inline;overflow:visible;enable-background:accumulate"
       d="m 0,922.36218 0,60.00002 60,0 0,-60.00002 -60,0 z m 10,10.00002 19,0 0,19 -19,0 0,-19 z m 21,0 19,0 0,19 -19,0 0,-19 z m -15,4 c -1.10457,0 -2,0.8954 -2,2 0,1.1045 0.89543,2 2,2 0.83878,0 1.54669,-0.5178 1.84375,-1.25 l 3.3125,0 c 0.20293,0.5002 0.59358,0.8908 1.09375,1.0937 l 0,3.3125 c -0.73218,0.2971 -1.25,1.005 -1.25,1.8438 0,1.1045 0.89543,2 2,2 1.10457,0 2,-0.8955 2,-2 0,-0.8388 -0.51782,-1.5467 -1.25,-1.8438 l 0,-3.3125 c 0.73218,-0.297 1.25,-1.0049 1.25,-1.8437 0,-1.1046 -0.89543,-2 -2,-2 -0.83878,0 -1.54669,0.5178 -1.84375,1.25 l -3.3125,0 C 17.54669,936.88 16.83878,936.3622 16,936.3622 z m 28,0 c -1.10457,0 -2,0.8954 -2,2 0,1.1045 0.89543,2 2,2 1.10457,0 2,-0.8955 2,-2 0,-1.1046 -0.89543,-2 -2,-2 z m -7,7 c -1.10457,0 -2,0.8954 -2,2 0,1.1045 0.89543,2 2,2 1.10457,0 2,-0.8955 2,-2 0,-1.1046 -0.89543,-2 -2,-2 z m -27,10 19,0 0,19 -19,0 0,-19 z m 21,0 19,0 0,19 -19,0 0,-19 z m -15,4 c -1.10457,0 -2,0.8954 -2,2 0,1.1045 0.89543,2 2,2 0.83878,0 1.54669,-0.5178 1.84375,-1.25 l 3.3125,0 c 0.29706,0.7322 1.00497,1.25 1.84375,1.25 1.10457,0 2,-0.8955 2,-2 0,-1.1046 -0.89543,-2 -2,-2 -0.83878,0 -1.54669,0.5178 -1.84375,1.25 l -3.3125,0 C 17.54669,957.88 16.83878,957.3622 16,957.3622 z m 28,0 c -1.10457,0 -2,0.8954 -2,2 0,0.2761 0.055,0.542 0.15625,0.7812 l -4.375,4.375 C 37.54197,964.4172 37.27614,964.3622 37,964.3622 c -1.10457,0 -2,0.8954 -2,2 0,1.1045 0.89543,2 2,2 0.83878,0 1.54669,-0.5178 1.84375,-1.25 l 3.3125,0 c 0.29706,0.7322 1.00497,1.25 1.84375,1.25 1.10457,0 2,-0.8955 2,-2 0,-0.8388 -0.51782,-1.5467 -1.25,-1.8438 l 0,-3.3125 c 0.73218,-0.297 1.25,-1.0049 1.25,-1.8437 0,-1.1046 -0.89543,-2 -2,-2 z m -0.78125,3.8437 0.0312,0 0,3.3125 c -0.50017,0.203 -0.89082,0.5936 -1.09375,1.0938 l -3.3125,0 4.375,-4.4063 z M 16,964.3622 c -1.10457,0 -2,0.8954 -2,2 0,1.1045 0.89543,2 2,2 0.83878,0 1.54669,-0.5178 1.84375,-1.25 l 3.3125,0 c 0.29706,0.7322 1.00497,1.25 1.84375,1.25 1.10457,0 2,-0.8955 2,-2 0,-1.1046 -0.89543,-2 -2,-2 -0.83878,0 -1.54669,0.5178 -1.84375,1.25 l -3.3125,0 C 17.54669,964.88 16.83878,964.3622 16,964.3622 z"
       id="path5117"
       inkscape:connector-curvature="0" />
    <path
       style="color:#000000;fill:#ffffff;fill-opacity:0.25098039;fill-rule:nonzero;stroke:none;stroke-width:40;marker:none;visibility:visible;display:inline;overflow:visible;enable-background:accumulate"
       d="m 10,932.3622 0,19 19,0 0,-19 -19,0 z m 21,0 0,19 19,0 0,-19 -19,0 z m -15,4 c 0.83878,0 1.54669,0.5178 1.84375,1.25 l 3.3125,0 c 0.29706,-0.7322 1.00497,-1.25 1.84375,-1.25 1.10457,0 2,0.8954 2,2 0,0.8388 -0.51782,1.5467 -1.25,1.8437 l 0,3.3125 c 0.73218,0.2971 1.25,1.005 1.25,1.8438 0,1.1045 -0.89543,2 -2,2 -1.10457,0 -2,-0.8955 -2,-2 0,-0.8388 0.51782,-1.5467 1.25,-1.8438 l 0,-3.3125 c -0.50017,-0.2029 -0.89082,-0.5935 -1.09375,-1.0937 l -3.3125,0 c -0.29706,0.7322 -1.00497,1.25 -1.84375,1.25 -1.10457,0 -2,-0.8955 -2,-2 0,-1.1046 0.89543,-2 2,-2 z m 28,0 c 1.10457,0 2,0.8954 2,2 0,1.1045 -0.89543,2 -2,2 -1.10457,0 -2,-0.8955 -2,-2 0,-1.1046 0.89543,-2 2,-2 z m -7,7 c 1.10457,0 2,0.8954 2,2 0,1.1045 -0.89543,2 -2,2 -1.10457,0 -2,-0.8955 -2,-2 0,-1.1046 0.89543,-2 2,-2 z m -27,10 0,19 19,0 0,-19 -19,0 z m 21,0 0,19 19,0 0,-19 -19,0 z m -15,4 c 0.83878,0 1.54669,0.5178 1.84375,1.25 l 3.3125,0 c 0.29706,-0.7322 1.00497,-1.25 1.84375,-1.25 1.10457,0 2,0.8954 2,2 0,1.1045 -0.89543,2 -2,2 -0.83878,0 -1.54669,-0.5178 -1.84375,-1.25 l -3.3125,0 c -0.29706,0.7322 -1.00497,1.25 -1.84375,1.25 -1.10457,0 -2,-0.8955 -2,-2 0,-1.1046 0.89543,-2 2,-2 z m 28,0 c 1.10457,0 2,0.8954 2,2 0,0.8388 -0.51782,1.5467 -1.25,1.8437 l 0,3.3125 c 0.73218,0.2971 1.25,1.005 1.25,1.8438 0,1.1045 -0.89543,2 -2,2 -0.83878,0 -1.54669,-0.5178 -1.84375,-1.25 l -3.3125,0 c -0.29706,0.7322 -1.00497,1.25 -1.84375,1.25 -1.10457,0 -2,-0.8955 -2,-2 0,-1.1046 0.89543,-2 2,-2 0.27614,0 0.54197,0.055 0.78125,0.1562 l 4.375,-4.375 C 42.05504,959.9042 42,959.6383 42,959.3622 c 0,-1.1046 0.89543,-2 2,-2 z m -0.78125,3.8437 -4.375,4.4063 3.3125,0 c 0.20293,-0.5002 0.59358,-0.8908 1.09375,-1.0938 l 0,-3.3125 -0.0312,0 z M 16,964.3622 c 0.83878,0 1.54669,0.5178 1.84375,1.25 l 3.3125,0 c 0.29706,-0.7322 1.00497,-1.25 1.84375,-1.25 1.10457,0 2,0.8954 2,2 0,1.1045 -0.89543,2 -2,2 -0.83878,0 -1.54669,-0.5178 -1.84375,-1.25 l -3.3125,0 c -0.29706,0.7322 -1.00497,1.25 -1.84375,1.25 -1.10457,0 -2,-0.8955 -2,-2 0,-1.1046 0.89543,-2 2,-2 z"
       id="rect3986"
       inkscape:connector-curvature="0" />
    <path
       style="color:#000000;fill:#000000;fill-opacity:0.1254902;fill-rule:nonzero;stroke:none;stroke-width:2;marker:none;visibility:visible;display:inline;overflow:visible;enable-background:accumulate"
       d="m 0,852.36218 0,60.00002 60,0 0,-60.00002 -60,0 z m 30,10.00002 c 11.04569,0 20,8.9543 20,20 0,10.0208 -7.38492,18.3273 -17,19.7812 l 0,-3.7812 c 0,-4 -1,-5 -1,-8 l 0,-4 -4,0 0,4 c 0,3 -1,4 -1,8 l 0,3.7812 c -9.615076,-1.4539 -17,-9.7604 -17,-19.7812 0,-11.0457 8.954305,-20 20,-20 z m 6,5 c 0,0 -6.730545,0.5292 -10.5,6.75 -0.929003,1.5332 -1.5,3.2872 -1.5,5.25 0,0.2588 0.01969,0.5041 0.0625,0.75 0.09135,0.5243 0.274175,1.0271 0.5,1.5 1.03245,2.2249 3.4375,3.75 3.4375,3.75 l 4,0 c 0,0 2.40505,-1.5251 3.4375,-3.75 0.224925,-0.471 0.40835,-0.9786 0.5,-1.5 0.0435,-0.2476 0.0625,-0.5011 0.0625,-0.75 0,-3 -1.5,-4.18 -1.5,-6 0,-3.8822 1.5,-6 1.5,-6 z"
       id="path4576"
       inkscape:connector-curvature="0" />
    <path
       style="color:#000000;fill:#ffffff;fill-opacity:0.25098039;fill-rule:nonzero;stroke:none;stroke-width:40;marker:none;visibility:visible;display:inline;overflow:visible;enable-background:accumulate"
       d="m 30,862.3622 c -11.045695,0 -20,8.9543 -20,20 0,10.0208 7.384924,18.3273 17,19.7812 l 0,-3.7812 c 0,-4 1,-5 1,-8 l 0,-4 4,0 0,4 c 0,3 1,4 1,8 l 0,3.7812 c 9.61508,-1.4539 17,-9.7604 17,-19.7812 0,-11.0457 -8.95431,-20 -20,-20 z m 6,5 c 0,0 -1.5,2.1178 -1.5,6 0,1.82 1.5,3 1.5,6 0,0.2489 -0.019,0.5024 -0.0625,0.75 -0.09165,0.5214 -0.275075,1.029 -0.5,1.5 -1.03245,2.2249 -3.4375,3.75 -3.4375,3.75 l -4,0 c 0,0 -2.40505,-1.5251 -3.4375,-3.75 -0.225825,-0.4729 -0.40865,-0.9757 -0.5,-1.5 C 24.01969,879.8663 24,879.621 24,879.3622 c 0,-1.9628 0.570997,-3.7168 1.5,-5.25 3.769455,-6.2208 10.5,-6.75 10.5,-6.75 z"
       id="path5120"
       inkscape:connector-curvature="0" />
    <path
       inkscape:connector-curvature="0"
       style="color:#000000;fill:#000000;fill-opacity:0.1254902;fill-rule:nonzero;stroke:none;stroke-width:2;marker:none;visibility:visible;display:inline;overflow:visible;enable-background:accumulate"
       d="m 0,992.36218 0,60.00002 60,0 0,-60.00002 z"
       id="rect3744"
       sodipodi:nodetypes="ccccc" />
    <path
       inkscape:connector-curvature="0"
       d="m 14,1004.916 0,35.4462 6.153846,0 0,-26.8308 9.846154,16.6597 9.84615,-16.6597 0,26.8308 6.15385,0 0,-35.4462 -4.43077,0 c -2.14765,0 -4.25858,0.6475 -5.277026,2.379 L 30,1017.9768 23.707791,1007.295 c -1.018442,-1.7315 -3.129369,-2.379 -5.277022,-2.379 z"
       id="path6294"
       style="font-size:medium;font-style:normal;font-variant:normal;font-weight:normal;font-stretch:normal;text-indent:0;text-align:start;text-decoration:none;line-height:normal;letter-spacing:normal;word-spacing:normal;text-transform:none;direction:ltr;block-progression:tb;writing-mode:lr-tb;text-anchor:start;baseline-shift:baseline;color:#000000;fill:#ffffff;fill-opacity:1;fill-rule:nonzero;stroke:none;stroke-width:2;marker:none;visibility:visible;display:inline;overflow:visible;enable-background:accumulate;font-family:Sans;-inkscape-font-specification:Sans" />
  </g>
</svg>
