<?xml version="1.0" encoding="UTF-8" standalone="no"?>
<!-- Created with Inkscape (http://www.inkscape.org/) -->

<svg
   xmlns:dc="http://purl.org/dc/elements/1.1/"
   xmlns:cc="http://creativecommons.org/ns#"
   xmlns:rdf="http://www.w3.org/1999/02/22-rdf-syntax-ns#"
   xmlns:svg="http://www.w3.org/2000/svg"
   xmlns="http://www.w3.org/2000/svg"
   xmlns:sodipodi="http://sodipodi.sourceforge.net/DTD/sodipodi-0.dtd"
   xmlns:inkscape="http://www.inkscape.org/namespaces/inkscape"
   width="60"
   height="200"
   id="svg4540"
   version="1.1"
   inkscape:version="0.48.3.1 r9886"
   sodipodi:docname="thumb.svg"
   inkscape:export-filename="./thumb.png"
   inkscape:export-xdpi="90"
   inkscape:export-ydpi="90">
  <defs
     id="defs4542" />
  <sodipodi:namedview
     id="base"
     pagecolor="#ffffff"
     bordercolor="#666666"
     borderopacity="1.0"
     inkscape:pageopacity="0.0"
     inkscape:pageshadow="2"
     inkscape:zoom="1.25"
     inkscape:cx="23.75334"
     inkscape:cy="63.304059"
     inkscape:document-units="px"
     inkscape:current-layer="layer1"
     showgrid="true">
    <inkscape:grid
       type="xygrid"
       id="grid4572"
       empspacing="5"
       visible="true"
       enabled="true"
       snapvisiblegridlinesonly="true" />
  </sodipodi:namedview>
  <metadata
     id="metadata4545">
    <rdf:RDF>
      <cc:Work
         rdf:about="">
        <dc:format>image/svg+xml</dc:format>
        <dc:type
           rdf:resource="http://purl.org/dc/dcmitype/StillImage" />
        <dc:title />
      </cc:Work>
    </rdf:RDF>
  </metadata>
  <g
     inkscape:label="Layer 1"
     inkscape:groupmode="layer"
     id="layer1"
     transform="translate(0,-852.36218)"
     style="display:inline">
    <g
       id="g5257"
       transform="translate(-60,-70)">
      <path
         inkscape:connector-curvature="0"
         id="path5117"
         d="m 60,992.36218 0,60.00002 60,0 0,-60.00002 -60,0 z m 10,10.00002 19,0 0,19 -19,0 0,-19 z m 21,0 19,0 0,19 -19,0 0,-19 z m -15,4 c -1.10457,0 -2,0.8954 -2,2 0,1.1045 0.89543,2 2,2 0.83878,0 1.54669,-0.5178 1.84375,-1.25 l 3.3125,0 c 0.20293,0.5002 0.59358,0.8908 1.09375,1.0937 l 0,3.3125 c -0.73218,0.2971 -1.25,1.005 -1.25,1.8438 0,1.1045 0.89543,2 2,2 1.10457,0 2,-0.8955 2,-2 0,-0.8388 -0.51782,-1.5467 -1.25,-1.8438 l 0,-3.3125 c 0.73218,-0.297 1.25,-1.0049 1.25,-1.8437 0,-1.1046 -0.89543,-2 -2,-2 -0.83878,0 -1.54669,0.5178 -1.84375,1.25 l -3.3125,0 c -0.29706,-0.7322 -1.00497,-1.25 -1.84375,-1.25 z m 28,0 c -1.10457,0 -2,0.8954 -2,2 0,1.1045 0.89543,2 2,2 1.10457,0 2,-0.8955 2,-2 0,-1.1046 -0.89543,-2 -2,-2 z m -7,7 c -1.10457,0 -2,0.8954 -2,2 0,1.1045 0.89543,2 2,2 1.10457,0 2,-0.8955 2,-2 0,-1.1046 -0.89543,-2 -2,-2 z m -27,10 19,0 0,19 -19,0 0,-19 z m 21,0 19,0 0,19 -19,0 0,-19 z m -15,4 c -1.10457,0 -2,0.8954 -2,2 0,1.1045 0.89543,2 2,2 0.83878,0 1.54669,-0.5178 1.84375,-1.25 l 3.3125,0 c 0.29706,0.7322 1.00497,1.25 1.84375,1.25 1.10457,0 2,-0.8955 2,-2 0,-1.1046 -0.89543,-2 -2,-2 -0.83878,0 -1.54669,0.5178 -1.84375,1.25 l -3.3125,0 c -0.29706,-0.7322 -1.00497,-1.25 -1.84375,-1.25 z m 28,0 c -1.10457,0 -2,0.8954 -2,2 0,0.2761 0.055,0.542 0.15625,0.7812 l -4.375,4.375 c -0.23928,-0.1012 -0.50511,-0.1562 -0.78125,-0.1562 -1.10457,0 -2,0.8954 -2,2 0,1.1045 0.89543,2 2,2 0.83878,0 1.54669,-0.5178 1.84375,-1.25 l 3.3125,0 c 0.29706,0.7322 1.00497,1.25 1.84375,1.25 1.10457,0 2,-0.8955 2,-2 0,-0.8388 -0.51782,-1.5467 -1.25,-1.8438 l 0,-3.3125 c 0.73218,-0.297 1.25,-1.0049 1.25,-1.8437 0,-1.1046 -0.89543,-2 -2,-2 z m -0.78125,3.8437 0.0312,0 0,3.3125 c -0.50017,0.203 -0.89082,0.5936 -1.09375,1.0938 l -3.3125,0 4.375,-4.4063 z M 76,1034.3622 c -1.10457,0 -2,0.8954 -2,2 0,1.1045 0.89543,2 2,2 0.83878,0 1.54669,-0.5178 1.84375,-1.25 l 3.3125,0 c 0.29706,0.7322 1.00497,1.25 1.84375,1.25 1.10457,0 2,-0.8955 2,-2 0,-1.1046 -0.89543,-2 -2,-2 -0.83878,0 -1.54669,0.5178 -1.84375,1.25 l -3.3125,0 c -0.29706,-0.7322 -1.00497,-1.25 -1.84375,-1.25 z"
         style="color:#000000;fill:#000000;fill-opacity:0.1254902;fill-rule:nonzero;stroke:none;stroke-width:2;marker:none;visibility:visible;display:inline;overflow:visible;enable-background:accumulate" />
      <path
         inkscape:connector-curvature="0"
         id="rect3986"
         d="m 70,1002.3622 0,19 19,0 0,-19 -19,0 z m 21,0 0,19 19,0 0,-19 -19,0 z m -15,4 c 0.83878,0 1.54669,0.5178 1.84375,1.25 l 3.3125,0 c 0.29706,-0.7322 1.00497,-1.25 1.84375,-1.25 1.10457,0 2,0.8954 2,2 0,0.8388 -0.51782,1.5467 -1.25,1.8437 l 0,3.3125 c 0.73218,0.2971 1.25,1.005 1.25,1.8438 0,1.1045 -0.89543,2 -2,2 -1.10457,0 -2,-0.8955 -2,-2 0,-0.8388 0.51782,-1.5467 1.25,-1.8438 l 0,-3.3125 c -0.50017,-0.2029 -0.89082,-0.5935 -1.09375,-1.0937 l -3.3125,0 c -0.29706,0.7322 -1.00497,1.25 -1.84375,1.25 -1.10457,0 -2,-0.8955 -2,-2 0,-1.1046 0.89543,-2 2,-2 z m 28,0 c 1.10457,0 2,0.8954 2,2 0,1.1045 -0.89543,2 -2,2 -1.10457,0 -2,-0.8955 -2,-2 0,-1.1046 0.89543,-2 2,-2 z m -7,7 c 1.10457,0 2,0.8954 2,2 0,1.1045 -0.89543,2 -2,2 -1.10457,0 -2,-0.8955 -2,-2 0,-1.1046 0.89543,-2 2,-2 z m -27,10 0,19 19,0 0,-19 -19,0 z m 21,0 0,19 19,0 0,-19 -19,0 z m -15,4 c 0.83878,0 1.54669,0.5178 1.84375,1.25 l 3.3125,0 c 0.29706,-0.7322 1.00497,-1.25 1.84375,-1.25 1.10457,0 2,0.8954 2,2 0,1.1045 -0.89543,2 -2,2 -0.83878,0 -1.54669,-0.5178 -1.84375,-1.25 l -3.3125,0 c -0.29706,0.7322 -1.00497,1.25 -1.84375,1.25 -1.10457,0 -2,-0.8955 -2,-2 0,-1.1046 0.89543,-2 2,-2 z m 28,0 c 1.10457,0 2,0.8954 2,2 0,0.8388 -0.51782,1.5467 -1.25,1.8437 l 0,3.3125 c 0.73218,0.2971 1.25,1.005 1.25,1.8438 0,1.1045 -0.89543,2 -2,2 -0.83878,0 -1.54669,-0.5178 -1.84375,-1.25 l -3.3125,0 c -0.29706,0.7322 -1.00497,1.25 -1.84375,1.25 -1.10457,0 -2,-0.8955 -2,-2 0,-1.1046 0.89543,-2 2,-2 0.27614,0 0.54197,0.055 0.78125,0.1562 l 4.375,-4.375 C 102.05504,1029.9042 102,1029.6383 102,1029.3622 c 0,-1.1046 0.89543,-2 2,-2 z m -0.78125,3.8437 -4.375,4.4063 3.3125,0 c 0.20293,-0.5002 0.59358,-0.8908 1.09375,-1.0938 l 0,-3.3125 -0.0312,0 z M 76,1034.3622 c 0.83878,0 1.54669,0.5178 1.84375,1.25 l 3.3125,0 c 0.29706,-0.7322 1.00497,-1.25 1.84375,-1.25 1.10457,0 2,0.8954 2,2 0,1.1045 -0.89543,2 -2,2 -0.83878,0 -1.54669,-0.5178 -1.84375,-1.25 l -3.3125,0 c -0.29706,0.7322 -1.00497,1.25 -1.84375,1.25 -1.10457,0 -2,-0.8955 -2,-2 0,-1.1046 0.89543,-2 2,-2 z"
         style="color:#000000;fill:#ffffff;fill-opacity:0.25098039;fill-rule:nonzero;stroke:none;stroke-width:40;marker:none;visibility:visible;display:inline;overflow:visible;enable-background:accumulate" />
    </g>
    <g
       id="g5261"
       transform="translate(0,-140)">
      <path
         inkscape:connector-curvature="0"
         id="path4576"
         d="m 0,992.36218 0,60.00002 60,0 0,-60.00002 -60,0 z m 30,10.00002 c 11.04569,0 20,8.9543 20,20 0,10.0208 -7.38492,18.3273 -17,19.7812 l 0,-3.7812 c 0,-4 -1,-5 -1,-8 l 0,-4 -4,0 0,4 c 0,3 -1,4 -1,8 l 0,3.7812 c -9.615076,-1.4539 -17,-9.7604 -17,-19.7812 0,-11.0457 8.954305,-20 20,-20 z m 6,5 c 0,0 -6.730545,0.5292 -10.5,6.75 -0.929003,1.5332 -1.5,3.2872 -1.5,5.25 0,0.2588 0.01969,0.5041 0.0625,0.75 0.09135,0.5243 0.274175,1.0271 0.5,1.5 1.03245,2.2249 3.4375,3.75 3.4375,3.75 l 4,0 c 0,0 2.40505,-1.5251 3.4375,-3.75 0.224925,-0.471 0.40835,-0.9786 0.5,-1.5 0.0435,-0.2476 0.0625,-0.5011 0.0625,-0.75 0,-3 -1.5,-4.18 -1.5,-6 0,-3.8822 1.5,-6 1.5,-6 z"
         style="color:#000000;fill:#000000;fill-opacity:0.1254902;fill-rule:nonzero;stroke:none;stroke-width:2;marker:none;visibility:visible;display:inline;overflow:visible;enable-background:accumulate" />
      <path
         inkscape:connector-curvature="0"
         id="path5120"
         d="m 30,1002.3622 c -11.045695,0 -20,8.9543 -20,20 0,10.0208 7.384924,18.3273 17,19.7812 l 0,-3.7812 c 0,-4 1,-5 1,-8 l 0,-4 4,0 0,4 c 0,3 1,4 1,8 l 0,3.7812 c 9.61508,-1.4539 17,-9.7604 17,-19.7812 0,-11.0457 -8.95431,-20 -20,-20 z m 6,5 c 0,0 -1.5,2.1178 -1.5,6 0,1.82 1.5,3 1.5,6 0,0.2489 -0.019,0.5024 -0.0625,0.75 -0.09165,0.5214 -0.275075,1.029 -0.5,1.5 -1.03245,2.2249 -3.4375,3.75 -3.4375,3.75 l -4,0 c 0,0 -2.40505,-1.5251 -3.4375,-3.75 -0.225825,-0.4729 -0.40865,-0.9757 -0.5,-1.5 -0.04281,-0.2459 -0.0625,-0.4912 -0.0625,-0.75 0,-1.9628 0.570997,-3.7168 1.5,-5.25 3.769455,-6.2208 10.5,-6.75 10.5,-6.75 z"
         style="color:#000000;fill:#ffffff;fill-opacity:0.25098039;fill-rule:nonzero;stroke:none;stroke-width:40;marker:none;visibility:visible;display:inline;overflow:visible;enable-background:accumulate" />
    </g>
    <g
       id="g5253">
      <path
         id="rect3744"
         transform="translate(0,992.36218)"
         d="M 0,0 0,60 60,60 60,0 0,0 z m 30,10.4375 c 0.292634,0 0.586777,0.07945 0.84375,0.21875 l 16.25,9.125 c 0.274515,0.1508 0.496653,0.3559 0.65625,0.625 0.159605,0.2693 0.249522,0.59305 0.25,0.90625 l 0,17.78125 c -10e-4,0.6264 -0.357219,1.22985 -0.90625,1.53125 l -16.25,8.71875 C 30.585416,49.48585 30.294544,49.5625 30,49.5625 c -0.294541,0 -0.585416,-0.07625 -0.84375,-0.21875 L 12.90625,40.625 C 12.357216,40.3236 12.0011,39.72015 12,39.09375 L 12,21.3125 c 5.15e-4,-0.3131 0.09039,-0.63695 0.25,-0.90625 0.159606,-0.2691 0.381732,-0.4747 0.65625,-0.625 l 16.25,-9.125 C 29.416443,10.51425 29.703701,10.4375 30,10.4375 z m 0.34375,4.21875 C 30.120123,14.65375 30,14.8684 30,15.125 l 0,3.4375 c 0,0.3366 0.09722,0.47595 0.25,0.65625 l 1.09375,1.375 0.21875,0 c 0.520479,0 0.78125,-0.1591 0.78125,-0.6875 l 0,-0.28125 1.1875,-0.25 c 0.260444,-0.1482 0.375,-0.37975 0.375,-0.71875 l 0,-1.5625 c 0,-0.3431 -0.106797,-0.57005 -0.375,-0.71875 -0.967362,-0.5369 -1.968444,-1.12265 -2.9375,-1.65625 -0.09804,-0.053 -0.17545,-0.0618 -0.25,-0.0625 z m -2.1875,0.78125 c -0.05658,-0.004 -0.11803,0.0255 -0.1875,0.0625 l -1.15625,0.59375 c -0.259421,0.1298 -0.34375,0.38325 -0.34375,0.71875 l 0,2 c 0,0.3294 0.242775,0.38855 0.4375,0.15625 L 27.125,18.75 28.28125,17.40625 C 28.37913,17.27835 28.4375,17.1407 28.4375,16.875 l 0,-0.96875 c 0,-0.2808 -0.111512,-0.45275 -0.28125,-0.46875 z m -3.1875,1.75 c -0.06242,0.005 -0.12249,0.05775 -0.1875,0.09375 0,0 -5.425564,2.9383 -8.15625,4.4375 L 16.28125,21.875 c -0.268668,0.148 -0.375,0.4067 -0.375,0.75 l 0,0.5 0,1.46875 0,1 0,8.6875 c 0,0.3472 0.106317,0.57005 0.375,0.71875 l 4.65625,2.5625 -1.5625,1.875 0,0.21875 c 0,0.3434 0.07508,0.603 0.34375,0.75 l 6.625,3.625 c 0.151946,0.083 0.375057,0.11725 0.53125,0.03125 l 1.28125,-0.625 c 0.217702,-0.1187 0.27098,-0.35625 0.28125,-0.65625 l 0,-0.65625 c 0,-0.3432 -0.10631,-0.57165 -0.375,-0.71875 L 25.15625,39.875 c 0,0 -0.480217,-1.34765 -1.15625,-1.71875 l -3.6875,-2.03125 0,-1.3125 c 0,-0.3431 -0.10686,-0.5388 -0.375,-0.6875 -0.701138,-0.3895 -1.390876,-0.76985 -2.09375,-1.15625 l 1.84375,-2.25 c 0.965803,0.5356 1.783631,0.98175 2.78125,1.53125 0.181173,0.0997 0.358831,0.04855 0.53125,-0.15625 1.428989,-1.6831 2.831796,-3.3702 4.25,-5.0625 L 29.40625,25.8125 27.75,23.84375 l -1.78125,1 c -0.380617,0.2104 -0.375,0.42905 -0.375,0.78125 l 0,1.28125 -0.875,-0.5 0,-0.375 c 0,-0.3433 -0.106319,-0.57005 -0.375,-0.71875 l -1.8125,-0.96875 c -0.451345,-0.2445 -0.342745,-0.5097 0.09375,-0.75 l 2.25,-1.21875 1.1875,1.4375 1.125,-0.625 0,-0.625 c 0,-0.3433 -0.106325,-0.57165 -0.375,-0.71875 l -1.5,-0.875 0,-3.375 c 0,-0.2969 -0.156489,-0.42225 -0.34375,-0.40625 z m 14.625,2.53125 c -0.110108,0 -0.215158,0.041 -0.375,0.125 -0.370949,0.2035 -0.702955,0.41175 -1.03125,0.59375 -0.268197,0.1488 -0.375,0.37555 -0.375,0.71875 l 0,2.9375 -2.78125,1.4375 C 34.745979,25.68855 34.686862,26.0038 34.6875,26.25 l 0,1.9375 c 0,0 -0.64009,0.404 -0.8125,0.5 -0.268379,0.1484 -0.34375,0.37555 -0.34375,0.71875 l 0,0.96875 c 0,0.3522 0.335325,0.71875 0.6875,0.71875 l 1.0625,0 0.8125,-2.34375 2.0625,-1.125 c 0.191665,-0.0778 0.390078,-0.04865 0.5625,0.15625 L 39.25,28.4375 c 0.195601,0.227 0.406193,0.21435 0.625,0.09375 l 1.875,-1.09375 0,2.125 -4.5,2.59375 -1.96875,-1.0625 -2.59375,3.34375 c -0.247748,0.2953 -0.374521,0.5883 -0.375,0.875 -0.0016,0.8579 0.02935,1.68955 0.03125,2.53125 0,0.3433 0.109797,0.56375 0.375,0.71875 0.517737,0.3008 0.813537,0.58595 1.28125,0.84375 0.264929,0.1456 0.417297,0.1377 0.6875,0 0.529599,-0.2684 1.065369,-0.5828 1.59375,-0.875 0.715793,0.8668 1.453392,1.71145 2.09375,2.46875 0.179989,0.213 0.39117,0.2366 0.59375,0.125 l 4.75,-2.625 c 0.268727,-0.148 0.375,-0.37565 0.375,-0.71875 l 0,-4.4375 c 0,-0.3543 -0.113132,-0.45665 -0.28125,-0.65625 l -1.71875,-2.03125 0.75,-0.4375 c 0.219183,-0.1199 0.397699,-0.1072 0.59375,0.125 l 0.65625,0.75 0,-8.46875 c 0,-0.3431 -0.10632,-0.6013 -0.375,-0.75 C 42.48227,21.1952 41.234986,20.52645 40,19.84375 c -0.184039,-0.0961 -0.300302,-0.125 -0.40625,-0.125 z"
         style="color:#000000;fill:#000000;fill-opacity:0.1254902;fill-rule:nonzero;stroke:none;stroke-width:2;marker:none;visibility:visible;display:inline;overflow:visible;enable-background:accumulate"
         inkscape:connector-curvature="0" />
      <path
         style="font-size:medium;font-style:normal;font-variant:normal;font-weight:normal;font-stretch:normal;text-indent:0;text-align:start;text-decoration:none;line-height:normal;letter-spacing:normal;word-spacing:normal;text-transform:none;direction:ltr;block-progression:tb;writing-mode:lr-tb;text-anchor:start;baseline-shift:baseline;color:#000000;fill:#ffffff;fill-opacity:0.25098039;fill-rule:nonzero;stroke:none;stroke-width:40;marker:none;visibility:visible;display:inline;overflow:visible;enable-background:accumulate;font-family:Sans;-inkscape-font-specification:Sans"
         d="m 30,1002.7897 c -0.296299,0 -0.595785,0.078 -0.855978,0.22 l -16.23913,9.1369 c -0.274518,0.1503 -0.500721,0.3667 -0.660327,0.6358 -0.159605,0.2693 -0.24405,0.5918 -0.244565,0.9049 l 0,17.7554 c 0.0011,0.6264 0.355858,1.2394 0.904892,1.5408 l 16.23913,8.731 c 0.258334,0.1425 0.561437,0.2201 0.855978,0.2201 0.294544,0 0.597644,-0.078 0.855978,-0.2201 l 16.239131,-8.731 c 0.549031,-0.3014 0.903866,-0.9144 0.904891,-1.5408 l 0,-17.7554 c -4.78e-4,-0.3132 -0.08496,-0.6356 -0.244565,-0.9049 -0.159597,-0.2691 -0.385811,-0.485 -0.660326,-0.6358 l -16.239131,-9.1369 c -0.256973,-0.1393 -0.563344,-0.22 -0.855978,-0.22 z m 0.342391,4.2309 c 0.07455,7e-4 0.14652,0.02 0.244565,0.073 0.969056,0.5336 1.991878,1.1017 2.95924,1.6386 0.268203,0.1487 0.366848,0.3661 0.366848,0.7092 l 0,1.5897 c 0,0.339 -0.106404,0.561 -0.366848,0.7092 l -1.198369,0.2346 0,0.2788 c 0,0.5284 -0.26213,0.7092 -0.782609,0.7092 l -0.220109,0 -1.100544,-1.3939 C 30.091784,1011.3887 30,1011.2701 30,1010.9335 l 0,-3.4483 c 0,-0.2566 0.118764,-0.4671 0.342391,-0.4646 z m -2.17663,0.7825 c 0.169738,0.016 0.269021,0.184 0.269021,0.4648 l 0,0.9782 c 0,0.2657 -0.04886,0.3857 -0.146738,0.5136 l -1.173913,1.3597 -0.195653,0.22 c -0.194725,0.2323 -0.440217,0.1584 -0.440217,-0.171 l 0,-2.0056 c 0,-0.3355 0.08297,-0.5794 0.342391,-0.7092 l 1.149457,-0.6014 c 0.06947,-0.037 0.139069,-0.053 0.195652,-0.049 z m -3.203805,1.7511 c 0.187261,-0.016 0.342392,0.1188 0.342392,0.4157 l 0,3.3507 1.516304,0.8804 c 0.268675,0.1471 0.366848,0.3659 0.366848,0.7092 l 0,0.6358 -1.125,0.6359 -1.198369,-1.4429 -2.225544,1.2228 c -0.436495,0.2403 -0.549175,0.4892 -0.09783,0.7337 l 1.809783,0.9782 c 0.268681,0.1487 0.366848,0.3905 0.366848,0.7338 l 0,0.3667 0.880435,0.4892 0,-1.2718 c 0,-0.3522 -0.01377,-0.5722 0.366847,-0.7826 l 1.785326,-1.0026 1.663044,1.9809 -2.152175,1.1985 c -1.418204,1.6923 -2.826445,3.3793 -4.255434,5.0624 -0.172419,0.2048 -0.35687,0.2709 -0.538043,0.1712 -0.997619,-0.5495 -1.82224,-1.0052 -2.788043,-1.5408 l -1.83424,2.25 c 0.702874,0.3864 1.402122,0.76 2.10326,1.1495 0.26814,0.1487 0.366849,0.3661 0.366849,0.7092 l 0,1.2962 3.692934,2.0299 c 0.676033,0.3711 1.149457,1.7364 1.149457,1.7364 l 2.910326,1.5164 c 0.26869,0.1471 0.366848,0.3904 0.366848,0.7336 l 0,0.636 c -0.01027,0.3 -0.05132,0.5415 -0.269022,0.6602 l -1.296196,0.6359 c -0.156193,0.086 -0.361641,0.06 -0.513587,-0.023 l -6.627717,-3.6443 c -0.268673,-0.147 -0.366848,-0.3902 -0.366848,-0.7336 l 0,-0.22 1.589674,-1.8833 -4.671195,-2.5679 c -0.268683,-0.1487 -0.366848,-0.3621 -0.366848,-0.7093 l 0,-8.7065 0,-1.0027 0,-1.4675 0,-0.489 c 0,-0.3433 0.09818,-0.5858 0.366848,-0.7338 l 0.342391,-0.1713 c 2.730686,-1.4992 8.144022,-4.451 8.144022,-4.451 0.06501,-0.036 0.133231,-0.068 0.195652,-0.073 z m 14.625,2.519 c 0.105948,0 0.231723,0.051 0.415762,0.1471 1.234986,0.6827 2.480911,1.3502 3.717391,2.03 0.26868,0.1487 0.366847,0.3906 0.366847,0.7337 l 0,8.462 -0.635869,-0.7342 c -0.196051,-0.2322 -0.392231,-0.2419 -0.611414,-0.122 l -0.758151,0.4159 1.736413,2.0542 c 0.168118,0.1996 0.269021,0.306 0.269021,0.6603 l 0,4.4268 c 0,0.3431 -0.09812,0.5612 -0.366847,0.7092 l -4.744565,2.6168 c -0.20258,0.1116 -0.406968,0.091 -0.586957,-0.122 -0.640358,-0.7573 -1.387467,-1.6033 -2.10326,-2.4701 -0.528381,0.2922 -1.060076,0.612 -1.589675,0.8804 -0.270203,0.1377 -0.44431,0.1456 -0.709239,0 -0.467713,-0.2578 -0.754003,-0.5306 -1.27174,-0.8314 -0.265203,-0.155 -0.366846,-0.3661 -0.366846,-0.7094 -0.0019,-0.8417 -0.02609,-1.6856 -0.02447,-2.5435 4.79e-4,-0.2867 0.1191,-0.5851 0.366848,-0.8804 l 2.592391,-3.3505 -1.05163,0 c -0.352175,0 -0.70924,-0.357 -0.70924,-0.7092 l 0,-0.9783 c 0,-0.3432 0.09847,-0.5608 0.366849,-0.7092 0.17241,-0.096 0.807065,-0.4891 0.807065,-0.4891 l 0,-1.9565 c -6.38e-4,-0.2462 0.05712,-0.5521 0.342391,-0.7094 l 2.788044,-1.4427 0,-2.9349 c 0,-0.3432 0.09865,-0.5605 0.366847,-0.7093 0.328295,-0.182 0.656225,-0.4079 1.027174,-0.6114 0.159842,-0.084 0.25674,-0.122 0.366848,-0.122 z m -4.304347,11.3723 1.956522,1.076 4.5,-2.5828 0,-2.1521 -1.858696,1.1153 c -0.218807,0.1206 -0.440269,0.13 -0.63587,-0.097 l -0.538043,-0.6603 c -0.172422,-0.2049 -0.370835,-0.2489 -0.5625,-0.1711 l -2.054349,1.1248 z"
         id="path5247"
         inkscape:connector-curvature="0"
         sodipodi:nodetypes="ccccccccsccccccccccsssccssccsscccsscccssccccsccsccccccsccsccccccccssccccscccccscccscccscccccsccscccccssccscsccccccssscccccsccscccccccccc"
         inkscape:export-filename="/Users/saman/Dropbox/mapbox-redesign/sketch.png"
         inkscape:export-xdpi="90"
         inkscape:export-ydpi="90" />
    </g>
  </g>
</svg>
