<?xml version="1.0" encoding="UTF-8" standalone="no"?>
<!-- Created with Inkscape (http://www.inkscape.org/) -->

<svg
   xmlns:dc="http://purl.org/dc/elements/1.1/"
   xmlns:cc="http://creativecommons.org/ns#"
   xmlns:rdf="http://www.w3.org/1999/02/22-rdf-syntax-ns#"
   xmlns:svg="http://www.w3.org/2000/svg"
   xmlns="http://www.w3.org/2000/svg"
   xmlns:xlink="http://www.w3.org/1999/xlink"
   xmlns:sodipodi="http://sodipodi.sourceforge.net/DTD/sodipodi-0.dtd"
   xmlns:inkscape="http://www.inkscape.org/namespaces/inkscape"
   width="100"
   height="350"
   id="svg13810"
   version="1.1"
   inkscape:version="0.48.2 r9819"
   sodipodi:docname="base.svg"
   inkscape:export-filename="./base.png"
   inkscape:export-xdpi="90"
   inkscape:export-ydpi="90">
  <defs
     id="defs13812">
    <inkscape:perspective
       sodipodi:type="inkscape:persp3d"
       inkscape:vp_x="0 : 160 : 1"
       inkscape:vp_y="0 : 1000 : 0"
       inkscape:vp_z="2640 : 160 : 1"
       inkscape:persp3d-origin="1320 : 106.66667 : 1"
       id="perspective3726" />
    <linearGradient
       inkscape:collect="always"
       xlink:href="#linearGradient8468-7-4"
       id="linearGradient11489"
       gradientUnits="userSpaceOnUse"
       gradientTransform="matrix(1.5384614,0,0,1.3333333,-66.153839,473.33326)"
       x1="97"
       y1="-1902"
       x2="230"
       y2="-2020" />
    <linearGradient
       inkscape:collect="always"
       id="linearGradient8468-7-4">
      <stop
         style="stop-color:#ffffff;stop-opacity:1;"
         offset="0"
         id="stop8470-1-5" />
      <stop
         style="stop-color:#000000;stop-opacity:1"
         offset="1"
         id="stop8472-2-3" />
    </linearGradient>
    <linearGradient
       inkscape:collect="always"
       xlink:href="#linearGradient4896-9-5-0"
       id="linearGradient11539"
       gradientUnits="userSpaceOnUse"
       gradientTransform="matrix(1.2,0,0,1,0,1152.3622)"
       x1="0"
       y1="-170"
       x2="20"
       y2="-170" />
    <linearGradient
       inkscape:collect="always"
       id="linearGradient4896-9-5-0">
      <stop
         style="stop-color:#ff0101;stop-opacity:1;"
         offset="0"
         id="stop4898-6-5-8" />
      <stop
         style="stop-color:#f0ff01;stop-opacity:1"
         offset="1"
         id="stop4900-7-7-3" />
    </linearGradient>
    <linearGradient
       inkscape:collect="always"
       xlink:href="#linearGradient4908-8-3-7"
       id="linearGradient11541"
       gradientUnits="userSpaceOnUse"
       gradientTransform="matrix(1.275,0,0,1,-49.5,1152.3622)"
       x1="0"
       y1="-170"
       x2="20"
       y2="-170" />
    <linearGradient
       id="linearGradient4908-8-3-7"
       inkscape:collect="always">
      <stop
         id="stop4910-1-5-7"
         offset="0"
         style="stop-color:#01ff1f;stop-opacity:1" />
      <stop
         id="stop4912-3-34-9"
         offset="1"
         style="stop-color:#f0ff01;stop-opacity:1" />
    </linearGradient>
    <linearGradient
       inkscape:collect="always"
       xlink:href="#linearGradient4920-3-9-3"
       id="linearGradient11543"
       gradientUnits="userSpaceOnUse"
       gradientTransform="matrix(1.275,0,0,1,49.499997,1152.3622)"
       x1="0"
       y1="-170"
       x2="20"
       y2="-170" />
    <linearGradient
       inkscape:collect="always"
       id="linearGradient4920-3-9-3">
      <stop
         style="stop-color:#01ff1f;stop-opacity:1"
         offset="0"
         id="stop4922-5-2-9" />
      <stop
         style="stop-color:#01d2ff;stop-opacity:1"
         offset="1"
         id="stop4924-5-1-1" />
    </linearGradient>
    <linearGradient
       inkscape:collect="always"
       xlink:href="#linearGradient4931-3-8-1"
       id="linearGradient11545"
       gradientUnits="userSpaceOnUse"
       gradientTransform="matrix(1.2,0,0,1,-99,1152.3622)"
       x1="0"
       y1="-170"
       x2="20"
       y2="-170" />
    <linearGradient
       id="linearGradient4931-3-8-1"
       inkscape:collect="always">
      <stop
         id="stop4933-2-2-0"
         offset="0"
         style="stop-color:#0101ff;stop-opacity:1" />
      <stop
         id="stop4935-3-77-4"
         offset="1"
         style="stop-color:#01d2ff;stop-opacity:1" />
    </linearGradient>
    <linearGradient
       inkscape:collect="always"
       xlink:href="#linearGradient4941-3-3-2"
       id="linearGradient11547"
       gradientUnits="userSpaceOnUse"
       gradientTransform="matrix(1.275,0,0,1,98.999997,1152.3622)"
       x1="0"
       y1="-170"
       x2="20"
       y2="-170" />
    <linearGradient
       inkscape:collect="always"
       id="linearGradient4941-3-3-2">
      <stop
         style="stop-color:#0101ff;stop-opacity:1"
         offset="0"
         id="stop4943-4-5-5" />
      <stop
         style="stop-color:#ff01f0;stop-opacity:1"
         offset="1"
         id="stop4945-3-1-3" />
    </linearGradient>
    <linearGradient
       inkscape:collect="always"
       xlink:href="#linearGradient4951-2-5-1"
       id="linearGradient11549"
       gradientUnits="userSpaceOnUse"
       gradientTransform="matrix(1.275,0,0,1,-150,1152.3622)"
       x1="0"
       y1="-170"
       x2="20"
       y2="-170" />
    <linearGradient
       id="linearGradient4951-2-5-1"
       inkscape:collect="always">
      <stop
         id="stop4953-4-2-4"
         offset="0"
         style="stop-color:#ff0101;stop-opacity:1" />
      <stop
         id="stop4955-0-1-4"
         offset="1"
         style="stop-color:#ff01f0;stop-opacity:1" />
    </linearGradient>
    <linearGradient
       inkscape:collect="always"
       xlink:href="#linearGradient4951-2"
       id="linearGradient3084"
       gradientUnits="userSpaceOnUse"
       gradientTransform="matrix(1.25,0,0,1,-150,1152.3622)"
       x1="0"
       y1="-170"
       x2="20"
       y2="-170" />
    <linearGradient
       id="linearGradient4951-2"
       inkscape:collect="always">
      <stop
         id="stop4953-4"
         offset="0"
         style="stop-color:#ff0101;stop-opacity:1" />
      <stop
         id="stop4955-0"
         offset="1"
         style="stop-color:#ff01f0;stop-opacity:1" />
    </linearGradient>
  </defs>
  <sodipodi:namedview
     id="base"
     pagecolor="#ffffff"
     bordercolor="#666666"
     borderopacity="1.0"
     inkscape:pageopacity="0.0"
     inkscape:pageshadow="2"
     inkscape:zoom="2.8284271"
     inkscape:cx="82.086296"
     inkscape:cy="253.06208"
     inkscape:document-units="px"
     inkscape:current-layer="layer1"
     showgrid="true"
     inkscape:window-width="1587"
     inkscape:window-height="883"
     inkscape:window-x="117"
     inkscape:window-y="0"
     inkscape:window-maximized="0"
     showguides="true"
     inkscape:snap-nodes="true"
     inkscape:snap-bbox="true"
     fit-margin-top="0"
     fit-margin-left="0"
     fit-margin-right="0"
     fit-margin-bottom="0"
     inkscape:guide-bbox="true"
     inkscape:object-nodes="true"
     inkscape:bbox-nodes="true"
     inkscape:snap-smooth-nodes="true"
     inkscape:object-paths="true"
     inkscape:snap-global="true">
    <inkscape:grid
       type="xygrid"
       id="grid14186"
       empspacing="1"
       visible="true"
       enabled="true"
       snapvisiblegridlinesonly="true"
       spacingx="40px"
       spacingy="40px"
       color="#000000"
       opacity="0.03921569"
       empcolor="#000000"
       empopacity="0.1254902" />
    <inkscape:grid
       type="xygrid"
       id="grid14643"
       empspacing="5"
       visible="true"
       enabled="true"
       snapvisiblegridlinesonly="true"
       color="#000000"
       opacity="0.0627451"
       empcolor="#000000"
       empopacity="0.1254902" />
    <sodipodi:guide
       orientation="1,0"
       position="420,275"
       id="guide11081" />
    <sodipodi:guide
       orientation="0,1"
       position="1980,220"
       id="guide3700" />
    <sodipodi:guide
       orientation="1,0"
       position="1300,320"
       id="guide3827" />
    <sodipodi:guide
       position="360,110"
       orientation="40,0"
       id="guide3106" />
    <sodipodi:guide
       position="360,70"
       orientation="0,40"
       id="guide3108" />
    <sodipodi:guide
       position="400,70"
       orientation="-40,0"
       id="guide3110" />
    <sodipodi:guide
       position="400,110"
       orientation="0,-40"
       id="guide3112" />
    <sodipodi:guide
       orientation="0,1"
       position="25,330"
       id="guide7406" />
  </sodipodi:namedview>
  <metadata
     id="metadata13815">
    <rdf:RDF>
      <cc:Work
         rdf:about="">
        <dc:format>image/svg+xml</dc:format>
        <dc:type
           rdf:resource="http://purl.org/dc/dcmitype/StillImage" />
        <dc:title></dc:title>
      </cc:Work>
    </rdf:RDF>
  </metadata>
  <g
     inkscape:groupmode="layer"
     id="layer3"
     inkscape:label="ground"
     style="display:none">
    <rect
       style="opacity:0.5;color:#000000;fill:#cccccc;fill-opacity:1;fill-rule:nonzero;stroke:none;stroke-width:1;marker:none;visibility:visible;display:inline;overflow:visible;enable-background:accumulate"
       id="rect15427"
       width="225"
       height="320"
       x="0"
       y="0" />
  </g>
  <g
     inkscape:label="sprite"
     inkscape:groupmode="layer"
     id="layer1"
     transform="translate(0.70710677,-12.36218)"
     style="display:inline">
    <g
       id="g4334"
       transform="matrix(0.70710678,0.70710678,-0.70710678,0.70710678,-152.93308,-760.60771)"
       style="opacity:0.5;color:#000000;fill:#000000;fill-opacity:1;fill-rule:nonzero;stroke:none;stroke-width:1;marker:none;visibility:visible;display:inline;overflow:visible;enable-background:accumulate" />
    <path
       style="fill:#3bb2d0;fill-opacity:1;fill-rule:nonzero;stroke:none"
       d="m 53.29289,20.36218 0,21 5.6875,0 c 4.2,-1e-6 7.5,-3.312501 7.5,-7.8125 0,-4.500001 -3.3,-7.781251 -7.5,-7.78125 -0.94977,0.0039 -1.71145,-0.03525 -2.6875,-0.03125 l 0,-5.375 -3,0 z m -52.999997,1 0,20 3,0 0,-16.40625 6,10.21875 6,-10.21875 0,16.40625 3,0 0,-20 -2.40625,0 c -1.2,-0.004 -2.12683,0.2875 -2.65625,1.1875 l -3.9375,6.6875 -3.9375,-6.6875 c -0.52941,-0.9 -1.45625,-1.19134 -2.65625,-1.1875 l -2.40625,0 z m 27.8125,4.40625 c -4.2,0 -7.21875,3.28125 -7.21875,7.78125 1e-6,4.5 2.71875,7.8125 7.21875,7.8125 l 7.1875,0 0,-8.09375 c 0,-4.2 -2.9875,-7.5 -7.1875,-7.5 z m 10.1875,0 0,20.6875 2.999997,0 0,-5.0625 c 0.97604,0.004 1.73772,-0.0352 2.6875,-0.03125 4.2,0 7.5,-3.3125 7.5,-7.8125 0,-4.5 -3.3,-7.78125 -7.5,-7.78125 l -5.687497,0 z m 37.499997,0 c -4.14214,0 -7.5,3.50469 -7.5,7.8125 0,4.30781 3.35786,7.78125 7.5,7.78125 4.14214,0 7.5,-3.47344 7.5,-7.78125 0,-4.30781 -3.35786,-7.8125 -7.5,-7.8125 z m 7.5,0.59375 5.21875,7.28125 -5.5,7.71875 3.6875,0 3.65625,-5.15625 3.6875,5.15625 3.65625,0 -5.5,-7.71875 5.21875,-7.28125 -3.6875,0 -3.375,4.71875 -3.375,-4.71875 -3.6875,0 z m -55.187497,2.40625 c 2.4,0 4.1875,1.767828 4.1875,4.5 l 0,5.09375 -4.1875,0 c -2.699997,0 -4.218753,-2.116334 -4.21875,-4.8125 3e-6,-2.403834 1.81875,-4.78125 4.21875,-4.78125 z m 13.187497,0 2.6875,0 c 2.73217,0 4.5,2.258073 4.5,4.78125 0,2.523374 -1.97446,4.8125 -4.5,4.8125 l -2.6875,0 0,-9.59375 z m 15,0 2.6875,0 c 2.52555,0 4.5,2.257876 4.5,4.78125 0,2.523177 -1.76782,4.8125 -4.5,4.8125 l -2.6875,0 0,-9.59375 z m 19.5,0 c 2.48529,0 4.5,2.16154 4.5,4.8125 0,2.65096 -2.01471,4.78125 -4.5,4.78125 -2.48529,0 -4.5,-2.13029 -4.5,-4.78125 0,-2.65096 2.01471,-4.8125 4.5,-4.8125 z"
       id="path5364"
       inkscape:connector-curvature="0" />
    <path
       id="path3642"
       d="m 53.29289,80.36218 0,21 5.6875,0 c 4.2,0 7.5,-3.3125 7.5,-7.8125 0,-4.5 -3.3,-7.78125 -7.5,-7.78125 -0.94977,0.004 -1.71145,-0.0352 -2.6875,-0.0312 l 0,-5.375 -3,0 z m -52.999997,1 0,20 3,0 0,-16.40625 6,10.21875 6,-10.21875 0,16.40625 3,0 0,-20 -2.40625,0 c -1.2,-0.004 -2.12683,0.2875 -2.65625,1.1875 l -3.9375,6.6875 -3.9375,-6.6875 c -0.52941,-0.9 -1.45625,-1.19134 -2.65625,-1.1875 l -2.40625,0 z m 27.8125,4.40625 c -4.2,0 -7.21875,3.28125 -7.21875,7.78125 1e-6,4.5 2.71875,7.8125 7.21875,7.8125 l 7.1875,0 0,-8.09375 c 0,-4.2 -2.9875,-7.5 -7.1875,-7.5 z m 10.1875,0 0,20.6875 2.999997,0 0,-5.0625 c 0.97604,0.004 1.73772,-0.0352 2.6875,-0.0312 4.2,0 7.5,-3.3125 7.5,-7.8125 0,-4.5 -3.3,-7.78125 -7.5,-7.78125 l -5.687497,0 z m 37.499997,0 c -4.14214,0 -7.5,3.50469 -7.5,7.8125 0,4.30781 3.35786,7.78125 7.5,7.78125 4.14214,0 7.5,-3.47344 7.5,-7.78125 0,-4.30781 -3.35786,-7.8125 -7.5,-7.8125 z m 7.5,0.59375 5.21875,7.28125 -5.5,7.71875 3.6875,0 3.65625,-5.15625 3.6875,5.15625 3.65625,0 -5.5,-7.71875 5.21875,-7.28125 -3.6875,0 -3.375,4.71875 -3.375,-4.71875 -3.6875,0 z m -55.187497,2.40625 c 2.4,0 4.1875,1.76783 4.1875,4.5 l 0,5.09375 -4.1875,0 c -2.699997,0 -4.218753,-2.11633 -4.21875,-4.8125 3e-6,-2.40383 1.81875,-4.78125 4.21875,-4.78125 z m 13.187497,0 2.6875,0 c 2.73217,0 4.5,2.25807 4.5,4.78125 0,2.52337 -1.97446,4.8125 -4.5,4.8125 l -2.6875,0 0,-9.59375 z m 15,0 2.6875,0 c 2.52555,0 4.5,2.25788 4.5,4.78125 0,2.52318 -1.76782,4.8125 -4.5,4.8125 l -2.6875,0 0,-9.59375 z m 19.5,0 c 2.48529,0 4.5,2.16154 4.5,4.8125 0,2.65096 -2.01471,4.78125 -4.5,4.78125 -2.48529,0 -4.5,-2.13029 -4.5,-4.78125 0,-2.65096 2.01471,-4.8125 4.5,-4.8125 z"
       style="fill:#ffffff;fill-opacity:1;fill-rule:nonzero;stroke:none"
       inkscape:connector-curvature="0" />
    <g
       id="g3685"
       transform="translate(-87.727289,208)">
      <path
         sodipodi:nodetypes="cccccccccscccccccssscccccccccsscccsscsccssscccccccccccccccssscccscssccssscccsssc"
         id="path4544"
         d="m 87.020182,-14.63782 0,13.99999996 2,0 0,-11.62499996 4,6.8125 4,-6.8125 0,11.62499996 1.999998,0 0,-13.99999996 -1.593748,0 c -0.8,0 -1.42831,0.1812 -1.78125,0.7812 l -2.625,4.4688 -2.625,-4.4688 c -0.35293,-0.6 -0.98125,-0.7836 -1.78125,-0.7812 z m 34.999998,0 0,13.99999996 3.8125,0 c 2.8,0 5,-2.21879996 5,-5.21879996 0,-3 -2.2,-5.1874 -5,-5.1874 -0.63318,0 -1.1618,-0.033 -1.8125,-0.031 l 0,-3.5625 -2,0 z m -10,3.5625 0,14.4374998 2,0 0,-3.99999984 c 0.6507,0 1.17932,-0.033 1.8125,-0.031 2.8,0 5,-2.18759996 5,-5.18759996 0,-3 -2.2,-5.2187 -5,-5.2187 l -3.8125,0 z m -6.78125,0.031 c -2.8,0 -4.8125,2.1875 -4.8125,5.1874 0,3 2.0125,5.21879996 4.8125,5.21879996 l 4.78125,0 0,-5.21879996 c 0,-3 -1.98125,-5.1875 -4.78125,-5.1874 z m 31.78125,0 c -2.76142,0 -5,2.3156 -5,5.1874 0,2.8719 2.23858,5.21879996 5,5.21879996 2.76142,0 5,-2.34679996 5,-5.21879996 0,-2.8718 -2.23858,-5.1875 -5,-5.1874 z m 5.1875,0.4062 3.46875,4.8438 -3.65625,5.15619996 2.4375,0 2.46875,-3.43749996 2.4375,3.43749996 2.46875,0 -3.6875,-5.15619996 3.46875,-4.8438 -2.46875,0 -2.21875,3.125 -2.25,-3.125 z m -28.1875,1.5625 1.8125,0 c 1.82144,0 3,1.5366 3,3.2187 0,1.6822 -1.3163,3.1876 -3,3.1876 l -1.8125,0 z m -8.78125,0.031 c 1.6,0 2.78125,1.366 2.78125,3.1874 l 0,3.2188 -2.78125,0 c -1.6,0 -2.8125,-1.4213 -2.8125,-3.2188 0,-1.7999 1.2125,-3.1875 2.8125,-3.1874 z m 18.78125,0 1.8125,0 c 1.6837,0 3,1.5052 3,3.1874 0,1.6821 -1.17854,3.2188 -3,3.2188 l -1.8125,0 z m 13,0 c 1.65686,0 3,1.4202 3,3.1874 0,1.7673 -1.34314,3.2188 -3,3.2188 -1.65686,0 -3,-1.4514 -3,-3.2188 0,-1.7672 1.34314,-3.1875 3,-3.1874 z"
         style="color:#000000;fill:#3bb2d0;fill-opacity:1;stroke:none;stroke-width:2;marker:none;visibility:visible;display:inline;overflow:visible;enable-background:accumulate"
         inkscape:connector-curvature="0" />
    </g>
    <g
       transform="translate(-87.727289,268)"
       id="g3735"
       style="fill:#ffffff">
      <path
         inkscape:connector-curvature="0"
         style="color:#000000;fill:#ffffff;fill-opacity:1;stroke:none;stroke-width:2;marker:none;visibility:visible;display:inline;overflow:visible;enable-background:accumulate"
         d="m 87.020182,-14.63782 0,13.99999996 2,0 0,-11.62499996 4,6.8125 4,-6.8125 0,11.62499996 1.999998,0 0,-13.99999996 -1.593748,0 c -0.8,0 -1.42831,0.1812 -1.78125,0.7812 l -2.625,4.4688 -2.625,-4.4688 c -0.35293,-0.6 -0.98125,-0.7836 -1.78125,-0.7812 z m 34.999998,0 0,13.99999996 3.8125,0 c 2.8,0 5,-2.21879996 5,-5.21879996 0,-3 -2.2,-5.1874 -5,-5.1874 -0.63318,0 -1.1618,-0.033 -1.8125,-0.031 l 0,-3.5625 -2,0 z m -10,3.5625 0,14.4374998 2,0 0,-3.99999984 c 0.6507,0 1.17932,-0.033 1.8125,-0.031 2.8,0 5,-2.18759996 5,-5.18759996 0,-3 -2.2,-5.2187 -5,-5.2187 l -3.8125,0 z m -6.78125,0.031 c -2.8,0 -4.8125,2.1875 -4.8125,5.1874 0,3 2.0125,5.21879996 4.8125,5.21879996 l 4.78125,0 0,-5.21879996 c 0,-3 -1.98125,-5.1875 -4.78125,-5.1874 z m 31.78125,0 c -2.76142,0 -5,2.3156 -5,5.1874 0,2.8719 2.23858,5.21879996 5,5.21879996 2.76142,0 5,-2.34679996 5,-5.21879996 0,-2.8718 -2.23858,-5.1875 -5,-5.1874 z m 5.1875,0.4062 3.46875,4.8438 -3.65625,5.15619996 2.4375,0 2.46875,-3.43749996 2.4375,3.43749996 2.46875,0 -3.6875,-5.15619996 3.46875,-4.8438 -2.46875,0 -2.21875,3.125 -2.25,-3.125 z m -28.1875,1.5625 1.8125,0 c 1.82144,0 3,1.5366 3,3.2187 0,1.6822 -1.3163,3.1876 -3,3.1876 l -1.8125,0 z m -8.78125,0.031 c 1.6,0 2.78125,1.366 2.78125,3.1874 l 0,3.2188 -2.78125,0 c -1.6,0 -2.8125,-1.4213 -2.8125,-3.2188 0,-1.7999 1.2125,-3.1875 2.8125,-3.1874 z m 18.78125,0 1.8125,0 c 1.6837,0 3,1.5052 3,3.1874 0,1.6821 -1.17854,3.2188 -3,3.2188 l -1.8125,0 z m 13,0 c 1.65686,0 3,1.4202 3,3.1874 0,1.7673 -1.34314,3.2188 -3,3.2188 -1.65686,0 -3,-1.4514 -3,-3.2188 0,-1.7672 1.34314,-3.1875 3,-3.1874 z"
         id="path3737"
         sodipodi:nodetypes="cccccccccscccccccssscccccccccsscccsscsccssscccccccccccccccssscccscssccssscccsssc" />
    </g>
    <path
       inkscape:connector-curvature="0"
       style="opacity:0.5;fill:#000000;fill-opacity:1;fill-rule:nonzero;stroke:none"
       d="m 53.29289,140.36218 0,21 5.6875,0 c 4.2,0 7.5,-3.3125 7.5,-7.8125 0,-4.5 -3.3,-7.78125 -7.5,-7.78125 -0.94977,0.004 -1.71145,-0.0352 -2.6875,-0.0312 l 0,-5.375 -3,0 z m -52.999997,1 0,20 3,0 0,-16.40625 6,10.21875 6,-10.21875 0,16.40625 3,0 0,-20 -2.40625,0 c -1.2,-0.004 -2.12683,0.2875 -2.65625,1.1875 l -3.9375,6.6875 -3.9375,-6.6875 c -0.52941,-0.9 -1.45625,-1.19134 -2.65625,-1.1875 l -2.40625,0 z m 27.8125,4.40625 c -4.2,0 -7.21875,3.28125 -7.21875,7.78125 1e-6,4.5 2.71875,7.8125 7.21875,7.8125 l 7.1875,0 0,-8.09375 c 0,-4.2 -2.9875,-7.5 -7.1875,-7.5 z m 10.1875,0 0,20.6875 2.999997,0 0,-5.0625 c 0.97604,0.004 1.73772,-0.0352 2.6875,-0.0312 4.2,0 7.5,-3.3125 7.5,-7.8125 0,-4.5 -3.3,-7.78125 -7.5,-7.78125 l -5.687497,0 z m 37.499997,0 c -4.14214,0 -7.5,3.50469 -7.5,7.8125 0,4.30781 3.35786,7.78125 7.5,7.78125 4.14214,0 7.5,-3.47344 7.5,-7.78125 0,-4.30781 -3.35786,-7.8125 -7.5,-7.8125 z m 7.5,0.59375 5.21875,7.28125 -5.5,7.71875 3.6875,0 3.65625,-5.15625 3.6875,5.15625 3.65625,0 -5.5,-7.71875 5.21875,-7.28125 -3.6875,0 -3.375,4.71875 -3.375,-4.71875 -3.6875,0 z m -55.187497,2.40625 c 2.4,0 4.1875,1.76783 4.1875,4.5 l 0,5.09375 -4.1875,0 c -2.699997,0 -4.218753,-2.11633 -4.21875,-4.8125 3e-6,-2.40383 1.81875,-4.78125 4.21875,-4.78125 z m 13.187497,0 2.6875,0 c 2.73217,0 4.5,2.25807 4.5,4.78125 0,2.52337 -1.97446,4.8125 -4.5,4.8125 l -2.6875,0 0,-9.59375 z m 15,0 2.6875,0 c 2.52555,0 4.5,2.25788 4.5,4.78125 0,2.52318 -1.76782,4.8125 -4.5,4.8125 l -2.6875,0 0,-9.59375 z m 19.5,0 c 2.48529,0 4.5,2.16154 4.5,4.8125 0,2.65096 -2.01471,4.78125 -4.5,4.78125 -2.48529,0 -4.5,-2.13029 -4.5,-4.78125 0,-2.65096 2.01471,-4.8125 4.5,-4.8125 z"
       id="path7256" />
    <g
       style="opacity:0.5;color:#000000;fill:#000000;fill-opacity:1;fill-rule:nonzero;stroke:none;marker:none;visibility:visible;display:inline;overflow:visible;enable-background:accumulate"
       id="g7262"
       transform="translate(-87.727289,328)">
      <path
         sodipodi:nodetypes="cccccccccscccccccssscccccccccsscccsscsccssscccccccccccccccssscccscssccssscccsssc"
         id="path7264"
         d="m 87.020182,-14.63782 0,13.99999996 2,0 0,-11.62499996 4,6.8125 4,-6.8125 0,11.62499996 1.999998,0 0,-13.99999996 -1.593748,0 c -0.8,0 -1.42831,0.1812 -1.78125,0.7812 l -2.625,4.4688 -2.625,-4.4688 c -0.35293,-0.6 -0.98125,-0.7836 -1.78125,-0.7812 z m 34.999998,0 0,13.99999996 3.8125,0 c 2.8,0 5,-2.21879996 5,-5.21879996 0,-3 -2.2,-5.1874 -5,-5.1874 -0.63318,0 -1.1618,-0.033 -1.8125,-0.031 l 0,-3.5625 -2,0 z m -10,3.5625 0,14.4374998 2,0 0,-3.99999984 c 0.6507,0 1.17932,-0.033 1.8125,-0.031 2.8,0 5,-2.18759996 5,-5.18759996 0,-3 -2.2,-5.2187 -5,-5.2187 l -3.8125,0 z m -6.78125,0.031 c -2.8,0 -4.8125,2.1875 -4.8125,5.1874 0,3 2.0125,5.21879996 4.8125,5.21879996 l 4.78125,0 0,-5.21879996 c 0,-3 -1.98125,-5.1875 -4.78125,-5.1874 z m 31.78125,0 c -2.76142,0 -5,2.3156 -5,5.1874 0,2.8719 2.23858,5.21879996 5,5.21879996 2.76142,0 5,-2.34679996 5,-5.21879996 0,-2.8718 -2.23858,-5.1875 -5,-5.1874 z m 5.1875,0.4062 3.46875,4.8438 -3.65625,5.15619996 2.4375,0 2.46875,-3.43749996 2.4375,3.43749996 2.46875,0 -3.6875,-5.15619996 3.46875,-4.8438 -2.46875,0 -2.21875,3.125 -2.25,-3.125 z m -28.1875,1.5625 1.8125,0 c 1.82144,0 3,1.5366 3,3.2187 0,1.6822 -1.3163,3.1876 -3,3.1876 l -1.8125,0 z m -8.78125,0.031 c 1.6,0 2.78125,1.366 2.78125,3.1874 l 0,3.2188 -2.78125,0 c -1.6,0 -2.8125,-1.4213 -2.8125,-3.2188 0,-1.7999 1.2125,-3.1875 2.8125,-3.1874 z m 18.78125,0 1.8125,0 c 1.6837,0 3,1.5052 3,3.1874 0,1.6821 -1.17854,3.2188 -3,3.2188 l -1.8125,0 z m 13,0 c 1.65686,0 3,1.4202 3,3.1874 0,1.7673 -1.34314,3.2188 -3,3.2188 -1.65686,0 -3,-1.4514 -3,-3.2188 0,-1.7672 1.34314,-3.1875 3,-3.1874 z"
         style="color:#000000;fill:#000000;fill-opacity:1;fill-rule:nonzero;stroke:none;stroke-width:2;marker:none;visibility:visible;display:inline;overflow:visible;enable-background:accumulate"
         inkscape:connector-curvature="0" />
    </g>
  </g>
</svg>
