<?xml version="1.0" encoding="UTF-8" standalone="no"?>
<!-- Created with Inkscape (http://www.inkscape.org/) -->

<svg
   xmlns:dc="http://purl.org/dc/elements/1.1/"
   xmlns:cc="http://creativecommons.org/ns#"
   xmlns:rdf="http://www.w3.org/1999/02/22-rdf-syntax-ns#"
   xmlns:svg="http://www.w3.org/2000/svg"
   xmlns="http://www.w3.org/2000/svg"
   xmlns:xlink="http://www.w3.org/1999/xlink"
   xmlns:sodipodi="http://sodipodi.sourceforge.net/DTD/sodipodi-0.dtd"
   xmlns:inkscape="http://www.inkscape.org/namespaces/inkscape"
   width="16"
   height="16"
   id="svg2"
   version="1.1"
   inkscape:version="0.48.4 r9939"
   sodipodi:docname="mapbox-studio-16x16.svg">
  <defs
     id="defs4">
    <linearGradient
       inkscape:collect="always"
       id="linearGradient4087">
      <stop
         style="stop-color:#b3efe4;stop-opacity:1"
         offset="0"
         id="stop4089" />
      <stop
         style="stop-color:#4bd9c0;stop-opacity:1"
         offset="1"
         id="stop4091" />
    </linearGradient>
    <linearGradient
       id="linearGradient4021">
      <stop
         id="stop4023"
         offset="0"
         style="stop-color:#000000;stop-opacity:0;" />
      <stop
         style="stop-color:#000000;stop-opacity:0;"
         offset="0.5"
         id="stop4031" />
      <stop
         id="stop4025"
         offset="1"
         style="stop-color:#000000;stop-opacity:0.3764706" />
    </linearGradient>
    <linearGradient
       inkscape:collect="always"
       id="linearGradient3875">
      <stop
         style="stop-color:#000000;stop-opacity:0.1254902"
         offset="0"
         id="stop3877" />
      <stop
         style="stop-color:#000000;stop-opacity:0;"
         offset="1"
         id="stop3879" />
    </linearGradient>
    <linearGradient
       inkscape:collect="always"
       id="linearGradient3793">
      <stop
         style="stop-color:#000000;stop-opacity:0.25098041"
         offset="0"
         id="stop3795" />
      <stop
         style="stop-color:#000000;stop-opacity:0;"
         offset="1"
         id="stop3797" />
    </linearGradient>
    <linearGradient
       id="linearGradient3785">
      <stop
         id="stop3787"
         offset="0"
         style="stop-color:#3887be;stop-opacity:1;" />
      <stop
         id="stop3789"
         offset="1"
         style="stop-color:#8a8acb;stop-opacity:1" />
    </linearGradient>
    <linearGradient
       inkscape:collect="always"
       id="linearGradient3804">
      <stop
         style="stop-color:#65ade5;stop-opacity:1"
         offset="0"
         id="stop3806" />
      <stop
         style="stop-color:#3f87bf;stop-opacity:0;"
         offset="1"
         id="stop3808" />
    </linearGradient>
    <linearGradient
       id="linearGradient3757">
      <stop
         style="stop-color:#3887be;stop-opacity:1;"
         offset="0"
         id="stop3759" />
      <stop
         style="stop-color:#56b881;stop-opacity:1;"
         offset="1"
         id="stop3761" />
    </linearGradient>
    <linearGradient
       inkscape:collect="always"
       xlink:href="#linearGradient3804"
       id="linearGradient3810"
       x1="-40"
       y1="-1048.3622"
       x2="-28"
       y2="-1020.3622"
       gradientUnits="userSpaceOnUse" />
    <linearGradient
       inkscape:collect="always"
       xlink:href="#linearGradient3804"
       id="linearGradient3814"
       gradientUnits="userSpaceOnUse"
       x1="-8"
       y1="-1042.3622"
       x2="-8"
       y2="-1028.3622"
       gradientTransform="translate(0,2038.7244)" />
    <linearGradient
       inkscape:collect="always"
       xlink:href="#linearGradient3785"
       id="linearGradient3783"
       x1="8"
       y1="52"
       x2="44"
       y2="52"
       gradientUnits="userSpaceOnUse" />
    <linearGradient
       inkscape:collect="always"
       xlink:href="#linearGradient3793"
       id="linearGradient3799"
       x1="56"
       y1="51"
       x2="56"
       y2="55"
       gradientUnits="userSpaceOnUse" />
    <linearGradient
       inkscape:collect="always"
       id="linearGradient3875-7">
      <stop
         style="stop-color:#000000;stop-opacity:0.1254902"
         offset="0"
         id="stop3877-4" />
      <stop
         style="stop-color:#000000;stop-opacity:0;"
         offset="1"
         id="stop3879-2" />
    </linearGradient>
    <linearGradient
       gradientTransform="translate(-237,-39)"
       y2="46.992867"
       x2="251.95494"
       y1="43.924145"
       x1="247.61134"
       gradientUnits="userSpaceOnUse"
       id="linearGradient3900"
       xlink:href="#linearGradient3875-7"
       inkscape:collect="always" />
    <radialGradient
       inkscape:collect="always"
       xlink:href="#linearGradient4021"
       id="radialGradient3839"
       gradientUnits="userSpaceOnUse"
       gradientTransform="matrix(1.5714285,0,0,1.428571,18.285714,432.15473)"
       cx="-32"
       cy="-1008.3621"
       fx="-32"
       fy="-1008.3621"
       r="28" />
    <linearGradient
       inkscape:collect="always"
       xlink:href="#linearGradient3757"
       id="linearGradient3841"
       gradientUnits="userSpaceOnUse"
       gradientTransform="matrix(1.1666667,0,0,1.1666667,-69.33334,-2210.7848)"
       x1="16"
       y1="992.36224"
       x2="48"
       y2="1048.3622" />
    <linearGradient
       inkscape:collect="always"
       xlink:href="#linearGradient3875-7"
       id="linearGradient3843"
       gradientUnits="userSpaceOnUse"
       gradientTransform="translate(-1,989.86218)"
       x1="259.57281"
       y1="35.097984"
       x2="260.41602"
       y2="39.090126" />
    <linearGradient
       inkscape:collect="always"
       xlink:href="#linearGradient3875"
       id="linearGradient3845"
       gradientUnits="userSpaceOnUse"
       gradientTransform="translate(-1,989.86218)"
       x1="247.61134"
       y1="43.924145"
       x2="251.95494"
       y2="46.992867" />
    <linearGradient
       inkscape:collect="always"
       xlink:href="#linearGradient4087"
       id="linearGradient3847"
       gradientUnits="userSpaceOnUse"
       x1="12"
       y1="984.36218"
       x2="24"
       y2="1012.3622" />
    <radialGradient
       inkscape:collect="always"
       xlink:href="#linearGradient4021"
       id="radialGradient3891"
       gradientUnits="userSpaceOnUse"
       gradientTransform="matrix(1.5714285,0,0,1.428571,18.285714,432.15473)"
       cx="-32"
       cy="-1008.3621"
       fx="-32"
       fy="-1008.3621"
       r="28" />
    <linearGradient
       inkscape:collect="always"
       xlink:href="#linearGradient3757"
       id="linearGradient3893"
       gradientUnits="userSpaceOnUse"
       gradientTransform="matrix(1.1666667,0,0,1.1666667,-69.33334,-2210.7848)"
       x1="16"
       y1="992.36224"
       x2="48"
       y2="1048.3622" />
    <linearGradient
       inkscape:collect="always"
       xlink:href="#linearGradient3875-7"
       id="linearGradient3895"
       gradientUnits="userSpaceOnUse"
       gradientTransform="translate(-1,989.86218)"
       x1="259.57281"
       y1="35.097984"
       x2="260.41602"
       y2="39.090126" />
    <linearGradient
       inkscape:collect="always"
       xlink:href="#linearGradient3875"
       id="linearGradient3897"
       gradientUnits="userSpaceOnUse"
       gradientTransform="translate(-1,989.86218)"
       x1="247.61134"
       y1="43.924145"
       x2="251.95494"
       y2="46.992867" />
    <linearGradient
       inkscape:collect="always"
       xlink:href="#linearGradient4087"
       id="linearGradient3899"
       gradientUnits="userSpaceOnUse"
       x1="12"
       y1="984.36218"
       x2="24"
       y2="1012.3622" />
    <linearGradient
       inkscape:collect="always"
       xlink:href="#linearGradient4087"
       id="linearGradient3906"
       gradientUnits="userSpaceOnUse"
       x1="12"
       y1="984.36218"
       x2="24"
       y2="1012.3622"
       gradientTransform="matrix(0.28571353,0,0,0.28571353,58.857157,752.83144)" />
    <linearGradient
       inkscape:collect="always"
       xlink:href="#linearGradient3757"
       id="linearGradient3921"
       gradientUnits="userSpaceOnUse"
       gradientTransform="matrix(0.33333247,0,0,0.33333247,-78.666631,-1384.4826)"
       x1="16"
       y1="992.36224"
       x2="48"
       y2="1048.3622" />
    <radialGradient
       inkscape:collect="always"
       xlink:href="#linearGradient4021"
       id="radialGradient3924"
       gradientUnits="userSpaceOnUse"
       gradientTransform="matrix(0.44897839,0,0,0.40816206,-53.63268,-629.35898)"
       cx="-32"
       cy="-1008.3621"
       fx="-32"
       fy="-1008.3621"
       r="28" />
    <linearGradient
       inkscape:collect="always"
       xlink:href="#linearGradient3875"
       id="linearGradient3927"
       gradientUnits="userSpaceOnUse"
       gradientTransform="translate(-1,989.86218)"
       x1="247.61134"
       y1="43.924145"
       x2="251.95494"
       y2="46.992867" />
    <linearGradient
       inkscape:collect="always"
       xlink:href="#linearGradient3875-7"
       id="linearGradient3929"
       gradientUnits="userSpaceOnUse"
       gradientTransform="translate(-1,989.86218)"
       x1="259.57281"
       y1="35.097984"
       x2="260.41602"
       y2="39.090126" />
  </defs>
  <sodipodi:namedview
     id="base"
     pagecolor="#ffffff"
     bordercolor="#666666"
     borderopacity="1.0"
     inkscape:pageopacity="0.0"
     inkscape:pageshadow="2"
     inkscape:zoom="1"
     inkscape:cx="42.89443"
     inkscape:cy="9.3207096"
     inkscape:document-units="px"
     inkscape:current-layer="layer1"
     showgrid="false"
     inkscape:snap-bbox="true"
     inkscape:bbox-nodes="true"
     inkscape:object-nodes="true"
     showguides="true"
     inkscape:guide-bbox="true"
     height="4212.99px">
    <inkscape:grid
       type="xygrid"
       id="grid2985"
       empspacing="4"
       visible="true"
       enabled="true"
       snapvisiblegridlinesonly="true"
       spacingx="1px"
       spacingy="1px" />
  </sodipodi:namedview>
  <metadata
     id="metadata7">
    <rdf:RDF>
      <cc:Work
         rdf:about="">
        <dc:format>image/svg+xml</dc:format>
        <dc:type
           rdf:resource="http://purl.org/dc/dcmitype/StillImage" />
        <dc:title />
      </cc:Work>
    </rdf:RDF>
  </metadata>
  <g
     inkscape:label="Layer 1"
     inkscape:groupmode="layer"
     id="layer1"
     transform="translate(0,-1036.3627)">
    <g
       id="g3943"
       transform="translate(-60.000011,0)">
      <rect
         transform="scale(-1,-1)"
         rx="1.3333298"
         y="-1052.3627"
         x="-75.999969"
         height="15.999957"
         width="15.999957"
         id="rect3853"
         style="color:#000000;fill:url(#radialGradient3924);fill-opacity:1;fill-rule:nonzero;stroke:none;stroke-width:8;marker:none;visibility:visible;display:inline;overflow:visible;enable-background:accumulate" />
      <rect
         style="color:#000000;fill:url(#linearGradient3921);fill-opacity:1;fill-rule:nonzero;stroke:none;stroke-width:8;marker:none;visibility:visible;display:inline;overflow:visible;enable-background:accumulate"
         id="rect3855"
         width="15.999957"
         height="15.999957"
         x="-75.999969"
         y="-1052.3627"
         rx="1.3333298"
         transform="scale(-1,-1)" />
      <path
         id="rect3931"
         transform="translate(0,1020.3627)"
         d="m 66,21 c -0.554,0 -1,0.446 -1,1 l 0,4 c 0,0.554 0.446,1 1,1 l 9,0 c 0.552285,0 1,0.447715 1,1 l 0,-2 0,-4 c 0,-0.554 -0.446,-1 -1,-1 l -9,0 z"
         style="color:#000000;fill:#444444;fill-opacity:1;fill-rule:nonzero;stroke:none;stroke-width:1.5;marker:none;visibility:visible;display:inline;overflow:visible;enable-background:accumulate"
         inkscape:connector-curvature="0" />
      <path
         style="color:#000000;fill:url(#linearGradient3906);fill-opacity:1;fill-rule:nonzero;stroke:none;stroke-width:1.5;marker:none;visibility:visible;display:inline;overflow:visible;enable-background:accumulate"
         d="m 61.330366,1036.3627 c -0.738664,0 -1.330355,0.5917 -1.330355,1.3305 l 0,7.8123 c 0,0 1.142854,-2.2856 3.428563,-3.4285 2.285708,-1.1429 4.208427,-1.3513 5.71427,-2.8571 1.714281,-1.7143 1.714281,-2.8572 1.714281,-2.8572 z"
         id="path3881"
         inkscape:connector-curvature="0"
         sodipodi:nodetypes="sscsscs" />
      <path
         sodipodi:nodetypes="ccccscccccccsccccccccccccccsccccccccccccsccccccccccccscsscscccsscscscsccscs"
         inkscape:connector-curvature="0"
         style="font-size:16.67299843px;font-style:normal;font-variant:normal;font-weight:bold;font-stretch:normal;text-indent:0;text-align:start;text-decoration:none;line-height:100%;letter-spacing:normal;word-spacing:normal;text-transform:none;direction:ltr;block-progression:tb;writing-mode:lr-tb;text-anchor:start;color:#000000;fill:#ffffff;fill-opacity:1;fill-rule:nonzero;stroke:none;stroke-width:2;marker:none;visibility:visible;font-family:Brandon Grotesque;-inkscape-font-specification:Brandon Grotesque"
         d="m 68.992448,1042.3658 c -0.206007,0 -0.395607,0.031 -0.561857,0.093 -0.166252,0.063 -0.302784,0.1449 -0.405786,0.2497 -0.103002,0.1052 -0.18329,0.2236 -0.23931,0.3537 -0.05422,0.1279 -0.08324,0.2649 -0.08324,0.4058 0,0.1279 0.02765,0.2486 0.07284,0.3643 0.04518,0.1159 0.09781,0.2168 0.166477,0.3016 0.07048,0.085 0.162536,0.1635 0.260118,0.2394 0.09939,0.075 0.188768,0.1385 0.28093,0.1872 0.09396,0.049 0.196927,0.093 0.301738,0.1353 0.38129,0.15 0.572261,0.3378 0.572263,0.5619 -2e-6,0.097 -0.04218,0.1761 -0.114456,0.2394 -0.07048,0.061 -0.158487,0.093 -0.270524,0.093 -0.05783,0 -0.122234,0 -0.187286,-0.021 -0.06506,-0.015 -0.122673,-0.031 -0.176881,-0.052 -0.05422,-0.021 -0.101856,-0.045 -0.156072,-0.073 -0.05241,-0.027 -0.100924,-0.051 -0.135261,-0.073 -0.03433,-0.021 -0.06654,-0.044 -0.09364,-0.063 l -0.04162,-0.021 c -0.01626,-0.016 -0.04846,-0.024 -0.09364,-0.021 -0.04518,0 -0.07377,0.02 -0.09364,0.052 l -0.260119,0.4577 c -0.01988,0.041 -0.02443,0.076 -0.02082,0.093 0.0055,0.016 0.02311,0.033 0.05202,0.063 0.03975,0.04 0.08422,0.083 0.145667,0.1252 0.06144,0.041 0.148518,0.085 0.249715,0.1353 0.103002,0.049 0.226392,0.095 0.374572,0.1252 0.149986,0.031 0.310561,0.041 0.478619,0.041 0.19697,0 0.37299,-0.028 0.541049,-0.093 0.168055,-0.067 0.307764,-0.1535 0.41619,-0.2601 0.110234,-0.1079 0.198677,-0.2391 0.26012,-0.3747 0.06144,-0.1373 0.09364,-0.2715 0.09364,-0.4162 -3e-6,-0.1445 -0.03083,-0.2792 -0.08324,-0.4058 -0.05241,-0.1265 -0.113204,-0.2376 -0.187286,-0.3224 -0.07409,-0.085 -0.1707,-0.1634 -0.280928,-0.2393 -0.108423,-0.076 -0.204597,-0.1353 -0.291334,-0.1769 -0.08493,-0.041 -0.176121,-0.084 -0.280929,-0.1252 -0.21685,-0.088 -0.374249,-0.177 -0.468215,-0.2601 -0.09216,-0.082 -0.135264,-0.176 -0.135262,-0.2809 -2e-6,-0.076 0.02678,-0.1417 0.09364,-0.1977 0.06867,-0.057 0.152132,-0.083 0.249715,-0.083 0.06325,0 0.134004,0.013 0.208095,0.032 0.07409,0.02 0.14304,0.051 0.208096,0.082 0.06506,0.032 0.126282,0.055 0.17688,0.083 0.0506,0.029 0.09369,0.065 0.135263,0.093 0.04336,0.027 0.07104,0.039 0.07284,0.041 0.0253,0.019 0.05388,0.016 0.09364,0 0.03975,-0.016 0.07377,-0.04 0.09364,-0.073 l 0.28093,-0.4266 c 0.01446,-0.016 0.02443,-0.041 0.02082,-0.083 -0.0036,-0.044 -0.02131,-0.077 -0.05202,-0.093 -0.377679,-0.2782 -0.772326,-0.4162 -1.186144,-0.4162 z m 2.216789,0.052 c -0.03072,0 -0.05295,0.013 -0.07284,0.031 -0.01988,0.02 -0.03122,0.044 -0.03122,0.073 l 0,0.6138 c 0,0.027 0.01132,0.051 0.03122,0.073 0.01988,0.02 0.04211,0.032 0.07284,0.032 l 0.790763,0 0,2.9653 c -4e-6,0.027 0.0096,0.052 0.03122,0.073 0.02168,0.021 0.04572,0.031 0.07284,0.031 l 0.665906,0 c 0.0271,0 0.05114,-0.013 0.07284,-0.031 0.02168,-0.021 0.04162,-0.045 0.04162,-0.073 l 0,-2.9653 0.790763,0 c 0.03073,0 0.05295,-0.013 0.07284,-0.032 0.01987,-0.021 0.03122,-0.045 0.03122,-0.073 l 0,-0.6138 c -3e-6,-0.029 -0.01132,-0.053 -0.03122,-0.073 -0.01988,-0.021 -0.04211,-0.031 -0.07284,-0.031 l -2.465931,0 z"
         id="path3889" />
    </g>
  </g>
</svg>
